<?xml version="1.0" encoding="utf-8"?>
<!-- Generator: Adobe Illustrator 25.4.1, SVG Export Plug-In . SVG Version: 6.00 Build 0)  -->
<svg version="1.1" id="Layer_1" xmlns="http://www.w3.org/2000/svg" xmlns:xlink="http://www.w3.org/1999/xlink" x="0px" y="0px"
	 viewBox="0 0 367.5 162.9" style="enable-background:new 0 0 367.5 162.9;" xml:space="preserve">
<style type="text/css">
	.st0{fill:#222222;}
	.st1{fill:#777777;}
	.st2{fill:#DDDDDD;}
	.st3{fill:#DA2C5E;}
	.st4{enable-background:new    ;}
</style>
<g>
	<g>
		<path class="st0" d="M7.5,162.4c-3.9,0-7-3.1-7-7V7.5c0-3.9,3.1-7,7-7H360c3.8,0,7,3.2,7,7v147.9c0,3.8-3.2,7-7,7H7.5z"/>
		<path class="st1" d="M360,1c3.5,0,6.5,3,6.5,6.5v147.9c0,3.5-3,6.5-6.5,6.5H7.5c-3.6,0-6.5-2.9-6.5-6.5V7.5C1,3.9,3.9,1,7.5,1h68
			h7.7H360 M360,0H83.2h-7.7h-68C3.3,0,0,3.3,0,7.5v147.9c0,4.1,3.3,7.5,7.5,7.5H360c4.1,0,7.5-3.4,7.5-7.5V7.5
			C367.5,3.4,364.1,0,360,0L360,0z"/>
	</g>
	<g>
		<g>
			<path class="st2" d="M33.2,50c0,0.8-0.7,1.5-1.5,1.5H15.4c-0.8,0-1.5-0.7-1.5-1.5V33.6c0-0.8,0.7-1.5,1.5-1.5h16.4
				c0.8,0,1.5,0.7,1.5,1.5L33.2,50L33.2,50z"/>
			<path class="st2" d="M34.8,27c0,0.8-0.7,1.5-1.5,1.5h-18c-0.8,0-1.5-0.7-1.5-1.5v-6.4c0-0.8,0.7-1.5,1.5-1.5h18
				c0.8,0,1.5,0.7,1.5,1.5V27L34.8,27z"/>
			<path class="st2" d="M59.4,27c0,0.8-0.7,1.5-1.5,1.5h-18c-0.8,0-1.5-0.7-1.5-1.5v-6.4c0-0.8,0.7-1.5,1.5-1.5h18
				c0.8,0,1.5,0.7,1.5,1.5V27L59.4,27z"/>
			<path class="st2" d="M83.9,27c0,0.8-0.7,1.5-1.5,1.5h-18c-0.8,0-1.5-0.7-1.5-1.5v-6.4c0-0.8,0.7-1.5,1.5-1.5h18
				c0.8,0,1.5,0.7,1.5,1.5V27z"/>
			<path class="st2" d="M108.5,27c0,0.8-0.7,1.5-1.5,1.5H89c-0.8,0-1.5-0.7-1.5-1.5v-6.4c0-0.8,0.7-1.5,1.5-1.5h18
				c0.8,0,1.5,0.7,1.5,1.5V27L108.5,27z"/>
			<path class="st2" d="M133.1,27c0,0.8-0.7,1.5-1.5,1.5h-18c-0.8,0-1.5-0.7-1.5-1.5v-6.4c0-0.8,0.7-1.5,1.5-1.5h18
				c0.8,0,1.5,0.7,1.5,1.5V27z"/>
			<path class="st2" d="M157.7,27c0,0.8-0.7,1.5-1.5,1.5h-18c-0.8,0-1.5-0.7-1.5-1.5v-6.4c0-0.8,0.7-1.5,1.5-1.5h18
				c0.8,0,1.5,0.7,1.5,1.5V27z"/>
			<path class="st2" d="M182.2,27c0,0.8-0.7,1.5-1.5,1.5h-18c-0.8,0-1.5-0.7-1.5-1.5v-6.4c0-0.8,0.7-1.5,1.5-1.5h18
				c0.8,0,1.5,0.7,1.5,1.5V27z"/>
			<path class="st2" d="M206.8,27c0,0.8-0.7,1.5-1.5,1.5h-18c-0.8,0-1.5-0.7-1.5-1.5v-6.4c0-0.8,0.7-1.5,1.5-1.5h18
				c0.8,0,1.5,0.7,1.5,1.5V27z"/>
			<path class="st2" d="M231.4,27c0,0.8-0.7,1.5-1.5,1.5h-18c-0.8,0-1.5-0.7-1.5-1.5v-6.4c0-0.8,0.7-1.5,1.5-1.5h18
				c0.8,0,1.5,0.7,1.5,1.5V27z"/>
			<path class="st2" d="M255.9,27c0,0.8-0.7,1.5-1.5,1.5h-18c-0.8,0-1.5-0.7-1.5-1.5v-6.4c0-0.8,0.7-1.5,1.5-1.5h18
				c0.8,0,1.5,0.7,1.5,1.5V27z"/>
			<path class="st2" d="M280.5,27c0,0.8-0.7,1.5-1.5,1.5h-18c-0.8,0-1.5-0.7-1.5-1.5v-6.4c0-0.8,0.7-1.5,1.5-1.5h18
				c0.8,0,1.5,0.7,1.5,1.5V27z"/>
			<path class="st2" d="M305.1,27c0,0.8-0.7,1.5-1.5,1.5h-18c-0.8,0-1.5-0.7-1.5-1.5v-6.4c0-0.8,0.7-1.5,1.5-1.5h18
				c0.8,0,1.5,0.7,1.5,1.5V27z"/>
			<path class="st2" d="M329,27c0,0.8-0.7,1.5-1.5,1.5h-18c-0.8,0-1.5-0.7-1.5-1.5v-6.4c0-0.8,0.7-1.5,1.5-1.5h18
				c0.8,0,1.5,0.7,1.5,1.5V27z"/>
			<path class="st2" d="M353.4,27c0,0.8-0.7,1.5-1.5,1.5h-18c-0.8,0-1.5-0.7-1.5-1.5v-6.4c0-0.8,0.7-1.5,1.5-1.5h18
				c0.8,0,1.5,0.7,1.5,1.5V27z"/>
			<path class="st2" d="M57,50c0,0.8-0.7,1.5-1.5,1.5H39.1c-0.8,0-1.5-0.7-1.5-1.5V33.6c0-0.8,0.7-1.5,1.5-1.5h16.4
				c0.8,0,1.5,0.7,1.5,1.5V50z"/>
			<path class="st2" d="M80.7,50c0,0.8-0.7,1.5-1.5,1.5H62.8c-0.8,0-1.5-0.7-1.5-1.5V33.6c0-0.8,0.7-1.5,1.5-1.5h16.4
				c0.8,0,1.5,0.7,1.5,1.5V50L80.7,50z"/>
			<path class="st2" d="M104.4,50c0,0.8-0.7,1.5-1.5,1.5H86.5c-0.8,0-1.5-0.7-1.5-1.5V33.6c0-0.8,0.7-1.5,1.5-1.5h16.4
				c0.8,0,1.5,0.7,1.5,1.5V50L104.4,50z"/>
			<path class="st2" d="M128.1,50c0,0.8-0.7,1.5-1.5,1.5h-16.4c-0.8,0-1.5-0.7-1.5-1.5V33.6c0-0.8,0.7-1.5,1.5-1.5h16.4
				c0.8,0,1.5,0.7,1.5,1.5V50z"/>
			<path class="st2" d="M151.8,50c0,0.8-0.7,1.5-1.5,1.5h-16.4c-0.8,0-1.5-0.7-1.5-1.5V33.6c0-0.8,0.7-1.5,1.5-1.5h16.4
				c0.8,0,1.5,0.7,1.5,1.5V50z"/>
			<path class="st2" d="M175.5,50c0,0.8-0.7,1.5-1.5,1.5h-16.4c-0.8,0-1.5-0.7-1.5-1.5V33.6c0-0.8,0.7-1.5,1.5-1.5H174
				c0.8,0,1.5,0.7,1.5,1.5V50z"/>
			<path class="st2" d="M199.2,50c0,0.8-0.7,1.5-1.5,1.5h-16.4c-0.8,0-1.5-0.7-1.5-1.5V33.6c0-0.8,0.7-1.5,1.5-1.5h16.4
				c0.8,0,1.5,0.7,1.5,1.5V50z"/>
			<path class="st2" d="M222.9,50c0,0.8-0.7,1.5-1.5,1.5H205c-0.8,0-1.5-0.7-1.5-1.5V33.6c0-0.8,0.7-1.5,1.5-1.5h16.4
				c0.8,0,1.5,0.7,1.5,1.5V50z"/>
			<path class="st2" d="M246.7,50c0,0.8-0.7,1.5-1.5,1.5h-16.4c-0.8,0-1.5-0.7-1.5-1.5V33.6c0-0.8,0.7-1.5,1.5-1.5h16.4
				c0.8,0,1.5,0.7,1.5,1.5V50z"/>
			<path class="st2" d="M270.4,50c0,0.8-0.7,1.5-1.5,1.5h-16.4c-0.8,0-1.5-0.7-1.5-1.5V33.6c0-0.8,0.7-1.5,1.5-1.5h16.4
				c0.8,0,1.5,0.7,1.5,1.5V50z"/>
			<path class="st2" d="M294.1,50c0,0.8-0.7,1.5-1.5,1.5h-16.4c-0.8,0-1.5-0.7-1.5-1.5V33.6c0-0.8,0.7-1.5,1.5-1.5h16.4
				c0.8,0,1.5,0.7,1.5,1.5V50z"/>
			<path class="st2" d="M317.8,50c0,0.8-0.7,1.5-1.5,1.5h-16.4c-0.8,0-1.5-0.7-1.5-1.5V33.6c0-0.8,0.7-1.5,1.5-1.5h16.4
				c0.8,0,1.5,0.7,1.5,1.5V50z"/>
			<path class="st2" d="M353.4,50c0,0.8-0.7,1.5-1.5,1.5h-28.3c-0.8,0-1.5-0.7-1.5-1.5V33.6c0-0.8,0.7-1.5,1.5-1.5h28.3
				c0.8,0,1.5,0.7,1.5,1.5V50z"/>
			<path class="st2" d="M334,72.5c0,0.8,0.7,1.5,1.5,1.5h16.4c0.8,0,1.5-0.7,1.5-1.5V56.1c0-0.8-0.7-1.5-1.5-1.5h-16.4
				c-0.8,0-1.5,0.7-1.5,1.5V72.5z"/>
			<path class="st2" d="M310.2,72.5c0,0.8,0.7,1.5,1.5,1.5h16.4c0.8,0,1.5-0.7,1.5-1.5V56.1c0-0.8-0.7-1.5-1.5-1.5h-16.4
				c-0.8,0-1.5,0.7-1.5,1.5V72.5z"/>
			<path class="st2" d="M286.5,72.5c0,0.8,0.7,1.5,1.5,1.5h16.4c0.8,0,1.5-0.7,1.5-1.5V56.1c0-0.8-0.7-1.5-1.5-1.5H288
				c-0.8,0-1.5,0.7-1.5,1.5V72.5z"/>
			<path class="st2" d="M262.8,72.5c0,0.8,0.7,1.5,1.5,1.5h16.4c0.8,0,1.5-0.7,1.5-1.5V56.1c0-0.8-0.7-1.5-1.5-1.5h-16.4
				c-0.8,0-1.5,0.7-1.5,1.5V72.5z"/>
			<path class="st2" d="M239.1,72.5c0,0.8,0.7,1.5,1.5,1.5H257c0.8,0,1.5-0.7,1.5-1.5V56.1c0-0.8-0.7-1.5-1.5-1.5h-16.4
				c-0.8,0-1.5,0.7-1.5,1.5V72.5L239.1,72.5z"/>
			<path class="st2" d="M215.4,72.5c0,0.8,0.7,1.5,1.5,1.5h16.4c0.8,0,1.5-0.7,1.5-1.5V56.1c0-0.8-0.7-1.5-1.5-1.5h-16.4
				c-0.8,0-1.5,0.7-1.5,1.5V72.5L215.4,72.5z"/>
			<path class="st2" d="M191.7,72.5c0,0.8,0.7,1.5,1.5,1.5h16.4c0.8,0,1.5-0.7,1.5-1.5V56.1c0-0.8-0.7-1.5-1.5-1.5h-16.4
				c-0.8,0-1.5,0.7-1.5,1.5V72.5z"/>
			<path class="st2" d="M168,72.5c0,0.8,0.7,1.5,1.5,1.5h16.4c0.8,0,1.5-0.7,1.5-1.5V56.1c0-0.8-0.7-1.5-1.5-1.5h-16.4
				c-0.8,0-1.5,0.7-1.5,1.5V72.5z"/>
			<path class="st2" d="M144.3,72.5c0,0.8,0.7,1.5,1.5,1.5h16.4c0.8,0,1.5-0.7,1.5-1.5V56.1c0-0.8-0.7-1.5-1.5-1.5h-16.4
				c-0.8,0-1.5,0.7-1.5,1.5V72.5z"/>
			<path class="st3" d="M120.6,72.5c0,0.8,0.7,1.5,1.5,1.5h16.4c0.8,0,1.5-0.7,1.5-1.5V56.1c0-0.8-0.7-1.5-1.5-1.5H122
				c-0.8,0-1.5,0.7-1.5,1.5C120.6,56.1,120.6,72.5,120.6,72.5z"/>
			<path class="st3" d="M96.8,72.5c0,0.8,0.7,1.5,1.5,1.5h16.4c0.8,0,1.5-0.7,1.5-1.5V56.1c0-0.8-0.7-1.5-1.5-1.5H98.3
				c-0.8,0-1.5,0.7-1.5,1.5V72.5z"/>
			<path class="st3" d="M73.1,72.5c0,0.8,0.7,1.5,1.5,1.5H91c0.8,0,1.5-0.7,1.5-1.5V56.1c0-0.8-0.7-1.5-1.5-1.5H74.6
				c-0.8,0-1.5,0.7-1.5,1.5V72.5z"/>
			<path class="st3" d="M49.4,72.5c0,0.8,0.7,1.5,1.5,1.5h16.4c0.8,0,1.5-0.7,1.5-1.5V56.1c0-0.8-0.7-1.5-1.5-1.5H50.9
				c-0.8,0-1.5,0.7-1.5,1.5V72.5L49.4,72.5z"/>
			<path class="st2" d="M293.4,95.4c0,0.8,0.7,1.5,1.5,1.5h16.4c0.8,0,1.5-0.7,1.5-1.5V79c0-0.8-0.7-1.5-1.5-1.5h-16.4
				c-0.8,0-1.5,0.7-1.5,1.5V95.4z"/>
			<path class="st2" d="M269.6,95.4c0,0.8,0.7,1.5,1.5,1.5h16.4c0.8,0,1.5-0.7,1.5-1.5V79c0-0.8-0.7-1.5-1.5-1.5h-16.4
				c-0.8,0-1.5,0.7-1.5,1.5V95.4z"/>
			<path class="st2" d="M245.9,95.4c0,0.8,0.7,1.5,1.5,1.5h16.4c0.8,0,1.5-0.7,1.5-1.5V79c0-0.8-0.7-1.5-1.5-1.5h-16.4
				c-0.8,0-1.5,0.7-1.5,1.5V95.4L245.9,95.4z"/>
			<path class="st2" d="M222.2,95.4c0,0.8,0.7,1.5,1.5,1.5h16.4c0.8,0,1.5-0.7,1.5-1.5V79c0-0.8-0.7-1.5-1.5-1.5h-16.4
				c-0.8,0-1.5,0.7-1.5,1.5V95.4z"/>
			<path class="st2" d="M198.5,95.4c0,0.8,0.7,1.5,1.5,1.5h16.4c0.8,0,1.5-0.7,1.5-1.5V79c0-0.8-0.7-1.5-1.5-1.5H200
				c-0.8,0-1.5,0.7-1.5,1.5V95.4z"/>
			<path class="st2" d="M174.8,95.4c0,0.8,0.7,1.5,1.5,1.5h16.4c0.8,0,1.5-0.7,1.5-1.5V79c0-0.8-0.7-1.5-1.5-1.5h-16.4
				c-0.8,0-1.5,0.7-1.5,1.5V95.4z"/>
			<path class="st2" d="M151.1,95.4c0,0.8,0.7,1.5,1.5,1.5H169c0.8,0,1.5-0.7,1.5-1.5V79c0-0.8-0.7-1.5-1.5-1.5h-16.4
				c-0.8,0-1.5,0.7-1.5,1.5V95.4z"/>
			<path class="st3" d="M127.4,95.4c0,0.8,0.7,1.5,1.5,1.5h16.4c0.8,0,1.5-0.7,1.5-1.5V79c0-0.8-0.7-1.5-1.5-1.5h-16.4
				c-0.8,0-1.5,0.7-1.5,1.5C127.4,79,127.4,95.4,127.4,95.4z"/>
			<path class="st3" d="M103.7,95.4c0,0.8,0.7,1.5,1.5,1.5h16.4c0.8,0,1.5-0.7,1.5-1.5V79c0-0.8-0.7-1.5-1.5-1.5h-16.4
				c-0.8,0-1.5,0.7-1.5,1.5V95.4z"/>
			<path class="st3" d="M79.9,95.4c0,0.8,0.7,1.5,1.5,1.5h16.4c0.8,0,1.5-0.7,1.5-1.5V79c0-0.8-0.7-1.5-1.5-1.5H81.4
				c-0.8,0-1.5,0.7-1.5,1.5C80,79,80,95.4,79.9,95.4z"/>
			<path class="st3" d="M56.2,95.4c0,0.8,0.7,1.5,1.5,1.5h16.4c0.8,0,1.5-0.7,1.5-1.5V79c0-0.8-0.7-1.5-1.5-1.5H57.7
				c-0.8,0-1.5,0.7-1.5,1.5V95.4z"/>
			<path class="st2" d="M13.9,72.5c0,0.8,0.7,1.5,1.5,1.5h28.3c0.8,0,1.5-0.7,1.5-1.5V56.1c0-0.8-0.7-1.5-1.5-1.5H15.4
				c-0.8,0-1.5,0.7-1.5,1.5V72.5z"/>
			<path class="st2" d="M13.9,95.4c0,0.8,0.7,1.5,1.5,1.5h35.1c0.8,0,1.5-0.7,1.5-1.5V79c0-0.8-0.7-1.5-1.5-1.5H15.4
				c-0.8,0-1.5,0.7-1.5,1.5V95.4z"/>
			<path class="st2" d="M316.8,95.4c0,0.8,0.7,1.5,1.5,1.5h33.9c0.8,0,1.5-0.7,1.5-1.5V79c0-0.8-0.7-1.5-1.5-1.5h-33.9
				c-0.8,0-1.5,0.7-1.5,1.5V95.4z"/>
			<path class="st2" d="M280.6,118.1c0,0.8,0.7,1.5,1.5,1.5h16.4c0.8,0,1.5-0.7,1.5-1.5v-16.4c0-0.8-0.7-1.5-1.5-1.5h-16.4
				c-0.8,0-1.5,0.7-1.5,1.5V118.1z"/>
			<path class="st2" d="M310,140.9c0,0.8,0.7,1.5,1.5,1.5h16.4c0.8,0,1.5-0.7,1.5-1.5v-5.8c0-0.8-0.7-1.5-1.5-1.5h-16.4
				c-0.8,0-1.5,0.7-1.5,1.5V140.9z"/>
			<path class="st2" d="M333.9,140.9c0,0.8,0.7,1.5,1.5,1.5h16.4c0.8,0,1.5-0.7,1.5-1.5v-5.8c0-0.8-0.7-1.5-1.5-1.5h-16.4
				c-0.8,0-1.5,0.7-1.5,1.5V140.9z"/>
			<path class="st2" d="M286.5,140.9c0,0.8,0.7,1.5,1.5,1.5h16.4c0.8,0,1.5-0.7,1.5-1.5v-5.8c0-0.8-0.7-1.5-1.5-1.5H288
				c-0.8,0-1.5,0.7-1.5,1.5V140.9z"/>
			<path class="st2" d="M310,130.4c0,0.8,0.7,1.5,1.5,1.5h16.4c0.8,0,1.5-0.7,1.5-1.5v-5.8c0-0.8-0.7-1.5-1.5-1.5h-16.4
				c-0.8,0-1.5,0.7-1.5,1.5V130.4z"/>
			<path class="st2" d="M256.9,118.1c0,0.8,0.7,1.5,1.5,1.5h16.4c0.8,0,1.5-0.7,1.5-1.5v-16.4c0-0.8-0.7-1.5-1.5-1.5h-16.4
				c-0.8,0-1.5,0.7-1.5,1.5V118.1z"/>
			<path class="st2" d="M262.8,140.9c0,0.8,0.7,1.5,1.5,1.5h16.4c0.8,0,1.5-0.7,1.5-1.5v-16.4c0-0.8-0.7-1.5-1.5-1.5h-16.4
				c-0.8,0-1.5,0.7-1.5,1.5V140.9z"/>
			<path class="st2" d="M233.2,118.1c0,0.8,0.7,1.5,1.5,1.5h16.4c0.8,0,1.5-0.7,1.5-1.5v-16.4c0-0.8-0.7-1.5-1.5-1.5h-16.4
				c-0.8,0-1.5,0.7-1.5,1.5V118.1z"/>
			<path class="st2" d="M209.4,118.1c0,0.8,0.7,1.5,1.5,1.5h16.4c0.8,0,1.5-0.7,1.5-1.5v-16.4c0-0.8-0.7-1.5-1.5-1.5h-16.4
				c-0.8,0-1.5,0.7-1.5,1.5V118.1z"/>
			<path class="st2" d="M185.7,118.1c0,0.8,0.7,1.5,1.5,1.5h16.4c0.8,0,1.5-0.7,1.5-1.5v-16.4c0-0.8-0.7-1.5-1.5-1.5h-16.4
				c-0.8,0-1.5,0.7-1.5,1.5V118.1z"/>
			<path class="st2" d="M162,118.1c0,0.8,0.7,1.5,1.5,1.5h16.4c0.8,0,1.5-0.7,1.5-1.5v-16.4c0-0.8-0.7-1.5-1.5-1.5h-16.4
				c-0.8,0-1.5,0.7-1.5,1.5V118.1z"/>
			<path class="st3" d="M138.3,118.1c0,0.8,0.7,1.5,1.5,1.5h16.4c0.8,0,1.5-0.7,1.5-1.5v-16.4c0-0.8-0.7-1.5-1.5-1.5h-16.4
				c-0.8,0-1.5,0.7-1.5,1.5V118.1z"/>
			<path class="st3" d="M114.6,118.1c0,0.8,0.7,1.5,1.5,1.5h16.4c0.8,0,1.5-0.7,1.5-1.5v-16.4c0-0.8-0.7-1.5-1.5-1.5h-16.4
				c-0.8,0-1.5,0.7-1.5,1.5V118.1z"/>
			<path class="st3" d="M90.9,118.1c0,0.8,0.7,1.5,1.5,1.5h16.4c0.8,0,1.5-0.7,1.5-1.5v-16.4c0-0.8-0.7-1.5-1.5-1.5H92.4
				c-0.8,0-1.5,0.7-1.5,1.5V118.1L90.9,118.1z"/>
			<path class="st3" d="M67.2,118.1c0,0.8,0.7,1.5,1.5,1.5h16.4c0.8,0,1.5-0.7,1.5-1.5v-16.4c0-0.8-0.7-1.5-1.5-1.5H68.7
				c-0.8,0-1.5,0.7-1.5,1.5V118.1z"/>
			<path class="st2" d="M61.3,140.9c0,0.8,0.7,1.5,1.5,1.5h16.4c0.8,0,1.5-0.7,1.5-1.5v-16.4c0-0.8-0.7-1.5-1.5-1.5H62.8
				c-0.8,0-1.5,0.7-1.5,1.5V140.9z"/>
			<path class="st2" d="M85,140.9c0,0.8,0.7,1.5,1.5,1.5h22.7c0.8,0,1.5-0.7,1.5-1.5v-16.4c0-0.8-0.7-1.5-1.5-1.5H86.5
				c-0.8,0-1.5,0.7-1.5,1.5C85,124.5,85,140.9,85,140.9z"/>
			<path class="st2" d="M233.1,140.9c0,0.8,0.7,1.5,1.5,1.5h22.6c0.8,0,1.5-0.7,1.5-1.5v-16.4c0-0.8-0.7-1.5-1.5-1.5h-22.6
				c-0.8,0-1.5,0.7-1.5,1.5V140.9z"/>
			<path class="st2" d="M114.9,140.9c0,0.8,0.7,1.5,1.5,1.5h111.1c0.8,0,1.5-0.7,1.5-1.5v-16.4c0-0.8-0.7-1.5-1.5-1.5H116.4
				c-0.8,0-1.5,0.7-1.5,1.5V140.9L114.9,140.9z"/>
			<path class="st2" d="M37.6,140.9c0,0.8,0.7,1.5,1.5,1.5h16.4c0.8,0,1.5-0.7,1.5-1.5v-16.4c0-0.8-0.7-1.5-1.5-1.5H39.1
				c-0.8,0-1.5,0.7-1.5,1.5V140.9z"/>
			<path class="st2" d="M13.9,140.9c0,0.8,0.7,1.5,1.5,1.5h16.4c0.8,0,1.5-0.7,1.5-1.5v-16.4c0-0.8-0.7-1.5-1.5-1.5H15.4
				c-0.8,0-1.5,0.7-1.5,1.5C13.9,124.5,13.9,140.9,13.9,140.9z"/>
			<path class="st2" d="M13.9,118.1c0,0.8,0.7,1.5,1.5,1.5h46.4c0.8,0,1.5-0.7,1.5-1.5v-16.4c0-0.8-0.7-1.5-1.5-1.5H15.4
				c-0.8,0-1.5,0.7-1.5,1.5V118.1z"/>
			<path class="st2" d="M304.3,118.1c0,0.8,0.7,1.5,1.5,1.5h46.4c0.8,0,1.5-0.7,1.5-1.5v-16.4c0-0.8-0.7-1.5-1.5-1.5h-46.4
				c-0.8,0-1.5,0.7-1.5,1.5V118.1z"/>
		</g>
	</g>
</g>
<g>
	<g class="st4">
		<path class="st2" d="M60.7,69.3l-0.8-0.8c-0.3,0.1-0.6,0.2-0.9,0.2c-0.4,0-0.8-0.1-1.2-0.3s-0.6-0.5-0.9-0.9
			c-0.2-0.4-0.3-0.8-0.3-1.2l0-3.8c0-0.4,0.1-0.8,0.3-1.2c0.2-0.4,0.5-0.7,0.8-0.9c0.4-0.2,0.8-0.3,1.2-0.3c0.4,0,0.8,0.1,1.2,0.3
			s0.6,0.5,0.9,0.9c0.2,0.4,0.3,0.8,0.3,1.2l0,3.8c0,0.2,0,0.5-0.1,0.7s-0.1,0.4-0.3,0.6l0.7,0.8c0,0,0,0.1,0,0.1L60.7,69.3
			C60.8,69.3,60.8,69.3,60.7,69.3z M59,67.2c0.3,0,0.5-0.1,0.7-0.3s0.2-0.4,0.2-0.7l0-3.8c0-0.3-0.1-0.5-0.3-0.7
			c-0.2-0.2-0.4-0.3-0.6-0.3c-0.3,0-0.5,0.1-0.7,0.3c-0.2,0.2-0.2,0.4-0.2,0.7v3.8c0,0.3,0.1,0.5,0.3,0.7S58.8,67.2,59,67.2z"/>
	</g>
	<g class="st4">
		<path class="st2" d="M80.7,68.5C80.6,68.5,80.6,68.5,80.7,68.5l-1.5-8.3c0,0,0,0,0,0h1.3c0,0,0.1,0,0.1,0l0.8,5.4l0.8-5.4
			c0,0,0,0,0.1,0h1.1c0,0,0.1,0,0.1,0l0.8,5.4l0.8-5.4c0,0,0,0,0.1,0h1.3c0,0,0.1,0,0,0L85,68.4c0,0,0,0-0.1,0.1h-1.5
			c0,0,0,0-0.1-0.1l-0.6-4.3l-0.6,4.3c0,0,0,0.1-0.1,0.1H80.7z"/>
	</g>
	<g class="st4">
		<path class="st2" d="M104.6,68.5C104.6,68.5,104.6,68.5,104.6,68.5l0-8.3c0,0,0,0,0,0h3.9c0,0,0,0,0,0.1v1.3c0,0,0,0,0,0H106v1.9
			h2.5c0,0,0,0,0,0l0,1.4c0,0,0,0,0,0H106V67h2.5c0,0,0,0,0,0.1v1.4c0,0,0,0,0,0H104.6z"/>
	</g>
	<g class="st4">
		<path class="st2" d="M128,68.5C128,68.5,127.9,68.5,128,68.5l0-8.3c0,0,0,0,0,0h2.4c0.4,0,0.8,0.1,1.2,0.3s0.7,0.5,0.9,0.9
			c0.2,0.4,0.3,0.8,0.3,1.2c0,0.3,0,0.6-0.1,0.8c-0.1,0.2-0.2,0.4-0.3,0.6s-0.2,0.3-0.3,0.4c0.4,0.5,0.6,1,0.6,1.7l0,2.5
			c0,0,0,0.1-0.1,0.1h-1.4c0,0,0,0,0,0V66c0-0.3-0.1-0.5-0.3-0.8c-0.2-0.2-0.5-0.3-0.8-0.3h-0.8l0,3.5c0,0,0,0.1,0,0.1H128z
			 M129.4,63.5h1c0.2,0,0.5-0.1,0.7-0.3c0.2-0.2,0.3-0.4,0.3-0.7c0-0.3-0.1-0.5-0.3-0.7c-0.2-0.2-0.4-0.3-0.7-0.3h-1V63.5z"/>
	</g>
	<g class="st4">
		<path class="st2" d="M63.5,90.8l1.5-8.2c0,0,0,0,0.1,0h1.7c0,0,0.1,0,0.1,0l1.4,8.2c0,0,0,0.1,0,0.1h-1.3c0,0-0.1,0-0.1-0.1
			L66.7,90H65l-0.1,0.9c0,0,0,0.1-0.1,0.1L63.5,90.8C63.5,90.9,63.5,90.9,63.5,90.8z M65.3,88.7h1.2l-0.5-3.4l-0.1-0.4l0,0.4
			L65.3,88.7z"/>
	</g>
	<g class="st4">
		<path class="st2" d="M89.6,91c-0.4,0-0.8-0.1-1.2-0.3c-0.4-0.2-0.6-0.5-0.9-0.9c-0.2-0.4-0.3-0.8-0.3-1.2v-0.6c0,0,0-0.1,0.1-0.1
			h1.3c0,0,0,0,0,0.1v0.6c0,0.3,0.1,0.5,0.3,0.7c0.2,0.2,0.4,0.3,0.6,0.3s0.5-0.1,0.6-0.3c0.2-0.2,0.3-0.4,0.3-0.7
			c0-0.3-0.2-0.6-0.6-0.8c-0.1-0.1-0.3-0.2-0.6-0.3s-0.5-0.3-0.8-0.4c-0.4-0.3-0.8-0.6-1-1c-0.2-0.4-0.3-0.8-0.3-1.3
			c0-0.4,0.1-0.8,0.3-1.2c0.2-0.4,0.5-0.6,0.9-0.8c0.4-0.2,0.7-0.3,1.2-0.3c0.4,0,0.8,0.1,1.2,0.3c0.4,0.2,0.6,0.5,0.9,0.9
			s0.3,0.8,0.3,1.2v1c0,0,0,0,0,0h-1.3c0,0,0,0,0,0l0-1c0-0.3-0.1-0.5-0.3-0.7c-0.2-0.2-0.4-0.3-0.6-0.3c-0.2,0-0.5,0.1-0.6,0.3
			c-0.2,0.2-0.3,0.4-0.3,0.7c0,0.3,0.1,0.5,0.2,0.7c0.1,0.2,0.3,0.3,0.6,0.5c0,0,0.1,0.1,0.2,0.1c0.1,0.1,0.2,0.1,0.4,0.2
			c0.1,0.1,0.3,0.1,0.4,0.2c0.1,0.1,0.2,0.1,0.2,0.1c0.4,0.2,0.7,0.5,0.9,0.8s0.3,0.7,0.3,1.2c0,0.5-0.1,0.9-0.3,1.2
			c-0.2,0.4-0.5,0.7-0.9,0.9C90.4,90.9,90,91,89.6,91z"/>
	</g>
	<g class="st4">
		<path class="st2" d="M111.2,90.9C111.1,90.9,111.1,90.9,111.2,90.9l0-8.3c0,0,0,0,0,0l2.2,0c0.4,0,0.8,0.1,1.2,0.3
			c0.4,0.2,0.7,0.5,0.9,0.9c0.2,0.4,0.3,0.8,0.3,1.2v3.4c0,0.5-0.1,0.9-0.3,1.3c-0.2,0.4-0.5,0.7-0.9,0.9c-0.4,0.2-0.8,0.3-1.3,0.3
			L111.2,90.9z M112.6,89.4h0.7c0.3,0,0.5-0.1,0.8-0.3c0.2-0.2,0.3-0.5,0.3-0.7v-3.5c0-0.3-0.1-0.5-0.3-0.7s-0.4-0.3-0.7-0.3l-0.8,0
			L112.6,89.4z"/>
	</g>
	<g class="st4">
		<path class="st2" d="M135.2,90.9C135.2,90.9,135.2,90.9,135.2,90.9l0-8.3c0,0,0,0,0,0h3.8c0,0,0.1,0,0.1,0V84c0,0,0,0,0,0h-2.5
			v1.9h2.5c0,0,0,0,0,0.1l0,1.4c0,0,0,0-0.1,0h-2.5v3.5c0,0,0,0.1-0.1,0.1H135.2z"/>
	</g>
	<g class="st4">
		<path class="st2" d="M74.4,114.1C74.4,114.1,74.4,114.1,74.4,114.1l0-1.4l2.9-5.6h-2.8c0,0,0,0,0,0v-1.3c0,0,0-0.1,0-0.1h4.3
			c0,0,0.1,0,0.1,0.1v1.3l-2.9,5.6h2.9c0,0,0,0,0,0.1l0,1.3c0,0,0,0.1-0.1,0.1H74.4z"/>
	</g>
	<g class="st4">
		<path class="st2" d="M98.2,114.1C98.2,114.1,98.1,114.1,98.2,114.1l1.3-4.3l-1.3-4c0,0,0,0,0,0h1.3c0,0,0.1,0,0.1,0l0.8,2.9
			l0.8-2.9c0,0,0,0,0.1,0h1.3c0,0,0,0,0,0l-1.3,3.9l1.4,4.3c0,0,0,0.1,0,0.1h-1.3c0,0-0.1,0-0.1-0.1l-0.8-3.1l-0.8,3.1
			c0,0,0,0.1-0.1,0.1H98.2z"/>
	</g>
	<g class="st4">
		<path class="st2" d="M124.2,114.2c-0.4,0-0.8-0.1-1.2-0.3c-0.4-0.2-0.6-0.5-0.8-0.9s-0.3-0.8-0.3-1.2l0-3.7c0-0.4,0.1-0.8,0.3-1.2
			c0.2-0.4,0.5-0.7,0.8-0.9c0.4-0.2,0.8-0.3,1.2-0.3s0.8,0.1,1.2,0.3s0.6,0.5,0.8,0.9s0.3,0.8,0.3,1.2v0.6c0,0,0,0,0,0h-1.3
			c0,0,0,0,0,0V108c0-0.3-0.1-0.5-0.3-0.7c-0.2-0.2-0.4-0.3-0.6-0.3c-0.3,0-0.5,0.1-0.7,0.3s-0.2,0.4-0.2,0.7v3.7
			c0,0.3,0.1,0.5,0.3,0.7c0.2,0.2,0.4,0.3,0.6,0.3c0.3,0,0.5-0.1,0.6-0.3c0.2-0.2,0.3-0.4,0.3-0.7v-0.6c0,0,0,0,0,0h1.4c0,0,0,0,0,0
			v0.6c0,0.5-0.1,0.9-0.3,1.2c-0.2,0.4-0.5,0.7-0.8,0.9S124.7,114.2,124.2,114.2z"/>
	</g>
	<g class="st4">
		<path class="st2" d="M147.2,114.1C147.2,114.1,147.2,114.1,147.2,114.1l-1.7-8.3c0,0,0,0,0,0h1.4c0,0,0.1,0,0.1,0l1,5.5l1-5.5
			c0,0,0,0,0.1,0h1.3c0,0,0.1,0,0,0l-1.6,8.2c0,0,0,0.1-0.1,0.1H147.2z"/>
	</g>
</g>
</svg>
