<?xml version="1.0" encoding="utf-8"?>
<!-- Generator: Adobe Illustrator 25.4.1, SVG Export Plug-In . SVG Version: 6.00 Build 0)  -->
<svg version="1.1" id="Layer_1" xmlns="http://www.w3.org/2000/svg" xmlns:xlink="http://www.w3.org/1999/xlink" x="0px" y="0px"
	 viewBox="0 0 367.5 180" style="enable-background:new 0 0 367.5 180;" xml:space="preserve">
<style type="text/css">
	.st0{fill:#222222;}
	.st1{fill:#777777;}
	.st2{fill:#DDDDDD;}
	.st3{fill:#DA2C5E;}
	.st4{enable-background:new    ;}
</style>
<g>
	<g>
		<path class="st0" d="M7.5,179.5c-3.9,0-7-3.1-7-7V24.6c0-3.9,3.1-7,7-7H360c3.8,0,7,3.2,7,7v147.9c0,3.8-3.2,7-7,7H7.5z"/>
		<path class="st1" d="M360,18.1c3.5,0,6.5,3,6.5,6.5v147.9c0,3.5-3,6.5-6.5,6.5H7.5c-3.6,0-6.5-2.9-6.5-6.5V24.6
			c0-3.6,2.9-6.5,6.5-6.5h68h7.7H360 M360,17.1H83.2h-7.7h-68c-4.2,0-7.5,3.3-7.5,7.5v147.9c0,4.1,3.3,7.5,7.5,7.5H360
			c4.1,0,7.5-3.4,7.5-7.5V24.6C367.5,20.5,364.1,17.1,360,17.1L360,17.1z"/>
	</g>
	<g>
		<g>
			<path class="st2" d="M33.2,67.1c0,0.8-0.7,1.5-1.5,1.5H15.4c-0.8,0-1.5-0.7-1.5-1.5V50.7c0-0.8,0.7-1.5,1.5-1.5h16.4
				c0.8,0,1.5,0.7,1.5,1.5L33.2,67.1L33.2,67.1z"/>
			<path class="st2" d="M34.8,44.1c0,0.8-0.7,1.5-1.5,1.5h-18c-0.8,0-1.5-0.7-1.5-1.5v-6.4c0-0.8,0.7-1.5,1.5-1.5h18
				c0.8,0,1.5,0.7,1.5,1.5V44.1L34.8,44.1z"/>
			<path class="st2" d="M59.4,44.1c0,0.8-0.7,1.5-1.5,1.5h-18c-0.8,0-1.5-0.7-1.5-1.5v-6.4c0-0.8,0.7-1.5,1.5-1.5h18
				c0.8,0,1.5,0.7,1.5,1.5V44.1L59.4,44.1z"/>
			<path class="st2" d="M83.9,44.1c0,0.8-0.7,1.5-1.5,1.5h-18c-0.8,0-1.5-0.7-1.5-1.5v-6.4c0-0.8,0.7-1.5,1.5-1.5h18
				c0.8,0,1.5,0.7,1.5,1.5V44.1z"/>
			<path class="st2" d="M108.5,44.1c0,0.8-0.7,1.5-1.5,1.5H89c-0.8,0-1.5-0.7-1.5-1.5v-6.4c0-0.8,0.7-1.5,1.5-1.5h18
				c0.8,0,1.5,0.7,1.5,1.5V44.1L108.5,44.1z"/>
			<path class="st2" d="M133.1,44.1c0,0.8-0.7,1.5-1.5,1.5h-18c-0.8,0-1.5-0.7-1.5-1.5v-6.4c0-0.8,0.7-1.5,1.5-1.5h18
				c0.8,0,1.5,0.7,1.5,1.5V44.1z"/>
			<path class="st2" d="M157.7,44.1c0,0.8-0.7,1.5-1.5,1.5h-18c-0.8,0-1.5-0.7-1.5-1.5v-6.4c0-0.8,0.7-1.5,1.5-1.5h18
				c0.8,0,1.5,0.7,1.5,1.5V44.1z"/>
			<path class="st2" d="M182.2,44.1c0,0.8-0.7,1.5-1.5,1.5h-18c-0.8,0-1.5-0.7-1.5-1.5v-6.4c0-0.8,0.7-1.5,1.5-1.5h18
				c0.8,0,1.5,0.7,1.5,1.5V44.1z"/>
			<path class="st2" d="M206.8,44.1c0,0.8-0.7,1.5-1.5,1.5h-18c-0.8,0-1.5-0.7-1.5-1.5v-6.4c0-0.8,0.7-1.5,1.5-1.5h18
				c0.8,0,1.5,0.7,1.5,1.5V44.1z"/>
			<path class="st2" d="M231.4,44.1c0,0.8-0.7,1.5-1.5,1.5h-18c-0.8,0-1.5-0.7-1.5-1.5v-6.4c0-0.8,0.7-1.5,1.5-1.5h18
				c0.8,0,1.5,0.7,1.5,1.5V44.1z"/>
			<path class="st2" d="M255.9,44.1c0,0.8-0.7,1.5-1.5,1.5h-18c-0.8,0-1.5-0.7-1.5-1.5v-6.4c0-0.8,0.7-1.5,1.5-1.5h18
				c0.8,0,1.5,0.7,1.5,1.5V44.1z"/>
			<path class="st2" d="M280.5,44.1c0,0.8-0.7,1.5-1.5,1.5h-18c-0.8,0-1.5-0.7-1.5-1.5v-6.4c0-0.8,0.7-1.5,1.5-1.5h18
				c0.8,0,1.5,0.7,1.5,1.5V44.1z"/>
			<path class="st2" d="M305.1,44.1c0,0.8-0.7,1.5-1.5,1.5h-18c-0.8,0-1.5-0.7-1.5-1.5v-6.4c0-0.8,0.7-1.5,1.5-1.5h18
				c0.8,0,1.5,0.7,1.5,1.5V44.1z"/>
			<path class="st2" d="M329,44.1c0,0.8-0.7,1.5-1.5,1.5h-18c-0.8,0-1.5-0.7-1.5-1.5v-6.4c0-0.8,0.7-1.5,1.5-1.5h18
				c0.8,0,1.5,0.7,1.5,1.5V44.1z"/>
			<path class="st2" d="M353.4,44.1c0,0.8-0.7,1.5-1.5,1.5h-18c-0.8,0-1.5-0.7-1.5-1.5v-6.4c0-0.8,0.7-1.5,1.5-1.5h18
				c0.8,0,1.5,0.7,1.5,1.5V44.1z"/>
			<path class="st3" d="M57,67.1c0,0.8-0.7,1.5-1.5,1.5H39.1c-0.8,0-1.5-0.7-1.5-1.5V50.7c0-0.8,0.7-1.5,1.5-1.5h16.4
				c0.8,0,1.5,0.7,1.5,1.5V67.1z"/>
			<path class="st3" d="M80.7,67.1c0,0.8-0.7,1.5-1.5,1.5H62.8c-0.8,0-1.5-0.7-1.5-1.5V50.7c0-0.8,0.7-1.5,1.5-1.5h16.4
				c0.8,0,1.5,0.7,1.5,1.5V67.1L80.7,67.1z"/>
			<path class="st3" d="M104.4,67.1c0,0.8-0.7,1.5-1.5,1.5H86.5c-0.8,0-1.5-0.7-1.5-1.5V50.7c0-0.8,0.7-1.5,1.5-1.5h16.4
				c0.8,0,1.5,0.7,1.5,1.5V67.1L104.4,67.1z"/>
			<path class="st3" d="M128.1,67.1c0,0.8-0.7,1.5-1.5,1.5h-16.4c-0.8,0-1.5-0.7-1.5-1.5V50.7c0-0.8,0.7-1.5,1.5-1.5h16.4
				c0.8,0,1.5,0.7,1.5,1.5V67.1z"/>
			<path class="st3" d="M151.8,67.1c0,0.8-0.7,1.5-1.5,1.5h-16.4c-0.8,0-1.5-0.7-1.5-1.5V50.7c0-0.8,0.7-1.5,1.5-1.5h16.4
				c0.8,0,1.5,0.7,1.5,1.5V67.1z"/>
			<path class="st3" d="M175.5,67.1c0,0.8-0.7,1.5-1.5,1.5h-16.4c-0.8,0-1.5-0.7-1.5-1.5V50.7c0-0.8,0.7-1.5,1.5-1.5H174
				c0.8,0,1.5,0.7,1.5,1.5V67.1z"/>
			<path class="st3" d="M199.2,67.1c0,0.8-0.7,1.5-1.5,1.5h-16.4c-0.8,0-1.5-0.7-1.5-1.5V50.7c0-0.8,0.7-1.5,1.5-1.5h16.4
				c0.8,0,1.5,0.7,1.5,1.5V67.1z"/>
			<path class="st3" d="M222.9,67.1c0,0.8-0.7,1.5-1.5,1.5H205c-0.8,0-1.5-0.7-1.5-1.5V50.7c0-0.8,0.7-1.5,1.5-1.5h16.4
				c0.8,0,1.5,0.7,1.5,1.5V67.1z"/>
			<path class="st3" d="M246.7,67.1c0,0.8-0.7,1.5-1.5,1.5h-16.4c-0.8,0-1.5-0.7-1.5-1.5V50.7c0-0.8,0.7-1.5,1.5-1.5h16.4
				c0.8,0,1.5,0.7,1.5,1.5V67.1z"/>
			<path class="st3" d="M270.4,67.1c0,0.8-0.7,1.5-1.5,1.5h-16.4c-0.8,0-1.5-0.7-1.5-1.5V50.7c0-0.8,0.7-1.5,1.5-1.5h16.4
				c0.8,0,1.5,0.7,1.5,1.5V67.1z"/>
			<path class="st2" d="M294.1,67.1c0,0.8-0.7,1.5-1.5,1.5h-16.4c-0.8,0-1.5-0.7-1.5-1.5V50.7c0-0.8,0.7-1.5,1.5-1.5h16.4
				c0.8,0,1.5,0.7,1.5,1.5V67.1z"/>
			<path class="st2" d="M317.8,67.1c0,0.8-0.7,1.5-1.5,1.5h-16.4c-0.8,0-1.5-0.7-1.5-1.5V50.7c0-0.8,0.7-1.5,1.5-1.5h16.4
				c0.8,0,1.5,0.7,1.5,1.5V67.1z"/>
			<path class="st2" d="M353.4,67.1c0,0.8-0.7,1.5-1.5,1.5h-28.3c-0.8,0-1.5-0.7-1.5-1.5V50.7c0-0.8,0.7-1.5,1.5-1.5h28.3
				c0.8,0,1.5,0.7,1.5,1.5V67.1z"/>
			<path class="st2" d="M334,89.6c0,0.8,0.7,1.5,1.5,1.5h16.4c0.8,0,1.5-0.7,1.5-1.5V73.2c0-0.8-0.7-1.5-1.5-1.5h-16.4
				c-0.8,0-1.5,0.7-1.5,1.5V89.6z"/>
			<path class="st2" d="M310.2,89.6c0,0.8,0.7,1.5,1.5,1.5h16.4c0.8,0,1.5-0.7,1.5-1.5V73.2c0-0.8-0.7-1.5-1.5-1.5h-16.4
				c-0.8,0-1.5,0.7-1.5,1.5V89.6z"/>
			<path class="st2" d="M286.5,89.6c0,0.8,0.7,1.5,1.5,1.5h16.4c0.8,0,1.5-0.7,1.5-1.5V73.2c0-0.8-0.7-1.5-1.5-1.5H288
				c-0.8,0-1.5,0.7-1.5,1.5V89.6z"/>
			<path class="st3" d="M262.8,89.6c0,0.8,0.7,1.5,1.5,1.5h16.4c0.8,0,1.5-0.7,1.5-1.5V73.2c0-0.8-0.7-1.5-1.5-1.5h-16.4
				c-0.8,0-1.5,0.7-1.5,1.5V89.6z"/>
			<path class="st3" d="M239.1,89.6c0,0.8,0.7,1.5,1.5,1.5H257c0.8,0,1.5-0.7,1.5-1.5V73.2c0-0.8-0.7-1.5-1.5-1.5h-16.4
				c-0.8,0-1.5,0.7-1.5,1.5V89.6L239.1,89.6z"/>
			<path class="st3" d="M215.4,89.6c0,0.8,0.7,1.5,1.5,1.5h16.4c0.8,0,1.5-0.7,1.5-1.5V73.2c0-0.8-0.7-1.5-1.5-1.5h-16.4
				c-0.8,0-1.5,0.7-1.5,1.5V89.6L215.4,89.6z"/>
			<path class="st3" d="M191.7,89.6c0,0.8,0.7,1.5,1.5,1.5h16.4c0.8,0,1.5-0.7,1.5-1.5V73.2c0-0.8-0.7-1.5-1.5-1.5h-16.4
				c-0.8,0-1.5,0.7-1.5,1.5V89.6z"/>
			<path class="st3" d="M168,89.6c0,0.8,0.7,1.5,1.5,1.5h16.4c0.8,0,1.5-0.7,1.5-1.5V73.2c0-0.8-0.7-1.5-1.5-1.5h-16.4
				c-0.8,0-1.5,0.7-1.5,1.5V89.6z"/>
			<path class="st3" d="M144.3,89.6c0,0.8,0.7,1.5,1.5,1.5h16.4c0.8,0,1.5-0.7,1.5-1.5V73.2c0-0.8-0.7-1.5-1.5-1.5h-16.4
				c-0.8,0-1.5,0.7-1.5,1.5V89.6z"/>
			<path class="st3" d="M120.6,89.6c0,0.8,0.7,1.5,1.5,1.5h16.4c0.8,0,1.5-0.7,1.5-1.5V73.2c0-0.8-0.7-1.5-1.5-1.5H122
				c-0.8,0-1.5,0.7-1.5,1.5C120.6,73.2,120.6,89.6,120.6,89.6z"/>
			<path class="st3" d="M96.8,89.6c0,0.8,0.7,1.5,1.5,1.5h16.4c0.8,0,1.5-0.7,1.5-1.5V73.2c0-0.8-0.7-1.5-1.5-1.5H98.3
				c-0.8,0-1.5,0.7-1.5,1.5V89.6z"/>
			<path class="st3" d="M73.1,89.6c0,0.8,0.7,1.5,1.5,1.5H91c0.8,0,1.5-0.7,1.5-1.5V73.2c0-0.8-0.7-1.5-1.5-1.5H74.6
				c-0.8,0-1.5,0.7-1.5,1.5V89.6z"/>
			<path class="st3" d="M49.4,89.6c0,0.8,0.7,1.5,1.5,1.5h16.4c0.8,0,1.5-0.7,1.5-1.5V73.2c0-0.8-0.7-1.5-1.5-1.5H50.9
				c-0.8,0-1.5,0.7-1.5,1.5V89.6L49.4,89.6z"/>
			<path class="st2" d="M293.4,112.5c0,0.8,0.7,1.5,1.5,1.5h16.4c0.8,0,1.5-0.7,1.5-1.5V96.1c0-0.8-0.7-1.5-1.5-1.5h-16.4
				c-0.8,0-1.5,0.7-1.5,1.5V112.5z"/>
			<path class="st2" d="M269.6,112.5c0,0.8,0.7,1.5,1.5,1.5h16.4c0.8,0,1.5-0.7,1.5-1.5V96.1c0-0.8-0.7-1.5-1.5-1.5h-16.4
				c-0.8,0-1.5,0.7-1.5,1.5V112.5z"/>
			<path class="st3" d="M245.9,112.5c0,0.8,0.7,1.5,1.5,1.5h16.4c0.8,0,1.5-0.7,1.5-1.5V96.1c0-0.8-0.7-1.5-1.5-1.5h-16.4
				c-0.8,0-1.5,0.7-1.5,1.5V112.5L245.9,112.5z"/>
			<path class="st3" d="M222.2,112.5c0,0.8,0.7,1.5,1.5,1.5h16.4c0.8,0,1.5-0.7,1.5-1.5V96.1c0-0.8-0.7-1.5-1.5-1.5h-16.4
				c-0.8,0-1.5,0.7-1.5,1.5V112.5z"/>
			<path class="st3" d="M198.5,112.5c0,0.8,0.7,1.5,1.5,1.5h16.4c0.8,0,1.5-0.7,1.5-1.5V96.1c0-0.8-0.7-1.5-1.5-1.5H200
				c-0.8,0-1.5,0.7-1.5,1.5V112.5z"/>
			<path class="st3" d="M174.8,112.5c0,0.8,0.7,1.5,1.5,1.5h16.4c0.8,0,1.5-0.7,1.5-1.5V96.1c0-0.8-0.7-1.5-1.5-1.5h-16.4
				c-0.8,0-1.5,0.7-1.5,1.5V112.5z"/>
			<path class="st3" d="M151.1,112.5c0,0.8,0.7,1.5,1.5,1.5H169c0.8,0,1.5-0.7,1.5-1.5V96.1c0-0.8-0.7-1.5-1.5-1.5h-16.4
				c-0.8,0-1.5,0.7-1.5,1.5V112.5z"/>
			<path class="st3" d="M127.4,112.5c0,0.8,0.7,1.5,1.5,1.5h16.4c0.8,0,1.5-0.7,1.5-1.5V96.1c0-0.8-0.7-1.5-1.5-1.5h-16.4
				c-0.8,0-1.5,0.7-1.5,1.5C127.4,96.1,127.4,112.5,127.4,112.5z"/>
			<path class="st3" d="M103.7,112.5c0,0.8,0.7,1.5,1.5,1.5h16.4c0.8,0,1.5-0.7,1.5-1.5V96.1c0-0.8-0.7-1.5-1.5-1.5h-16.4
				c-0.8,0-1.5,0.7-1.5,1.5V112.5z"/>
			<path class="st3" d="M79.9,112.5c0,0.8,0.7,1.5,1.5,1.5h16.4c0.8,0,1.5-0.7,1.5-1.5V96.1c0-0.8-0.7-1.5-1.5-1.5H81.4
				c-0.8,0-1.5,0.7-1.5,1.5C80,96.1,80,112.5,79.9,112.5z"/>
			<path class="st3" d="M56.2,112.5c0,0.8,0.7,1.5,1.5,1.5h16.4c0.8,0,1.5-0.7,1.5-1.5V96.1c0-0.8-0.7-1.5-1.5-1.5H57.7
				c-0.8,0-1.5,0.7-1.5,1.5V112.5z"/>
			<path class="st2" d="M13.9,89.6c0,0.8,0.7,1.5,1.5,1.5h28.3c0.8,0,1.5-0.7,1.5-1.5V73.2c0-0.8-0.7-1.5-1.5-1.5H15.4
				c-0.8,0-1.5,0.7-1.5,1.5V89.6z"/>
			<path class="st2" d="M13.9,112.5c0,0.8,0.7,1.5,1.5,1.5h35.1c0.8,0,1.5-0.7,1.5-1.5V96.1c0-0.8-0.7-1.5-1.5-1.5H15.4
				c-0.8,0-1.5,0.7-1.5,1.5V112.5z"/>
			<path class="st2" d="M316.8,112.5c0,0.8,0.7,1.5,1.5,1.5h33.9c0.8,0,1.5-0.7,1.5-1.5V96.1c0-0.8-0.7-1.5-1.5-1.5h-33.9
				c-0.8,0-1.5,0.7-1.5,1.5V112.5z"/>
			<path class="st2" d="M280.6,135.2c0,0.8,0.7,1.5,1.5,1.5h16.4c0.8,0,1.5-0.7,1.5-1.5v-16.4c0-0.8-0.7-1.5-1.5-1.5h-16.4
				c-0.8,0-1.5,0.7-1.5,1.5V135.2z"/>
			<path class="st2" d="M310,158c0,0.8,0.7,1.5,1.5,1.5h16.4c0.8,0,1.5-0.7,1.5-1.5v-5.8c0-0.8-0.7-1.5-1.5-1.5h-16.4
				c-0.8,0-1.5,0.7-1.5,1.5V158z"/>
			<path class="st2" d="M333.9,158c0,0.8,0.7,1.5,1.5,1.5h16.4c0.8,0,1.5-0.7,1.5-1.5v-5.8c0-0.8-0.7-1.5-1.5-1.5h-16.4
				c-0.8,0-1.5,0.7-1.5,1.5V158z"/>
			<path class="st2" d="M286.5,158c0,0.8,0.7,1.5,1.5,1.5h16.4c0.8,0,1.5-0.7,1.5-1.5v-5.8c0-0.8-0.7-1.5-1.5-1.5H288
				c-0.8,0-1.5,0.7-1.5,1.5V158z"/>
			<path class="st2" d="M310,147.5c0,0.8,0.7,1.5,1.5,1.5h16.4c0.8,0,1.5-0.7,1.5-1.5v-5.8c0-0.8-0.7-1.5-1.5-1.5h-16.4
				c-0.8,0-1.5,0.7-1.5,1.5V147.5z"/>
			<path class="st2" d="M256.9,135.2c0,0.8,0.7,1.5,1.5,1.5h16.4c0.8,0,1.5-0.7,1.5-1.5v-16.4c0-0.8-0.7-1.5-1.5-1.5h-16.4
				c-0.8,0-1.5,0.7-1.5,1.5V135.2z"/>
			<path class="st2" d="M262.8,158c0,0.8,0.7,1.5,1.5,1.5h16.4c0.8,0,1.5-0.7,1.5-1.5v-16.4c0-0.8-0.7-1.5-1.5-1.5h-16.4
				c-0.8,0-1.5,0.7-1.5,1.5V158z"/>
			<path class="st2" d="M233.2,135.2c0,0.8,0.7,1.5,1.5,1.5h16.4c0.8,0,1.5-0.7,1.5-1.5v-16.4c0-0.8-0.7-1.5-1.5-1.5h-16.4
				c-0.8,0-1.5,0.7-1.5,1.5V135.2z"/>
			<path class="st3" d="M209.4,135.2c0,0.8,0.7,1.5,1.5,1.5h16.4c0.8,0,1.5-0.7,1.5-1.5v-16.4c0-0.8-0.7-1.5-1.5-1.5h-16.4
				c-0.8,0-1.5,0.7-1.5,1.5V135.2z"/>
			<path class="st3" d="M185.7,135.2c0,0.8,0.7,1.5,1.5,1.5h16.4c0.8,0,1.5-0.7,1.5-1.5v-16.4c0-0.8-0.7-1.5-1.5-1.5h-16.4
				c-0.8,0-1.5,0.7-1.5,1.5V135.2z"/>
			<path class="st3" d="M162,135.2c0,0.8,0.7,1.5,1.5,1.5h16.4c0.8,0,1.5-0.7,1.5-1.5v-16.4c0-0.8-0.7-1.5-1.5-1.5h-16.4
				c-0.8,0-1.5,0.7-1.5,1.5V135.2z"/>
			<path class="st3" d="M138.3,135.2c0,0.8,0.7,1.5,1.5,1.5h16.4c0.8,0,1.5-0.7,1.5-1.5v-16.4c0-0.8-0.7-1.5-1.5-1.5h-16.4
				c-0.8,0-1.5,0.7-1.5,1.5V135.2z"/>
			<path class="st3" d="M114.6,135.2c0,0.8,0.7,1.5,1.5,1.5h16.4c0.8,0,1.5-0.7,1.5-1.5v-16.4c0-0.8-0.7-1.5-1.5-1.5h-16.4
				c-0.8,0-1.5,0.7-1.5,1.5V135.2z"/>
			<path class="st3" d="M90.9,135.2c0,0.8,0.7,1.5,1.5,1.5h16.4c0.8,0,1.5-0.7,1.5-1.5v-16.4c0-0.8-0.7-1.5-1.5-1.5H92.4
				c-0.8,0-1.5,0.7-1.5,1.5V135.2L90.9,135.2z"/>
			<path class="st3" d="M67.2,135.2c0,0.8,0.7,1.5,1.5,1.5h16.4c0.8,0,1.5-0.7,1.5-1.5v-16.4c0-0.8-0.7-1.5-1.5-1.5H68.7
				c-0.8,0-1.5,0.7-1.5,1.5V135.2z"/>
			<path class="st2" d="M61.3,158c0,0.8,0.7,1.5,1.5,1.5h16.4c0.8,0,1.5-0.7,1.5-1.5v-16.4c0-0.8-0.7-1.5-1.5-1.5H62.8
				c-0.8,0-1.5,0.7-1.5,1.5V158z"/>
			<path class="st2" d="M85,158c0,0.8,0.7,1.5,1.5,1.5h22.7c0.8,0,1.5-0.7,1.5-1.5v-16.4c0-0.8-0.7-1.5-1.5-1.5H86.5
				c-0.8,0-1.5,0.7-1.5,1.5V158z"/>
			<path class="st2" d="M233.1,158c0,0.8,0.7,1.5,1.5,1.5h22.6c0.8,0,1.5-0.7,1.5-1.5v-16.4c0-0.8-0.7-1.5-1.5-1.5h-22.6
				c-0.8,0-1.5,0.7-1.5,1.5V158z"/>
			<path class="st3" d="M114.9,158c0,0.8,0.7,1.5,1.5,1.5h111.1c0.8,0,1.5-0.7,1.5-1.5v-16.4c0-0.8-0.7-1.5-1.5-1.5H116.4
				c-0.8,0-1.5,0.7-1.5,1.5V158L114.9,158z"/>
			<path class="st2" d="M37.6,158c0,0.8,0.7,1.5,1.5,1.5h16.4c0.8,0,1.5-0.7,1.5-1.5v-16.4c0-0.8-0.7-1.5-1.5-1.5H39.1
				c-0.8,0-1.5,0.7-1.5,1.5V158z"/>
			<path class="st2" d="M13.9,158c0,0.8,0.7,1.5,1.5,1.5h16.4c0.8,0,1.5-0.7,1.5-1.5v-16.4c0-0.8-0.7-1.5-1.5-1.5H15.4
				c-0.8,0-1.5,0.7-1.5,1.5V158z"/>
			<path class="st2" d="M13.9,135.2c0,0.8,0.7,1.5,1.5,1.5h46.4c0.8,0,1.5-0.7,1.5-1.5v-16.4c0-0.8-0.7-1.5-1.5-1.5H15.4
				c-0.8,0-1.5,0.7-1.5,1.5V135.2z"/>
			<path class="st2" d="M304.3,135.2c0,0.8,0.7,1.5,1.5,1.5h46.4c0.8,0,1.5-0.7,1.5-1.5v-16.4c0-0.8-0.7-1.5-1.5-1.5h-46.4
				c-0.8,0-1.5,0.7-1.5,1.5V135.2z"/>
		</g>
	</g>
</g>
<g>
	<g class="st4">
		<path class="st2" d="M60.6,86.4l-0.8-0.8c-0.3,0.1-0.6,0.2-0.9,0.2c-0.4,0-0.8-0.1-1.2-0.3s-0.6-0.5-0.9-0.9
			c-0.2-0.4-0.3-0.8-0.3-1.2l0-3.8c0-0.4,0.1-0.8,0.3-1.2c0.2-0.4,0.5-0.7,0.8-0.9c0.4-0.2,0.8-0.3,1.2-0.3c0.4,0,0.8,0.1,1.2,0.3
			s0.6,0.5,0.9,0.9c0.2,0.4,0.3,0.8,0.3,1.2l0,3.8c0,0.2,0,0.5-0.1,0.7s-0.1,0.4-0.3,0.6l0.7,0.8c0,0,0,0.1,0,0.1L60.6,86.4
			C60.7,86.4,60.6,86.4,60.6,86.4z M58.9,84.3c0.3,0,0.5-0.1,0.7-0.3s0.2-0.4,0.2-0.7l0-3.8c0-0.3-0.1-0.5-0.3-0.7
			c-0.2-0.2-0.4-0.3-0.6-0.3c-0.3,0-0.5,0.1-0.7,0.3C58.1,79,58,79.3,58,79.5v3.8c0,0.3,0.1,0.5,0.3,0.7S58.6,84.3,58.9,84.3z"/>
	</g>
	<g class="st4">
		<path class="st2" d="M79.5,85.6C79.5,85.6,79.5,85.6,79.5,85.6l-1.5-8.3c0,0,0,0,0,0h1.3c0,0,0.1,0,0.1,0l0.8,5.4l0.8-5.4
			c0,0,0,0,0.1,0h1.1c0,0,0.1,0,0.1,0l0.8,5.4l0.8-5.4c0,0,0,0,0.1,0h1.3c0,0,0.1,0,0,0l-1.4,8.2c0,0,0,0-0.1,0.1h-1.5
			c0,0,0,0-0.1-0.1l-0.6-4.3l-0.6,4.3c0,0,0,0.1-0.1,0.1H79.5z"/>
	</g>
	<g class="st4">
		<path class="st2" d="M104.8,85.6C104.7,85.6,104.7,85.6,104.8,85.6l0-8.3c0,0,0,0,0,0h3.9c0,0,0,0,0,0.1v1.3c0,0,0,0,0,0h-2.5v1.9
			h2.5c0,0,0,0,0,0l0,1.4c0,0,0,0,0,0h-2.5v2.1h2.5c0,0,0,0,0,0.1v1.4c0,0,0,0,0,0H104.8z"/>
	</g>
	<g class="st4">
		<path class="st2" d="M127.8,85.6C127.7,85.6,127.7,85.6,127.8,85.6l0-8.3c0,0,0,0,0,0h2.4c0.4,0,0.8,0.1,1.2,0.3s0.7,0.5,0.9,0.9
			c0.2,0.4,0.3,0.8,0.3,1.2c0,0.3,0,0.6-0.1,0.8c-0.1,0.2-0.2,0.4-0.3,0.6s-0.2,0.3-0.3,0.4c0.4,0.5,0.6,1,0.6,1.7l0,2.5
			c0,0,0,0.1-0.1,0.1h-1.4c0,0,0,0,0,0v-2.5c0-0.3-0.1-0.5-0.3-0.8c-0.2-0.2-0.5-0.3-0.8-0.3h-0.8l0,3.5c0,0,0,0.1,0,0.1H127.8z
			 M129.2,80.6h1c0.2,0,0.5-0.1,0.7-0.3c0.2-0.2,0.3-0.4,0.3-0.7c0-0.3-0.1-0.5-0.3-0.7c-0.2-0.2-0.4-0.3-0.7-0.3h-1V80.6z"/>
	</g>
	<g class="st4">
		<path class="st2" d="M153,85.6C153,85.6,153,85.6,153,85.6l0-6.9h-1.6c0,0-0.1,0-0.1-0.1l0-1.3c0,0,0,0,0,0h4.6c0,0,0.1,0,0.1,0
			v1.3c0,0,0,0.1,0,0.1h-1.6l0,6.8c0,0,0,0.1,0,0.1H153z"/>
	</g>
	<g class="st4">
		<path class="st2" d="M175.7,85.6C175.7,85.6,175.7,85.6,175.7,85.6l0-3.5l-1.6-4.8c0,0,0,0,0,0h1.3c0,0,0.1,0,0.1,0l0.9,3.2
			l0.9-3.2c0,0,0,0,0.1,0h1.3c0,0,0,0,0,0l-1.6,4.8l0,3.5c0,0,0,0,0,0H175.7z"/>
	</g>
	<g class="st4">
		<path class="st2" d="M248.5,85.7c-0.4,0-0.8-0.1-1.2-0.3c-0.4-0.2-0.6-0.5-0.9-0.9s-0.3-0.8-0.3-1.2l0-3.8c0-0.4,0.1-0.8,0.3-1.2
			s0.5-0.6,0.9-0.9c0.4-0.2,0.8-0.3,1.2-0.3c0.4,0,0.8,0.1,1.2,0.3c0.4,0.2,0.6,0.5,0.8,0.9c0.2,0.4,0.3,0.8,0.3,1.2l0,3.8
			c0,0.4-0.1,0.8-0.3,1.2s-0.5,0.7-0.9,0.9C249.4,85.6,249,85.7,248.5,85.7z M248.5,84.3c0.2,0,0.5-0.1,0.6-0.3s0.3-0.4,0.3-0.7
			l0-3.8c0-0.3-0.1-0.5-0.3-0.7c-0.2-0.2-0.4-0.3-0.6-0.3c-0.2,0-0.5,0.1-0.6,0.3c-0.2,0.2-0.3,0.4-0.3,0.7v3.8
			c0,0.3,0.1,0.5,0.3,0.7C248.1,84.2,248.3,84.3,248.5,84.3z"/>
	</g>
	<g class="st4">
		<path class="st2" d="M269.1,85.6C269,85.6,269,85.6,269.1,85.6l0-8.3c0,0,0,0,0,0h2.3c0.7,0,1.3,0.2,1.7,0.7
			c0.4,0.4,0.6,1.1,0.6,1.8c0,0.6-0.1,1.1-0.3,1.5s-0.5,0.7-0.9,1s-0.8,0.3-1.2,0.3h-0.9v3c0,0,0,0.1-0.1,0.1H269.1z M270.5,81.1
			h0.9c0.3,0,0.5-0.1,0.7-0.4c0.2-0.2,0.3-0.6,0.3-1c0-0.3-0.1-0.6-0.3-0.8c-0.2-0.2-0.4-0.3-0.7-0.3l-0.9,0V81.1z"/>
	</g>
	<g class="st4">
		<path class="st2" d="M201.5,85.7c-0.4,0-0.8-0.1-1.2-0.3s-0.6-0.5-0.9-0.9s-0.3-0.8-0.3-1.2l0-6c0,0,0,0,0,0h1.3c0,0,0,0,0,0v6
			c0,0.3,0.1,0.5,0.3,0.7c0.2,0.2,0.4,0.3,0.6,0.3c0.3,0,0.5-0.1,0.6-0.3c0.2-0.2,0.3-0.4,0.3-0.7v-6c0,0,0,0,0,0h1.3c0,0,0,0,0,0
			l0,6c0,0.4-0.1,0.9-0.3,1.2s-0.5,0.7-0.9,0.9C202.3,85.6,201.9,85.7,201.5,85.7z"/>
	</g>
	<g class="st4">
		<path class="st2" d="M224.2,85.6C224.2,85.6,224.1,85.6,224.2,85.6l0-8.3c0,0,0,0,0,0h1.3c0,0,0,0,0,0l0,8.2c0,0,0,0.1,0,0.1
			H224.2z"/>
	</g>
	<g class="st4">
		<path class="st2" d="M63.5,108.9l1.5-8.2c0,0,0,0,0.1,0h1.7c0,0,0.1,0,0.1,0l1.4,8.2c0,0,0,0.1,0,0.1h-1.3c0,0-0.1,0-0.1-0.1
			l-0.1-0.9h-1.6l-0.1,0.9c0,0,0,0.1-0.1,0.1L63.5,108.9C63.5,109,63.5,109,63.5,108.9z M65.3,106.8h1.2l-0.5-3.4l-0.1-0.4l0,0.4
			L65.3,106.8z"/>
	</g>
	<g class="st4">
		<path class="st2" d="M89.7,109.1c-0.4,0-0.8-0.1-1.2-0.3s-0.6-0.5-0.9-0.9s-0.3-0.8-0.3-1.2v-0.6c0,0,0-0.1,0.1-0.1h1.3
			c0,0,0,0,0,0.1v0.6c0,0.3,0.1,0.5,0.3,0.7c0.2,0.2,0.4,0.3,0.6,0.3s0.5-0.1,0.6-0.3c0.2-0.2,0.3-0.4,0.3-0.7
			c0-0.3-0.2-0.6-0.6-0.8c-0.1-0.1-0.3-0.2-0.6-0.3c-0.3-0.2-0.5-0.3-0.8-0.4c-0.4-0.3-0.8-0.6-1-1s-0.3-0.8-0.3-1.3
			c0-0.4,0.1-0.8,0.3-1.2c0.2-0.4,0.5-0.6,0.9-0.8s0.7-0.3,1.2-0.3c0.4,0,0.8,0.1,1.2,0.3s0.6,0.5,0.9,0.9c0.2,0.4,0.3,0.8,0.3,1.2
			v1c0,0,0,0,0,0h-1.3c0,0,0,0,0,0l0-1c0-0.3-0.1-0.5-0.3-0.7c-0.2-0.2-0.4-0.3-0.6-0.3c-0.2,0-0.5,0.1-0.6,0.3
			c-0.2,0.2-0.3,0.4-0.3,0.7c0,0.3,0.1,0.5,0.2,0.7c0.1,0.2,0.3,0.3,0.6,0.5c0,0,0.1,0.1,0.2,0.1c0.1,0.1,0.2,0.1,0.4,0.2
			c0.1,0.1,0.3,0.1,0.4,0.2s0.2,0.1,0.2,0.1c0.4,0.2,0.7,0.5,0.9,0.8c0.2,0.3,0.3,0.7,0.3,1.2c0,0.5-0.1,0.9-0.3,1.2
			c-0.2,0.4-0.5,0.7-0.9,0.9C90.5,109,90.1,109.1,89.7,109.1z"/>
	</g>
	<g class="st4">
		<path class="st2" d="M111,109C110.9,109,110.9,109,111,109l0-8.3c0,0,0,0,0,0l2.2,0c0.4,0,0.8,0.1,1.2,0.3
			c0.4,0.2,0.7,0.5,0.9,0.9c0.2,0.4,0.3,0.8,0.3,1.2v3.4c0,0.5-0.1,0.9-0.3,1.3s-0.5,0.7-0.9,0.9c-0.4,0.2-0.8,0.3-1.3,0.3L111,109z
			 M112.4,107.5h0.7c0.3,0,0.5-0.1,0.8-0.3s0.3-0.5,0.3-0.7V103c0-0.3-0.1-0.5-0.3-0.7c-0.2-0.2-0.4-0.3-0.7-0.3l-0.8,0L112.4,107.5
			z"/>
	</g>
	<g class="st4">
		<path class="st2" d="M135.4,109C135.3,109,135.3,109,135.4,109l0-8.3c0,0,0,0,0,0h3.8c0,0,0.1,0,0.1,0v1.4c0,0,0,0,0,0h-2.5v1.9
			h2.5c0,0,0,0,0,0.1l0,1.4c0,0,0,0-0.1,0h-2.5v3.5c0,0,0,0.1-0.1,0.1H135.4z"/>
	</g>
	<g class="st4">
		<path class="st2" d="M160.8,109.1c-0.4,0-0.8-0.1-1.2-0.3s-0.6-0.5-0.8-0.9c-0.2-0.4-0.3-0.8-0.3-1.2v-3.8c0-0.4,0.1-0.8,0.3-1.2
			s0.5-0.7,0.9-0.9s0.7-0.3,1.2-0.3c0.4,0,0.8,0.1,1.2,0.3s0.6,0.5,0.8,0.9c0.2,0.4,0.3,0.8,0.3,1.2v0.6c0,0,0,0-0.1,0h-1.3
			c0,0,0,0,0,0V103c0-0.3-0.1-0.6-0.3-0.8s-0.4-0.3-0.6-0.3c-0.2,0-0.4,0.1-0.6,0.3c-0.2,0.2-0.3,0.4-0.3,0.7v3.8
			c0,0.3,0.1,0.5,0.3,0.7c0.2,0.2,0.4,0.3,0.6,0.3c0.3,0,0.5-0.1,0.6-0.3c0.2-0.2,0.3-0.4,0.3-0.7v-0.6h-0.8c0,0-0.1,0-0.1-0.1v-1.3
			c0,0,0-0.1,0.1-0.1h2.2c0,0,0,0,0,0.1v2c0,0.4-0.1,0.9-0.3,1.2c-0.2,0.4-0.5,0.7-0.8,0.9S161.3,109.1,160.8,109.1z"/>
	</g>
	<g class="st4">
		<path class="st2" d="M254,109C254,109,254,109,254,109l0-8.3c0,0,0-0.1,0.1-0.1h1.3c0,0,0.1,0,0.1,0.1l0,6.8h2.5
			c0,0,0.1,0,0.1,0.1v1.4c0,0,0,0.1-0.1,0.1H254z"/>
	</g>
	<g class="st4">
		<path class="st2" d="M182.2,109C182.2,109,182.2,109,182.2,109l0-8.3c0,0,0,0,0.1,0h1.3c0,0,0.1,0,0.1,0l0,3.3h1.8v-3.3
			c0,0,0,0,0,0h1.3c0,0,0.1,0,0.1,0l0,8.2c0,0,0,0.1-0.1,0.1h-1.3c0,0-0.1,0-0.1-0.1v-3.5h-1.8v3.5c0,0,0,0.1,0,0.1H182.2z"/>
	</g>
	<g class="st4">
		<path class="st2" d="M161.7,154.1c-0.4,0-0.8-0.1-1.2-0.3s-0.6-0.5-0.9-0.9s-0.3-0.8-0.3-1.2v-0.6c0,0,0-0.1,0.1-0.1h1.3
			c0,0,0,0,0,0.1v0.6c0,0.3,0.1,0.5,0.3,0.7c0.2,0.2,0.4,0.3,0.6,0.3s0.5-0.1,0.6-0.3c0.2-0.2,0.3-0.4,0.3-0.7
			c0-0.3-0.2-0.6-0.6-0.8c-0.1-0.1-0.3-0.2-0.6-0.3c-0.3-0.2-0.5-0.3-0.8-0.4c-0.4-0.3-0.8-0.6-1-1s-0.3-0.8-0.3-1.3
			c0-0.4,0.1-0.8,0.3-1.2c0.2-0.4,0.5-0.6,0.9-0.8s0.7-0.3,1.2-0.3c0.4,0,0.8,0.1,1.2,0.3s0.6,0.5,0.9,0.9c0.2,0.4,0.3,0.8,0.3,1.2
			v1c0,0,0,0,0,0h-1.3c0,0,0,0,0,0l0-1c0-0.3-0.1-0.5-0.3-0.7c-0.2-0.2-0.4-0.3-0.6-0.3c-0.2,0-0.5,0.1-0.6,0.3
			c-0.2,0.2-0.3,0.4-0.3,0.7c0,0.3,0.1,0.5,0.2,0.7c0.1,0.2,0.3,0.3,0.6,0.5c0,0,0.1,0.1,0.2,0.1c0.1,0.1,0.2,0.1,0.4,0.2
			c0.1,0.1,0.3,0.1,0.4,0.2s0.2,0.1,0.2,0.1c0.4,0.2,0.7,0.5,0.9,0.8c0.2,0.3,0.3,0.7,0.3,1.2c0,0.5-0.1,0.9-0.3,1.2
			c-0.2,0.4-0.5,0.7-0.9,0.9C162.5,154,162.1,154.1,161.7,154.1z"/>
		<path class="st2" d="M164.9,154C164.9,154,164.9,154,164.9,154l0-8.3c0,0,0,0,0,0h2.3c0.7,0,1.3,0.2,1.7,0.7
			c0.4,0.4,0.6,1.1,0.6,1.8c0,0.6-0.1,1.1-0.3,1.5c-0.2,0.4-0.5,0.7-0.9,1c-0.4,0.2-0.8,0.3-1.2,0.3h-0.9v3c0,0,0,0.1-0.1,0.1H164.9
			z M166.3,149.5h0.9c0.3,0,0.5-0.1,0.7-0.4c0.2-0.2,0.3-0.6,0.3-1c0-0.3-0.1-0.6-0.3-0.8c-0.2-0.2-0.4-0.3-0.7-0.3l-0.9,0V149.5z"
			/>
		<path class="st2" d="M169.5,153.9l1.5-8.2c0,0,0,0,0.1,0h1.7c0,0,0.1,0,0.1,0l1.4,8.2c0,0,0,0.1,0,0.1h-1.3c0,0-0.1,0-0.1-0.1
			l-0.1-0.9H171l-0.1,0.9c0,0,0,0.1-0.1,0.1L169.5,153.9C169.5,154,169.5,154,169.5,153.9z M171.3,151.8h1.2l-0.5-3.4l-0.1-0.4
			l0,0.4L171.3,151.8z"/>
		<path class="st2" d="M176.9,154.1c-0.4,0-0.8-0.1-1.2-0.3c-0.4-0.2-0.6-0.5-0.8-0.9s-0.3-0.8-0.3-1.2l0-3.7c0-0.4,0.1-0.8,0.3-1.2
			c0.2-0.4,0.5-0.7,0.8-0.9c0.4-0.2,0.8-0.3,1.2-0.3s0.8,0.1,1.2,0.3s0.6,0.5,0.8,0.9s0.3,0.8,0.3,1.2v0.6c0,0,0,0,0,0h-1.3
			c0,0,0,0,0,0v-0.6c0-0.3-0.1-0.5-0.3-0.7c-0.2-0.2-0.4-0.3-0.6-0.3c-0.3,0-0.5,0.1-0.7,0.3s-0.2,0.4-0.2,0.7v3.7
			c0,0.3,0.1,0.5,0.3,0.7c0.2,0.2,0.4,0.3,0.6,0.3c0.3,0,0.5-0.1,0.6-0.3c0.2-0.2,0.3-0.4,0.3-0.7v-0.6c0,0,0,0,0,0h1.4c0,0,0,0,0,0
			v0.6c0,0.5-0.1,0.9-0.3,1.2c-0.2,0.4-0.5,0.7-0.8,0.9S177.4,154.1,176.9,154.1z"/>
		<path class="st2" d="M180.2,154C180.2,154,180.2,154,180.2,154l0-8.3c0,0,0,0,0,0h3.9c0,0,0,0,0,0.1v1.3c0,0,0,0,0,0h-2.5v1.9h2.5
			c0,0,0,0,0,0l0,1.4c0,0,0,0,0,0h-2.5v2.1h2.5c0,0,0,0,0,0.1v1.4c0,0,0,0,0,0H180.2z"/>
	</g>
	<g class="st4">
		<path class="st2" d="M207.9,109.1c-0.4,0-0.9-0.1-1.2-0.3c-0.4-0.2-0.6-0.5-0.8-0.9s-0.3-0.8-0.3-1.3v-0.6c0,0,0,0,0,0h1.4
			c0,0,0,0,0,0.1v0.5c0,0.3,0.1,0.5,0.3,0.7c0.2,0.2,0.4,0.3,0.6,0.3c0.2,0,0.4-0.1,0.6-0.3s0.3-0.4,0.3-0.7v-6c0,0,0,0,0,0h1.3
			c0,0,0,0,0,0.1l0,6c0,0.4-0.1,0.8-0.3,1.2c-0.2,0.4-0.5,0.7-0.8,0.9C208.7,109,208.4,109.1,207.9,109.1z"/>
	</g>
	<g class="st4">
		<path class="st2" d="M229.9,109C229.8,109,229.8,109,229.9,109l0-8.3c0,0,0-0.1,0-0.1h1.3c0,0,0,0,0,0.1v2.8l1.9-2.9
			c0,0,0.1,0,0.1,0h1.4c0,0,0,0,0,0l-2.1,3.3l2.3,4.9c0,0,0,0-0.1,0h-1.5c0,0-0.1,0-0.1,0l-1.6-3.5l-0.4,0.7v2.9c0,0,0,0.1,0,0.1
			H229.9z"/>
	</g>
	<g class="st4">
		<path class="st2" d="M46.9,63.2C46.9,63.2,46.9,63.2,46.9,63.2l0-8.3c0,0,0,0,0,0h1.3c0,0,0,0,0,0l0,8.2c0,0,0,0.1,0,0.1H46.9z"/>
	</g>
	<g class="st4">
		<path class="st2" d="M69,63.2C69,63.2,69,63.2,69,63.2L69,61.8c0,0,0,0,0,0l3-4.1c0.1-0.1,0.1-0.2,0.1-0.3c0-0.1,0.1-0.2,0.1-0.3
			c0-0.2-0.1-0.4-0.3-0.6s-0.4-0.3-0.6-0.3c-0.2,0-0.5,0.1-0.6,0.3c-0.2,0.2-0.3,0.4-0.3,0.7v0.6c0,0,0,0.1-0.1,0.1H69
			c0,0,0,0,0-0.1v-0.6c0-0.4,0.1-0.9,0.3-1.2c0.2-0.4,0.5-0.7,0.9-0.9s0.7-0.3,1.1-0.3c0.4,0,0.8,0.1,1.2,0.3
			c0.4,0.2,0.6,0.5,0.8,0.9c0.2,0.4,0.3,0.7,0.3,1.2c0,0.3,0,0.5-0.1,0.8c-0.1,0.3-0.2,0.5-0.4,0.7l-2.3,3.1h2.7c0,0,0,0,0,0v1.4
			c0,0,0,0.1,0,0.1H69z"/>
	</g>
	<g class="st4">
		<path class="st2" d="M94.8,63.3c-0.4,0-0.8-0.1-1.2-0.3s-0.6-0.5-0.9-0.9s-0.3-0.8-0.3-1.2v-0.5c0,0,0-0.1,0-0.1h1.3
			c0,0,0.1,0,0.1,0.1v0.5c0,0.3,0.1,0.5,0.3,0.7c0.2,0.2,0.4,0.3,0.6,0.3c0.3,0,0.5-0.1,0.7-0.3c0.2-0.2,0.2-0.4,0.2-0.7v-0.3
			c0-0.2-0.1-0.5-0.2-0.7c-0.2-0.2-0.4-0.3-0.6-0.3h-0.5c0,0-0.1,0-0.1-0.1l0-1.3c0,0,0,0,0,0h0.5c0.2,0,0.4-0.1,0.6-0.3
			s0.3-0.4,0.3-0.7v-0.2c0-0.3-0.1-0.5-0.3-0.7c-0.2-0.2-0.4-0.3-0.6-0.3c-0.2,0-0.5,0.1-0.6,0.3c-0.2,0.2-0.3,0.4-0.3,0.7v0.6
			c0,0,0,0.1,0,0.1h-1.3c0,0,0,0,0-0.1V57c0-0.4,0.1-0.8,0.3-1.2c0.2-0.3,0.5-0.6,0.9-0.8c0.4-0.2,0.7-0.3,1.1-0.3
			c0.4,0,0.8,0.1,1.2,0.3s0.6,0.5,0.8,0.8c0.2,0.4,0.3,0.7,0.3,1.2v0.2c0,0.4-0.1,0.7-0.2,0.9c-0.1,0.3-0.3,0.5-0.5,0.7
			c0.2,0.2,0.4,0.5,0.5,0.8c0.1,0.3,0.2,0.6,0.2,0.9v0.4c0,0.4-0.1,0.9-0.3,1.2c-0.2,0.4-0.5,0.7-0.9,0.9
			C95.6,63.2,95.2,63.3,94.8,63.3z"/>
	</g>
	<g class="st4">
		<path class="st2" d="M119.1,63.2C119.1,63.2,119,63.2,119.1,63.2l0-1.5h-2.6c0,0,0,0,0-0.1v-1.3l2.6-5.5c0,0,0,0,0.1,0h1.4
			c0,0,0,0,0,0l0,5.4h0.8c0,0,0.1,0,0.1,0.1v1.3c0,0,0,0.1,0,0.1h-0.9v1.4c0,0,0,0.1,0,0.1H119.1z M117.8,60.3h1.2v-2.6L117.8,60.3z
			"/>
	</g>
	<g class="st4">
		<path class="st2" d="M142.5,63.3c-0.4,0-0.8-0.1-1.2-0.3c-0.4-0.2-0.6-0.5-0.9-0.9c-0.2-0.4-0.3-0.7-0.3-1.2v-0.4c0,0,0,0,0.1,0
			h1.4c0,0,0,0,0,0v0.3c0,0.3,0.1,0.5,0.3,0.7c0.2,0.2,0.4,0.3,0.6,0.3s0.5-0.1,0.6-0.3c0.2-0.2,0.3-0.4,0.3-0.7v-0.8
			c0-0.2-0.1-0.5-0.3-0.6c-0.2-0.2-0.4-0.3-0.7-0.3c-0.3,0-0.6,0.1-0.9,0.4l0,0l-1.3-0.1c0,0-0.1,0-0.1-0.1l0.1-3.3l0.1-1.3
			c0,0,0,0,0,0h4c0,0,0,0,0,0v1.3c0,0,0,0.1,0,0.1h-2.8l-0.1,1.7c0.1,0,0.2-0.1,0.4-0.1c0.2,0,0.3,0,0.4,0c0.4,0,0.8,0.1,1.2,0.3
			c0.4,0.2,0.7,0.5,0.9,0.8c0.2,0.4,0.3,0.7,0.3,1.2v0.8c0,0.4-0.1,0.8-0.3,1.2c-0.2,0.4-0.5,0.7-0.9,0.9S142.9,63.3,142.5,63.3z"/>
	</g>
	<g class="st4">
		<path class="st2" d="M237.1,63.3c-0.4,0-0.8-0.1-1.2-0.3c-0.4-0.2-0.6-0.5-0.9-0.9s-0.3-0.8-0.3-1.2v-0.2c0,0,0,0,0.1,0h1.3
			c0,0,0,0,0,0v0.2c0,0.3,0.1,0.5,0.3,0.7c0.2,0.2,0.4,0.3,0.6,0.3s0.5-0.1,0.6-0.3c0.2-0.2,0.3-0.4,0.3-0.7V60
			c-0.3,0.1-0.6,0.2-0.9,0.2c-0.4,0-0.8-0.1-1.2-0.3c-0.4-0.2-0.6-0.5-0.8-0.9c-0.2-0.4-0.3-0.8-0.3-1.2v-0.7c0-0.4,0.1-0.8,0.3-1.2
			s0.5-0.6,0.9-0.9c0.4-0.2,0.7-0.3,1.2-0.3s0.8,0.1,1.2,0.3c0.4,0.2,0.6,0.5,0.9,0.9c0.2,0.4,0.3,0.8,0.3,1.2v0.7l0,3
			c0,0.4-0.1,0.8-0.3,1.2s-0.5,0.7-0.9,0.9C238,63.2,237.6,63.3,237.1,63.3z M237.1,58.8c0.3,0,0.5-0.1,0.6-0.3
			c0.2-0.2,0.3-0.4,0.3-0.7v-0.7c0-0.3-0.1-0.5-0.3-0.7c-0.2-0.2-0.4-0.3-0.6-0.3s-0.5,0.1-0.6,0.3c-0.2,0.2-0.3,0.4-0.3,0.7v0.7
			c0,0.3,0.1,0.5,0.3,0.7C236.7,58.7,236.9,58.8,237.1,58.8z"/>
	</g>
	<g class="st4">
		<path class="st2" d="M166.1,63.3c-0.4,0-0.8-0.1-1.2-0.3s-0.6-0.5-0.9-0.9c-0.2-0.4-0.3-0.8-0.3-1.2l0-3.8c0-0.4,0.1-0.8,0.3-1.2
			c0.2-0.4,0.5-0.7,0.9-0.9c0.4-0.2,0.8-0.3,1.2-0.3c0.4,0,0.8,0.1,1.2,0.3c0.4,0.2,0.6,0.5,0.9,0.9c0.2,0.4,0.3,0.8,0.3,1.2v0.2
			c0,0,0,0-0.1,0h-1.3c0,0,0,0,0,0v-0.2c0-0.3-0.1-0.5-0.3-0.7c-0.2-0.2-0.4-0.3-0.6-0.3c-0.2,0-0.5,0.1-0.6,0.3
			c-0.2,0.2-0.3,0.4-0.3,0.7v0.8c0.3-0.1,0.6-0.2,0.9-0.2c0.4,0,0.8,0.1,1.2,0.3s0.6,0.5,0.8,0.9s0.3,0.8,0.3,1.2v0.7
			c0,0.4-0.1,0.8-0.3,1.2c-0.2,0.4-0.5,0.7-0.8,0.9S166.5,63.3,166.1,63.3z M166.1,61.9c0.2,0,0.5-0.1,0.6-0.3
			c0.2-0.2,0.3-0.4,0.3-0.7v-0.7c0-0.3-0.1-0.5-0.3-0.7c-0.2-0.2-0.4-0.3-0.6-0.3c-0.2,0-0.5,0.1-0.6,0.3c-0.2,0.2-0.3,0.4-0.3,0.7
			v0.7c0,0.3,0.1,0.5,0.3,0.7C165.7,61.8,165.9,61.9,166.1,61.9z"/>
	</g>
	<g class="st4">
		<path class="st2" d="M188.2,63.2C188.2,63.2,188.2,63.2,188.2,63.2l2.4-6.9h-3.3c0,0,0,0,0,0v-1.3c0,0,0-0.1,0-0.1h4.6
			c0,0,0,0,0,0.1v1.3l-2.3,6.9c0,0,0,0.1-0.1,0.1H188.2z"/>
	</g>
	<g class="st4">
		<path class="st2" d="M213.7,63.3c-0.4,0-0.8-0.1-1.2-0.3c-0.4-0.2-0.6-0.5-0.9-0.9c-0.2-0.4-0.3-0.8-0.3-1.2v-0.7
			c0-0.3,0.1-0.7,0.2-0.9s0.3-0.5,0.5-0.8c-0.2-0.2-0.3-0.4-0.4-0.7c-0.1-0.3-0.2-0.5-0.2-0.8c0-0.4,0.1-0.8,0.3-1.1
			s0.5-0.6,0.8-0.8c0.3-0.2,0.7-0.3,1.1-0.3s0.8,0.1,1.1,0.3s0.6,0.5,0.8,0.8c0.2,0.3,0.3,0.7,0.3,1.1c0,0.3,0,0.6-0.2,0.8
			c-0.1,0.3-0.2,0.5-0.4,0.7c0.2,0.2,0.4,0.5,0.5,0.8s0.2,0.6,0.2,0.9v0.7c0,0.4-0.1,0.8-0.3,1.2c-0.2,0.4-0.5,0.7-0.8,0.9
			C214.5,63.2,214.1,63.3,213.7,63.3z M213.7,61.9c0.2,0,0.5-0.1,0.6-0.3c0.2-0.2,0.3-0.4,0.3-0.7v-0.7c0-0.3-0.1-0.5-0.3-0.7
			c-0.2-0.2-0.4-0.3-0.6-0.3s-0.5,0.1-0.6,0.3c-0.2,0.2-0.3,0.4-0.3,0.7v0.7c0,0.3,0.1,0.5,0.3,0.7
			C213.2,61.8,213.4,61.9,213.7,61.9z M213.7,57.7c0.2,0,0.4-0.1,0.5-0.2c0.1-0.2,0.2-0.3,0.2-0.6c0-0.2-0.1-0.4-0.2-0.6
			c-0.1-0.2-0.3-0.2-0.5-0.2s-0.4,0.1-0.5,0.2c-0.2,0.2-0.2,0.4-0.2,0.6c0,0.2,0.1,0.4,0.2,0.6S213.4,57.7,213.7,57.7z"/>
	</g>
	<g class="st4">
		<path class="st2" d="M260.9,63.3c-0.5,0-1-0.1-1.4-0.3c-0.4-0.2-0.7-0.5-0.9-0.9s-0.3-0.8-0.3-1.2l0-3.8c0-0.4,0.1-0.8,0.3-1.2
			c0.2-0.4,0.5-0.6,0.9-0.9c0.4-0.2,0.8-0.3,1.3-0.3c0.5,0,1,0.1,1.3,0.3s0.7,0.5,0.9,0.9c0.2,0.4,0.3,0.8,0.3,1.2l0,3.8
			c0,0.4-0.1,0.8-0.3,1.2s-0.5,0.7-0.9,0.9S261.4,63.3,260.9,63.3z M262,60.9l0-3.8c0-0.3-0.1-0.5-0.3-0.7c-0.2-0.2-0.5-0.3-0.8-0.3
			c-0.3,0-0.6,0.1-0.8,0.3c-0.2,0.2-0.3,0.4-0.3,0.7v3.8c0,0.3,0.1,0.5,0.3,0.7s0.5,0.3,0.8,0.3c0.3,0,0.6-0.1,0.8-0.3
			C261.9,61.4,262,61.2,262,60.9z"/>
	</g>
	<g class="st4">
		<path class="st2" d="M74.6,131.2C74.6,131.2,74.5,131.2,74.6,131.2l0-1.4l2.9-5.6h-2.8c0,0,0,0,0,0v-1.3c0,0,0-0.1,0-0.1h4.3
			c0,0,0.1,0,0.1,0.1v1.3l-2.9,5.6h2.9c0,0,0,0,0,0.1l0,1.3c0,0,0,0.1-0.1,0.1H74.6z"/>
	</g>
	<g class="st4">
		<path class="st2" d="M98.4,131.2C98.3,131.2,98.3,131.2,98.4,131.2l1.3-4.3l-1.3-4c0,0,0,0,0,0h1.3c0,0,0.1,0,0.1,0l0.8,2.9
			l0.8-2.9c0,0,0,0,0.1,0h1.3c0,0,0,0,0,0l-1.3,3.9l1.4,4.3c0,0,0,0.1,0,0.1h-1.3c0,0-0.1,0-0.1-0.1l-0.8-3.1l-0.8,3.1
			c0,0,0,0.1-0.1,0.1H98.4z"/>
	</g>
	<g class="st4">
		<path class="st2" d="M124.2,131.3c-0.4,0-0.8-0.1-1.2-0.3c-0.4-0.2-0.6-0.5-0.8-0.9s-0.3-0.8-0.3-1.2l0-3.7c0-0.4,0.1-0.8,0.3-1.2
			c0.2-0.4,0.5-0.7,0.8-0.9c0.4-0.2,0.8-0.3,1.2-0.3s0.8,0.1,1.2,0.3s0.6,0.5,0.8,0.9s0.3,0.8,0.3,1.2v0.6c0,0,0,0,0,0h-1.3
			c0,0,0,0,0,0v-0.6c0-0.3-0.1-0.5-0.3-0.7c-0.2-0.2-0.4-0.3-0.6-0.3c-0.3,0-0.5,0.1-0.7,0.3s-0.2,0.4-0.2,0.7v3.7
			c0,0.3,0.1,0.5,0.3,0.7c0.2,0.2,0.4,0.3,0.6,0.3c0.3,0,0.5-0.1,0.6-0.3c0.2-0.2,0.3-0.4,0.3-0.7v-0.6c0,0,0,0,0,0h1.4c0,0,0,0,0,0
			v0.6c0,0.5-0.1,0.9-0.3,1.2c-0.2,0.4-0.5,0.7-0.8,0.9S124.6,131.3,124.2,131.3z"/>
	</g>
	<g class="st4">
		<path class="st2" d="M147.3,131.2C147.3,131.2,147.2,131.2,147.3,131.2l-1.7-8.3c0,0,0,0,0,0h1.4c0,0,0.1,0,0.1,0l1,5.5l1-5.5
			c0,0,0,0,0.1,0h1.3c0,0,0.1,0,0,0l-1.6,8.2c0,0,0,0.1-0.1,0.1H147.3z"/>
	</g>
	<g class="st4">
		<path class="st2" d="M169.5,131.2C169.4,131.2,169.4,131.2,169.5,131.2l0-8.3c0,0,0,0,0,0h2.3c0.5,0,0.9,0.1,1.2,0.3
			c0.4,0.2,0.6,0.5,0.9,0.9c0.2,0.4,0.3,0.8,0.3,1.2c0,0.3-0.1,0.7-0.2,1c-0.2,0.3-0.3,0.5-0.6,0.7c0.2,0.2,0.4,0.5,0.5,0.8
			c0.1,0.3,0.2,0.6,0.2,1c0,0.5-0.1,0.9-0.3,1.3c-0.2,0.4-0.5,0.7-0.9,0.9c-0.4,0.2-0.8,0.3-1.3,0.3H169.5z M170.9,129.7h0.7
			c0.3,0,0.5-0.1,0.7-0.3s0.3-0.5,0.3-0.8s-0.1-0.5-0.3-0.7s-0.5-0.3-0.7-0.3h-0.7L170.9,129.7z M170.9,126.1h0.9
			c0.3,0,0.5-0.1,0.7-0.3c0.2-0.2,0.3-0.4,0.3-0.6c0-0.3-0.1-0.5-0.3-0.7c-0.2-0.2-0.4-0.3-0.7-0.3h-0.9V126.1z"/>
	</g>
	<g class="st4">
		<path class="st2" d="M193.3,131.2C193.3,131.2,193.2,131.2,193.3,131.2l-0.1-8.3c0-0.1,0-0.1,0.1-0.1h1.1l2,4.7l-0.1-4.6
			c0-0.1,0-0.1,0.1-0.1h1.2c0,0,0.1,0,0.1,0.1l0,8.2c0,0,0,0.1-0.1,0.1h-1.1l-2.1-4.4l0.1,4.3c0,0.1,0,0.1-0.1,0.1H193.3z"/>
	</g>
	<g class="st4">
		<path class="st2" d="M216.3,131.2C216.3,131.2,216.3,131.2,216.3,131.2l0-8.3c0,0,0,0,0,0h1.5c0,0,0.1,0,0.1,0l1.1,1.6l1.1-1.6
			c0,0,0.1,0,0.1,0h1.5c0,0,0,0,0,0l0,8.2c0,0,0,0.1,0,0.1h-1.4c0,0,0,0,0-0.1l0-6.1l-1.3,1.8l-1.2-1.8l0,6.1c0,0,0,0.1,0,0.1H216.3
			z"/>
	</g>
</g>
<g class="st4">
	<path class="st1" d="M143.3,11.8C143.2,11.8,143.2,11.8,143.3,11.8L141,0.7c0,0,0-0.1,0.1-0.1h1.8c0,0,0.1,0,0.1,0.1l1.3,7.3
		l1.3-7.3c0,0,0-0.1,0.1-0.1h1.8c0.1,0,0.1,0,0.1,0.1l-2.2,11c0,0.1,0,0.1-0.1,0.1H143.3z"/>
	<path class="st1" d="M148.5,11.8C148.4,11.8,148.4,11.8,148.5,11.8l0-11.1c0,0,0-0.1,0.1-0.1h5.1c0,0,0.1,0,0.1,0.1v1.8
		c0,0,0,0.1-0.1,0.1h-3.3v2.5h3.3c0,0,0.1,0,0.1,0.1l0,1.8c0,0,0,0.1-0.1,0.1h-3.3v2.8h3.3c0,0,0.1,0,0.1,0.1v1.8c0,0,0,0.1-0.1,0.1
		H148.5z"/>
	<path class="st1" d="M155.2,11.8C155.2,11.8,155.1,11.8,155.2,11.8l0-11.1c0,0,0-0.1,0.1-0.1h3.2c0.6,0,1.1,0.1,1.6,0.4
		s0.9,0.7,1.2,1.1c0.3,0.5,0.4,1,0.4,1.6c0,0.4-0.1,0.7-0.2,1.1c-0.1,0.3-0.3,0.6-0.4,0.8s-0.3,0.4-0.4,0.5c0.6,0.6,0.9,1.4,0.9,2.3
		l0,3.3c0,0.1,0,0.1-0.1,0.1h-1.8c0,0-0.1,0-0.1,0V8.4c0-0.4-0.1-0.7-0.4-1c-0.3-0.3-0.6-0.4-1-0.4h-1.1l0,4.7c0,0.1,0,0.1-0.1,0.1
		H155.2z M157.1,5.1h1.4c0.3,0,0.6-0.1,0.9-0.4c0.3-0.2,0.4-0.5,0.4-0.9c0-0.3-0.1-0.6-0.4-0.9s-0.5-0.4-0.9-0.4h-1.4V5.1z"/>
	<path class="st1" d="M165.5,12c-0.6,0-1.1-0.1-1.6-0.4c-0.5-0.3-0.9-0.7-1.1-1.2s-0.4-1-0.4-1.6V8c0-0.1,0-0.1,0.1-0.1h1.8
		c0,0,0.1,0,0.1,0.1v0.7c0,0.4,0.1,0.7,0.4,0.9c0.2,0.3,0.5,0.4,0.8,0.4s0.6-0.1,0.8-0.4c0.2-0.3,0.4-0.6,0.4-0.9
		c0-0.4-0.3-0.7-0.8-1c-0.2-0.1-0.4-0.2-0.8-0.4c-0.4-0.2-0.7-0.4-1-0.6c-0.6-0.3-1-0.8-1.3-1.3c-0.3-0.5-0.4-1.1-0.4-1.8
		c0-0.6,0.1-1.1,0.4-1.6s0.7-0.9,1.1-1.1s1-0.4,1.5-0.4c0.6,0,1.1,0.1,1.6,0.4c0.5,0.3,0.9,0.7,1.1,1.1c0.3,0.5,0.4,1,0.4,1.6V5
		c0,0,0,0.1-0.1,0.1h-1.8c0,0-0.1,0-0.1-0.1l0-1.3c0-0.4-0.1-0.7-0.4-0.9c-0.2-0.2-0.5-0.4-0.8-0.4c-0.3,0-0.6,0.1-0.8,0.4
		c-0.2,0.3-0.4,0.5-0.4,0.9c0,0.4,0.1,0.6,0.2,0.9s0.4,0.5,0.8,0.7c0.1,0,0.2,0.1,0.3,0.2c0.2,0.1,0.3,0.2,0.5,0.3
		c0.2,0.1,0.3,0.2,0.5,0.3c0.1,0.1,0.2,0.1,0.3,0.1c0.5,0.3,1,0.7,1.3,1.1c0.3,0.4,0.5,1,0.5,1.6c0,0.6-0.1,1.2-0.4,1.6
		s-0.7,0.9-1.1,1.2C166.6,11.8,166.1,12,165.5,12z"/>
	<path class="st1" d="M169.9,11.8C169.8,11.8,169.8,11.8,169.9,11.8l-0.1-11.1c0,0,0-0.1,0.1-0.1h1.8c0,0,0.1,0,0.1,0.1l0,11
		c0,0.1,0,0.1-0.1,0.1H169.9z"/>
	<path class="st1" d="M176.1,12c-0.6,0-1.1-0.1-1.6-0.4c-0.5-0.3-0.9-0.7-1.1-1.2s-0.4-1-0.4-1.6l0-5.1c0-0.6,0.1-1.1,0.4-1.6
		c0.3-0.5,0.7-0.9,1.1-1.2c0.5-0.3,1-0.4,1.6-0.4c0.6,0,1.1,0.1,1.6,0.4s0.8,0.7,1.1,1.2c0.3,0.5,0.4,1,0.4,1.6l0,5.1
		c0,0.6-0.1,1.1-0.4,1.6s-0.7,0.9-1.1,1.2C177.2,11.8,176.7,12,176.1,12z M176.1,10c0.3,0,0.6-0.1,0.8-0.4c0.2-0.3,0.4-0.6,0.4-0.9
		l0-5.1c0-0.4-0.1-0.7-0.3-0.9c-0.2-0.2-0.5-0.4-0.8-0.4c-0.3,0-0.6,0.1-0.8,0.4c-0.2,0.2-0.4,0.5-0.4,0.9v5.1
		c0,0.4,0.1,0.7,0.4,0.9C175.5,9.9,175.8,10,176.1,10z"/>
	<path class="st1" d="M180.6,11.8c-0.1,0-0.1,0-0.1-0.1l0-10.9c0-0.1,0-0.1,0.1-0.1h1.4l2.7,6.3l-0.1-6.2c0-0.1,0-0.1,0.1-0.1h1.6
		c0.1,0,0.1,0,0.1,0.1l0,10.9c0,0.1,0,0.1-0.1,0.1H185l-2.8-5.9l0.1,5.8c0,0.1,0,0.1-0.1,0.1H180.6z"/>
	<path class="st1" d="M190,11.8C190,11.8,189.9,11.8,190,11.8l-0.1-1.9c0,0,0,0,0-0.1l4-5.4c0.1-0.1,0.1-0.2,0.2-0.4
		s0.1-0.3,0.1-0.4c0-0.3-0.1-0.6-0.3-0.9c-0.2-0.3-0.5-0.4-0.8-0.4c-0.3,0-0.6,0.1-0.8,0.4c-0.2,0.3-0.3,0.6-0.3,1v0.8
		c0,0.1,0,0.1-0.1,0.1h-1.8c0,0-0.1,0-0.1-0.1V3.7c0-0.6,0.1-1.1,0.4-1.6c0.3-0.5,0.7-0.9,1.2-1.2s1-0.4,1.5-0.4
		c0.6,0,1.1,0.1,1.6,0.4c0.5,0.3,0.8,0.7,1.1,1.2c0.3,0.5,0.4,1,0.4,1.6c0,0.4-0.1,0.7-0.2,1.1s-0.3,0.7-0.5,1l-3,4.2h3.6
		c0,0,0.1,0,0.1,0.1v1.8c0,0.1,0,0.1-0.1,0.1H190z"/>
	<path class="st1" d="M199.7,11.8C199.7,11.8,199.6,11.8,199.7,11.8l0-11.1c0-0.1,0-0.1,0.1-0.1h1.8c0,0,0.1,0,0.1,0.1v3.8l2.5-3.8
		c0,0,0.1-0.1,0.1-0.1h1.8c0,0,0.1,0,0,0.1l-2.8,4.4l3.1,6.6c0,0,0,0.1-0.1,0.1h-2c-0.1,0-0.1,0-0.1-0.1L202.1,7l-0.6,0.9v3.8
		c0,0.1,0,0.1-0.1,0.1H199.7z"/>
	<path class="st1" d="M207.2,11.8C207.2,11.8,207.1,11.8,207.2,11.8l0-11.1c0,0,0-0.1,0.1-0.1h5.1c0,0,0.1,0,0.1,0.1v1.8
		c0,0,0,0.1-0.1,0.1h-3.3v2.5h3.3c0,0,0.1,0,0.1,0.1l0,1.8c0,0,0,0.1-0.1,0.1h-3.3v2.8h3.3c0,0,0.1,0,0.1,0.1v1.8c0,0,0,0.1-0.1,0.1
		H207.2z"/>
	<path class="st1" d="M215.3,11.8C215.2,11.8,215.2,11.8,215.3,11.8l0-4.6l-2.1-6.5c0,0,0-0.1,0-0.1h1.8c0.1,0,0.1,0,0.1,0.1
		l1.2,4.3l1.2-4.3c0,0,0-0.1,0.1-0.1h1.8c0,0,0.1,0,0,0.1l-2.2,6.4l0,4.6c0,0,0,0.1-0.1,0.1H215.3z"/>
	<path class="st1" d="M222.6,12c-0.6,0-1.1-0.1-1.6-0.4c-0.5-0.3-0.9-0.7-1.1-1.2c-0.3-0.5-0.4-1-0.4-1.6V8c0-0.1,0-0.1,0.1-0.1h1.8
		c0,0,0.1,0,0.1,0.1v0.7c0,0.4,0.1,0.7,0.4,0.9c0.2,0.3,0.5,0.4,0.8,0.4c0.3,0,0.6-0.1,0.8-0.4s0.4-0.6,0.4-0.9c0-0.4-0.3-0.7-0.8-1
		c-0.2-0.1-0.4-0.2-0.8-0.4c-0.4-0.2-0.7-0.4-1-0.6c-0.6-0.3-1-0.8-1.3-1.3s-0.4-1.1-0.4-1.8c0-0.6,0.1-1.1,0.4-1.6s0.7-0.9,1.1-1.1
		s1-0.4,1.5-0.4c0.6,0,1.1,0.1,1.6,0.4c0.5,0.3,0.9,0.7,1.1,1.1c0.3,0.5,0.4,1,0.4,1.6V5c0,0,0,0.1-0.1,0.1h-1.8c0,0-0.1,0-0.1-0.1
		l0-1.3c0-0.4-0.1-0.7-0.4-0.9c-0.2-0.2-0.5-0.4-0.8-0.4c-0.3,0-0.6,0.1-0.8,0.4c-0.2,0.3-0.4,0.5-0.4,0.9c0,0.4,0.1,0.6,0.2,0.9
		s0.4,0.5,0.8,0.7c0.1,0,0.2,0.1,0.3,0.2c0.2,0.1,0.3,0.2,0.5,0.3c0.2,0.1,0.3,0.2,0.5,0.3C223.9,6,224,6,224,6
		c0.5,0.3,1,0.7,1.3,1.1c0.3,0.4,0.5,1,0.5,1.6c0,0.6-0.1,1.2-0.4,1.6c-0.3,0.5-0.7,0.9-1.1,1.2C223.7,11.8,223.2,12,222.6,12z"/>
</g>
</svg>
