<?xml version="1.0" encoding="utf-8"?>
<!-- Generator: Adobe Illustrator 25.4.1, SVG Export Plug-In . SVG Version: 6.00 Build 0)  -->
<svg version="1.1" id="Layer_1" xmlns="http://www.w3.org/2000/svg" xmlns:xlink="http://www.w3.org/1999/xlink" x="0px" y="0px"
	 viewBox="0 0 367.5 180" style="enable-background:new 0 0 367.5 180;" xml:space="preserve">
<style type="text/css">
	.st0{fill:#222222;}
	.st1{fill:#777777;}
	.st2{fill:#DDDDDD;}
	.st3{fill:#DA2C5E;}
	.st4{enable-background:new    ;}
</style>
<g>
	<g>
		<path class="st0" d="M7.5,179.5c-3.9,0-7-3.1-7-7V24.6c0-3.9,3.1-7,7-7H360c3.8,0,7,3.2,7,7v147.9c0,3.8-3.2,7-7,7H7.5z"/>
		<path class="st1" d="M360,18.1c3.5,0,6.5,3,6.5,6.5v147.9c0,3.5-3,6.5-6.5,6.5H7.5c-3.6,0-6.5-2.9-6.5-6.5V24.6
			c0-3.6,2.9-6.5,6.5-6.5h68h7.7H360 M360,17.1H83.2h-7.7h-68c-4.2,0-7.5,3.3-7.5,7.5v147.9c0,4.1,3.3,7.5,7.5,7.5H360
			c4.1,0,7.5-3.4,7.5-7.5V24.6C367.5,20.5,364.1,17.1,360,17.1L360,17.1z"/>
	</g>
	<g>
		<g>
			<path class="st2" d="M33.2,67.1c0,0.8-0.7,1.5-1.5,1.5H15.4c-0.8,0-1.5-0.7-1.5-1.5V50.7c0-0.8,0.7-1.5,1.5-1.5h16.4
				c0.8,0,1.5,0.7,1.5,1.5L33.2,67.1L33.2,67.1z"/>
			<path class="st2" d="M34.8,44.1c0,0.8-0.7,1.5-1.5,1.5h-18c-0.8,0-1.5-0.7-1.5-1.5v-6.4c0-0.8,0.7-1.5,1.5-1.5h18
				c0.8,0,1.5,0.7,1.5,1.5V44.1L34.8,44.1z"/>
			<path class="st2" d="M59.4,44.1c0,0.8-0.7,1.5-1.5,1.5h-18c-0.8,0-1.5-0.7-1.5-1.5v-6.4c0-0.8,0.7-1.5,1.5-1.5h18
				c0.8,0,1.5,0.7,1.5,1.5V44.1L59.4,44.1z"/>
			<path class="st2" d="M83.9,44.1c0,0.8-0.7,1.5-1.5,1.5h-18c-0.8,0-1.5-0.7-1.5-1.5v-6.4c0-0.8,0.7-1.5,1.5-1.5h18
				c0.8,0,1.5,0.7,1.5,1.5V44.1z"/>
			<path class="st2" d="M108.5,44.1c0,0.8-0.7,1.5-1.5,1.5H89c-0.8,0-1.5-0.7-1.5-1.5v-6.4c0-0.8,0.7-1.5,1.5-1.5h18
				c0.8,0,1.5,0.7,1.5,1.5V44.1L108.5,44.1z"/>
			<path class="st2" d="M133.1,44.1c0,0.8-0.7,1.5-1.5,1.5h-18c-0.8,0-1.5-0.7-1.5-1.5v-6.4c0-0.8,0.7-1.5,1.5-1.5h18
				c0.8,0,1.5,0.7,1.5,1.5V44.1z"/>
			<path class="st2" d="M157.7,44.1c0,0.8-0.7,1.5-1.5,1.5h-18c-0.8,0-1.5-0.7-1.5-1.5v-6.4c0-0.8,0.7-1.5,1.5-1.5h18
				c0.8,0,1.5,0.7,1.5,1.5V44.1z"/>
			<path class="st2" d="M182.2,44.1c0,0.8-0.7,1.5-1.5,1.5h-18c-0.8,0-1.5-0.7-1.5-1.5v-6.4c0-0.8,0.7-1.5,1.5-1.5h18
				c0.8,0,1.5,0.7,1.5,1.5V44.1z"/>
			<path class="st2" d="M206.8,44.1c0,0.8-0.7,1.5-1.5,1.5h-18c-0.8,0-1.5-0.7-1.5-1.5v-6.4c0-0.8,0.7-1.5,1.5-1.5h18
				c0.8,0,1.5,0.7,1.5,1.5V44.1z"/>
			<path class="st2" d="M231.4,44.1c0,0.8-0.7,1.5-1.5,1.5h-18c-0.8,0-1.5-0.7-1.5-1.5v-6.4c0-0.8,0.7-1.5,1.5-1.5h18
				c0.8,0,1.5,0.7,1.5,1.5V44.1z"/>
			<path class="st2" d="M255.9,44.1c0,0.8-0.7,1.5-1.5,1.5h-18c-0.8,0-1.5-0.7-1.5-1.5v-6.4c0-0.8,0.7-1.5,1.5-1.5h18
				c0.8,0,1.5,0.7,1.5,1.5V44.1z"/>
			<path class="st2" d="M280.5,44.1c0,0.8-0.7,1.5-1.5,1.5h-18c-0.8,0-1.5-0.7-1.5-1.5v-6.4c0-0.8,0.7-1.5,1.5-1.5h18
				c0.8,0,1.5,0.7,1.5,1.5V44.1z"/>
			<path class="st2" d="M305.1,44.1c0,0.8-0.7,1.5-1.5,1.5h-18c-0.8,0-1.5-0.7-1.5-1.5v-6.4c0-0.8,0.7-1.5,1.5-1.5h18
				c0.8,0,1.5,0.7,1.5,1.5V44.1z"/>
			<path class="st2" d="M329,44.1c0,0.8-0.7,1.5-1.5,1.5h-18c-0.8,0-1.5-0.7-1.5-1.5v-6.4c0-0.8,0.7-1.5,1.5-1.5h18
				c0.8,0,1.5,0.7,1.5,1.5V44.1z"/>
			<path class="st2" d="M353.4,44.1c0,0.8-0.7,1.5-1.5,1.5h-18c-0.8,0-1.5-0.7-1.5-1.5v-6.4c0-0.8,0.7-1.5,1.5-1.5h18
				c0.8,0,1.5,0.7,1.5,1.5V44.1z"/>
			<path class="st2" d="M57,67.1c0,0.8-0.7,1.5-1.5,1.5H39.1c-0.8,0-1.5-0.7-1.5-1.5V50.7c0-0.8,0.7-1.5,1.5-1.5h16.4
				c0.8,0,1.5,0.7,1.5,1.5V67.1z"/>
			<path class="st2" d="M80.7,67.1c0,0.8-0.7,1.5-1.5,1.5H62.8c-0.8,0-1.5-0.7-1.5-1.5V50.7c0-0.8,0.7-1.5,1.5-1.5h16.4
				c0.8,0,1.5,0.7,1.5,1.5V67.1L80.7,67.1z"/>
			<path class="st2" d="M104.4,67.1c0,0.8-0.7,1.5-1.5,1.5H86.5c-0.8,0-1.5-0.7-1.5-1.5V50.7c0-0.8,0.7-1.5,1.5-1.5h16.4
				c0.8,0,1.5,0.7,1.5,1.5V67.1L104.4,67.1z"/>
			<path class="st2" d="M128.1,67.1c0,0.8-0.7,1.5-1.5,1.5h-16.4c-0.8,0-1.5-0.7-1.5-1.5V50.7c0-0.8,0.7-1.5,1.5-1.5h16.4
				c0.8,0,1.5,0.7,1.5,1.5V67.1z"/>
			<path class="st2" d="M151.8,67.1c0,0.8-0.7,1.5-1.5,1.5h-16.4c-0.8,0-1.5-0.7-1.5-1.5V50.7c0-0.8,0.7-1.5,1.5-1.5h16.4
				c0.8,0,1.5,0.7,1.5,1.5V67.1z"/>
			<path class="st2" d="M175.5,67.1c0,0.8-0.7,1.5-1.5,1.5h-16.4c-0.8,0-1.5-0.7-1.5-1.5V50.7c0-0.8,0.7-1.5,1.5-1.5H174
				c0.8,0,1.5,0.7,1.5,1.5V67.1z"/>
			<path class="st2" d="M199.2,67.1c0,0.8-0.7,1.5-1.5,1.5h-16.4c-0.8,0-1.5-0.7-1.5-1.5V50.7c0-0.8,0.7-1.5,1.5-1.5h16.4
				c0.8,0,1.5,0.7,1.5,1.5V67.1z"/>
			<path class="st2" d="M222.9,67.1c0,0.8-0.7,1.5-1.5,1.5H205c-0.8,0-1.5-0.7-1.5-1.5V50.7c0-0.8,0.7-1.5,1.5-1.5h16.4
				c0.8,0,1.5,0.7,1.5,1.5V67.1z"/>
			<path class="st2" d="M246.7,67.1c0,0.8-0.7,1.5-1.5,1.5h-16.4c-0.8,0-1.5-0.7-1.5-1.5V50.7c0-0.8,0.7-1.5,1.5-1.5h16.4
				c0.8,0,1.5,0.7,1.5,1.5V67.1z"/>
			<path class="st2" d="M270.4,67.1c0,0.8-0.7,1.5-1.5,1.5h-16.4c-0.8,0-1.5-0.7-1.5-1.5V50.7c0-0.8,0.7-1.5,1.5-1.5h16.4
				c0.8,0,1.5,0.7,1.5,1.5V67.1z"/>
			<path class="st2" d="M294.1,67.1c0,0.8-0.7,1.5-1.5,1.5h-16.4c-0.8,0-1.5-0.7-1.5-1.5V50.7c0-0.8,0.7-1.5,1.5-1.5h16.4
				c0.8,0,1.5,0.7,1.5,1.5V67.1z"/>
			<path class="st2" d="M317.8,67.1c0,0.8-0.7,1.5-1.5,1.5h-16.4c-0.8,0-1.5-0.7-1.5-1.5V50.7c0-0.8,0.7-1.5,1.5-1.5h16.4
				c0.8,0,1.5,0.7,1.5,1.5V67.1z"/>
			<path class="st2" d="M353.4,67.1c0,0.8-0.7,1.5-1.5,1.5h-28.3c-0.8,0-1.5-0.7-1.5-1.5V50.7c0-0.8,0.7-1.5,1.5-1.5h28.3
				c0.8,0,1.5,0.7,1.5,1.5V67.1z"/>
			<path class="st2" d="M334,89.6c0,0.8,0.7,1.5,1.5,1.5h16.4c0.8,0,1.5-0.7,1.5-1.5V73.2c0-0.8-0.7-1.5-1.5-1.5h-16.4
				c-0.8,0-1.5,0.7-1.5,1.5V89.6z"/>
			<path class="st2" d="M310.2,89.6c0,0.8,0.7,1.5,1.5,1.5h16.4c0.8,0,1.5-0.7,1.5-1.5V73.2c0-0.8-0.7-1.5-1.5-1.5h-16.4
				c-0.8,0-1.5,0.7-1.5,1.5V89.6z"/>
			<path class="st2" d="M286.5,89.6c0,0.8,0.7,1.5,1.5,1.5h16.4c0.8,0,1.5-0.7,1.5-1.5V73.2c0-0.8-0.7-1.5-1.5-1.5H288
				c-0.8,0-1.5,0.7-1.5,1.5V89.6z"/>
			<path class="st2" d="M262.8,89.6c0,0.8,0.7,1.5,1.5,1.5h16.4c0.8,0,1.5-0.7,1.5-1.5V73.2c0-0.8-0.7-1.5-1.5-1.5h-16.4
				c-0.8,0-1.5,0.7-1.5,1.5V89.6z"/>
			<path class="st2" d="M239.1,89.6c0,0.8,0.7,1.5,1.5,1.5H257c0.8,0,1.5-0.7,1.5-1.5V73.2c0-0.8-0.7-1.5-1.5-1.5h-16.4
				c-0.8,0-1.5,0.7-1.5,1.5V89.6L239.1,89.6z"/>
			<path class="st2" d="M215.4,89.6c0,0.8,0.7,1.5,1.5,1.5h16.4c0.8,0,1.5-0.7,1.5-1.5V73.2c0-0.8-0.7-1.5-1.5-1.5h-16.4
				c-0.8,0-1.5,0.7-1.5,1.5V89.6L215.4,89.6z"/>
			<path class="st2" d="M191.7,89.6c0,0.8,0.7,1.5,1.5,1.5h16.4c0.8,0,1.5-0.7,1.5-1.5V73.2c0-0.8-0.7-1.5-1.5-1.5h-16.4
				c-0.8,0-1.5,0.7-1.5,1.5V89.6z"/>
			<path class="st2" d="M168,89.6c0,0.8,0.7,1.5,1.5,1.5h16.4c0.8,0,1.5-0.7,1.5-1.5V73.2c0-0.8-0.7-1.5-1.5-1.5h-16.4
				c-0.8,0-1.5,0.7-1.5,1.5V89.6z"/>
			<path class="st2" d="M144.3,89.6c0,0.8,0.7,1.5,1.5,1.5h16.4c0.8,0,1.5-0.7,1.5-1.5V73.2c0-0.8-0.7-1.5-1.5-1.5h-16.4
				c-0.8,0-1.5,0.7-1.5,1.5V89.6z"/>
			<path class="st3" d="M120.6,89.6c0,0.8,0.7,1.5,1.5,1.5h16.4c0.8,0,1.5-0.7,1.5-1.5V73.2c0-0.8-0.7-1.5-1.5-1.5H122
				c-0.8,0-1.5,0.7-1.5,1.5C120.6,73.2,120.6,89.6,120.6,89.6z"/>
			<path class="st3" d="M96.8,89.6c0,0.8,0.7,1.5,1.5,1.5h16.4c0.8,0,1.5-0.7,1.5-1.5V73.2c0-0.8-0.7-1.5-1.5-1.5H98.3
				c-0.8,0-1.5,0.7-1.5,1.5V89.6z"/>
			<path class="st3" d="M73.1,89.6c0,0.8,0.7,1.5,1.5,1.5H91c0.8,0,1.5-0.7,1.5-1.5V73.2c0-0.8-0.7-1.5-1.5-1.5H74.6
				c-0.8,0-1.5,0.7-1.5,1.5V89.6z"/>
			<path class="st3" d="M49.4,89.6c0,0.8,0.7,1.5,1.5,1.5h16.4c0.8,0,1.5-0.7,1.5-1.5V73.2c0-0.8-0.7-1.5-1.5-1.5H50.9
				c-0.8,0-1.5,0.7-1.5,1.5V89.6L49.4,89.6z"/>
			<path class="st2" d="M293.4,112.5c0,0.8,0.7,1.5,1.5,1.5h16.4c0.8,0,1.5-0.7,1.5-1.5V96.1c0-0.8-0.7-1.5-1.5-1.5h-16.4
				c-0.8,0-1.5,0.7-1.5,1.5V112.5z"/>
			<path class="st2" d="M269.6,112.5c0,0.8,0.7,1.5,1.5,1.5h16.4c0.8,0,1.5-0.7,1.5-1.5V96.1c0-0.8-0.7-1.5-1.5-1.5h-16.4
				c-0.8,0-1.5,0.7-1.5,1.5V112.5z"/>
			<path class="st2" d="M245.9,112.5c0,0.8,0.7,1.5,1.5,1.5h16.4c0.8,0,1.5-0.7,1.5-1.5V96.1c0-0.8-0.7-1.5-1.5-1.5h-16.4
				c-0.8,0-1.5,0.7-1.5,1.5V112.5L245.9,112.5z"/>
			<path class="st2" d="M222.2,112.5c0,0.8,0.7,1.5,1.5,1.5h16.4c0.8,0,1.5-0.7,1.5-1.5V96.1c0-0.8-0.7-1.5-1.5-1.5h-16.4
				c-0.8,0-1.5,0.7-1.5,1.5V112.5z"/>
			<path class="st2" d="M198.5,112.5c0,0.8,0.7,1.5,1.5,1.5h16.4c0.8,0,1.5-0.7,1.5-1.5V96.1c0-0.8-0.7-1.5-1.5-1.5H200
				c-0.8,0-1.5,0.7-1.5,1.5V112.5z"/>
			<path class="st2" d="M174.8,112.5c0,0.8,0.7,1.5,1.5,1.5h16.4c0.8,0,1.5-0.7,1.5-1.5V96.1c0-0.8-0.7-1.5-1.5-1.5h-16.4
				c-0.8,0-1.5,0.7-1.5,1.5V112.5z"/>
			<path class="st2" d="M151.1,112.5c0,0.8,0.7,1.5,1.5,1.5H169c0.8,0,1.5-0.7,1.5-1.5V96.1c0-0.8-0.7-1.5-1.5-1.5h-16.4
				c-0.8,0-1.5,0.7-1.5,1.5V112.5z"/>
			<path class="st3" d="M127.4,112.5c0,0.8,0.7,1.5,1.5,1.5h16.4c0.8,0,1.5-0.7,1.5-1.5V96.1c0-0.8-0.7-1.5-1.5-1.5h-16.4
				c-0.8,0-1.5,0.7-1.5,1.5C127.4,96.1,127.4,112.5,127.4,112.5z"/>
			<path class="st3" d="M103.7,112.5c0,0.8,0.7,1.5,1.5,1.5h16.4c0.8,0,1.5-0.7,1.5-1.5V96.1c0-0.8-0.7-1.5-1.5-1.5h-16.4
				c-0.8,0-1.5,0.7-1.5,1.5V112.5z"/>
			<path class="st3" d="M79.9,112.5c0,0.8,0.7,1.5,1.5,1.5h16.4c0.8,0,1.5-0.7,1.5-1.5V96.1c0-0.8-0.7-1.5-1.5-1.5H81.4
				c-0.8,0-1.5,0.7-1.5,1.5C80,96.1,80,112.5,79.9,112.5z"/>
			<path class="st3" d="M56.2,112.5c0,0.8,0.7,1.5,1.5,1.5h16.4c0.8,0,1.5-0.7,1.5-1.5V96.1c0-0.8-0.7-1.5-1.5-1.5H57.7
				c-0.8,0-1.5,0.7-1.5,1.5V112.5z"/>
			<path class="st2" d="M13.9,89.6c0,0.8,0.7,1.5,1.5,1.5h28.3c0.8,0,1.5-0.7,1.5-1.5V73.2c0-0.8-0.7-1.5-1.5-1.5H15.4
				c-0.8,0-1.5,0.7-1.5,1.5V89.6z"/>
			<path class="st2" d="M13.9,112.5c0,0.8,0.7,1.5,1.5,1.5h35.1c0.8,0,1.5-0.7,1.5-1.5V96.1c0-0.8-0.7-1.5-1.5-1.5H15.4
				c-0.8,0-1.5,0.7-1.5,1.5V112.5z"/>
			<path class="st2" d="M316.8,112.5c0,0.8,0.7,1.5,1.5,1.5h33.9c0.8,0,1.5-0.7,1.5-1.5V96.1c0-0.8-0.7-1.5-1.5-1.5h-33.9
				c-0.8,0-1.5,0.7-1.5,1.5V112.5z"/>
			<path class="st2" d="M280.6,135.2c0,0.8,0.7,1.5,1.5,1.5h16.4c0.8,0,1.5-0.7,1.5-1.5v-16.4c0-0.8-0.7-1.5-1.5-1.5h-16.4
				c-0.8,0-1.5,0.7-1.5,1.5V135.2z"/>
			<path class="st2" d="M310,158c0,0.8,0.7,1.5,1.5,1.5h16.4c0.8,0,1.5-0.7,1.5-1.5v-5.8c0-0.8-0.7-1.5-1.5-1.5h-16.4
				c-0.8,0-1.5,0.7-1.5,1.5V158z"/>
			<path class="st2" d="M333.9,158c0,0.8,0.7,1.5,1.5,1.5h16.4c0.8,0,1.5-0.7,1.5-1.5v-5.8c0-0.8-0.7-1.5-1.5-1.5h-16.4
				c-0.8,0-1.5,0.7-1.5,1.5V158z"/>
			<path class="st2" d="M286.5,158c0,0.8,0.7,1.5,1.5,1.5h16.4c0.8,0,1.5-0.7,1.5-1.5v-5.8c0-0.8-0.7-1.5-1.5-1.5H288
				c-0.8,0-1.5,0.7-1.5,1.5V158z"/>
			<path class="st2" d="M310,147.5c0,0.8,0.7,1.5,1.5,1.5h16.4c0.8,0,1.5-0.7,1.5-1.5v-5.8c0-0.8-0.7-1.5-1.5-1.5h-16.4
				c-0.8,0-1.5,0.7-1.5,1.5V147.5z"/>
			<path class="st2" d="M256.9,135.2c0,0.8,0.7,1.5,1.5,1.5h16.4c0.8,0,1.5-0.7,1.5-1.5v-16.4c0-0.8-0.7-1.5-1.5-1.5h-16.4
				c-0.8,0-1.5,0.7-1.5,1.5V135.2z"/>
			<path class="st2" d="M262.8,158c0,0.8,0.7,1.5,1.5,1.5h16.4c0.8,0,1.5-0.7,1.5-1.5v-16.4c0-0.8-0.7-1.5-1.5-1.5h-16.4
				c-0.8,0-1.5,0.7-1.5,1.5V158z"/>
			<path class="st2" d="M233.2,135.2c0,0.8,0.7,1.5,1.5,1.5h16.4c0.8,0,1.5-0.7,1.5-1.5v-16.4c0-0.8-0.7-1.5-1.5-1.5h-16.4
				c-0.8,0-1.5,0.7-1.5,1.5V135.2z"/>
			<path class="st2" d="M209.4,135.2c0,0.8,0.7,1.5,1.5,1.5h16.4c0.8,0,1.5-0.7,1.5-1.5v-16.4c0-0.8-0.7-1.5-1.5-1.5h-16.4
				c-0.8,0-1.5,0.7-1.5,1.5V135.2z"/>
			<path class="st2" d="M185.7,135.2c0,0.8,0.7,1.5,1.5,1.5h16.4c0.8,0,1.5-0.7,1.5-1.5v-16.4c0-0.8-0.7-1.5-1.5-1.5h-16.4
				c-0.8,0-1.5,0.7-1.5,1.5V135.2z"/>
			<path class="st2" d="M162,135.2c0,0.8,0.7,1.5,1.5,1.5h16.4c0.8,0,1.5-0.7,1.5-1.5v-16.4c0-0.8-0.7-1.5-1.5-1.5h-16.4
				c-0.8,0-1.5,0.7-1.5,1.5V135.2z"/>
			<path class="st3" d="M138.3,135.2c0,0.8,0.7,1.5,1.5,1.5h16.4c0.8,0,1.5-0.7,1.5-1.5v-16.4c0-0.8-0.7-1.5-1.5-1.5h-16.4
				c-0.8,0-1.5,0.7-1.5,1.5V135.2z"/>
			<path class="st3" d="M114.6,135.2c0,0.8,0.7,1.5,1.5,1.5h16.4c0.8,0,1.5-0.7,1.5-1.5v-16.4c0-0.8-0.7-1.5-1.5-1.5h-16.4
				c-0.8,0-1.5,0.7-1.5,1.5V135.2z"/>
			<path class="st3" d="M90.9,135.2c0,0.8,0.7,1.5,1.5,1.5h16.4c0.8,0,1.5-0.7,1.5-1.5v-16.4c0-0.8-0.7-1.5-1.5-1.5H92.4
				c-0.8,0-1.5,0.7-1.5,1.5V135.2L90.9,135.2z"/>
			<path class="st3" d="M67.2,135.2c0,0.8,0.7,1.5,1.5,1.5h16.4c0.8,0,1.5-0.7,1.5-1.5v-16.4c0-0.8-0.7-1.5-1.5-1.5H68.7
				c-0.8,0-1.5,0.7-1.5,1.5V135.2z"/>
			<path class="st2" d="M61.3,158c0,0.8,0.7,1.5,1.5,1.5h16.4c0.8,0,1.5-0.7,1.5-1.5v-16.4c0-0.8-0.7-1.5-1.5-1.5H62.8
				c-0.8,0-1.5,0.7-1.5,1.5V158z"/>
			<path class="st2" d="M85,158c0,0.8,0.7,1.5,1.5,1.5h22.7c0.8,0,1.5-0.7,1.5-1.5v-16.4c0-0.8-0.7-1.5-1.5-1.5H86.5
				c-0.8,0-1.5,0.7-1.5,1.5C85,141.6,85,158,85,158z"/>
			<path class="st2" d="M233.1,158c0,0.8,0.7,1.5,1.5,1.5h22.6c0.8,0,1.5-0.7,1.5-1.5v-16.4c0-0.8-0.7-1.5-1.5-1.5h-22.6
				c-0.8,0-1.5,0.7-1.5,1.5V158z"/>
			<path class="st2" d="M114.9,158c0,0.8,0.7,1.5,1.5,1.5h111.1c0.8,0,1.5-0.7,1.5-1.5v-16.4c0-0.8-0.7-1.5-1.5-1.5H116.4
				c-0.8,0-1.5,0.7-1.5,1.5V158L114.9,158z"/>
			<path class="st2" d="M37.6,158c0,0.8,0.7,1.5,1.5,1.5h16.4c0.8,0,1.5-0.7,1.5-1.5v-16.4c0-0.8-0.7-1.5-1.5-1.5H39.1
				c-0.8,0-1.5,0.7-1.5,1.5V158z"/>
			<path class="st2" d="M13.9,158c0,0.8,0.7,1.5,1.5,1.5h16.4c0.8,0,1.5-0.7,1.5-1.5v-16.4c0-0.8-0.7-1.5-1.5-1.5H15.4
				c-0.8,0-1.5,0.7-1.5,1.5C13.9,141.6,13.9,158,13.9,158z"/>
			<path class="st2" d="M13.9,135.2c0,0.8,0.7,1.5,1.5,1.5h46.4c0.8,0,1.5-0.7,1.5-1.5v-16.4c0-0.8-0.7-1.5-1.5-1.5H15.4
				c-0.8,0-1.5,0.7-1.5,1.5V135.2z"/>
			<path class="st2" d="M304.3,135.2c0,0.8,0.7,1.5,1.5,1.5h46.4c0.8,0,1.5-0.7,1.5-1.5v-16.4c0-0.8-0.7-1.5-1.5-1.5h-46.4
				c-0.8,0-1.5,0.7-1.5,1.5V135.2z"/>
		</g>
	</g>
</g>
<g>
	<g class="st4">
		<path class="st2" d="M60.7,86.4l-0.8-0.8c-0.3,0.1-0.6,0.2-0.9,0.2c-0.4,0-0.8-0.1-1.2-0.3s-0.6-0.5-0.9-0.9
			c-0.2-0.4-0.3-0.8-0.3-1.2l0-3.8c0-0.4,0.1-0.8,0.3-1.2c0.2-0.4,0.5-0.7,0.8-0.9c0.4-0.2,0.8-0.3,1.2-0.3c0.4,0,0.8,0.1,1.2,0.3
			s0.6,0.5,0.9,0.9c0.2,0.4,0.3,0.8,0.3,1.2l0,3.8c0,0.2,0,0.5-0.1,0.7s-0.1,0.4-0.3,0.6l0.7,0.8c0,0,0,0.1,0,0.1L60.7,86.4
			C60.8,86.4,60.8,86.4,60.7,86.4z M59,84.3c0.3,0,0.5-0.1,0.7-0.3s0.2-0.4,0.2-0.7l0-3.8c0-0.3-0.1-0.5-0.3-0.7
			c-0.2-0.2-0.4-0.3-0.6-0.3c-0.3,0-0.5,0.1-0.7,0.3c-0.2,0.2-0.2,0.4-0.2,0.7v3.8c0,0.3,0.1,0.5,0.3,0.7S58.8,84.3,59,84.3z"/>
	</g>
	<g class="st4">
		<path class="st2" d="M80.7,85.6C80.6,85.6,80.6,85.6,80.7,85.6l-1.5-8.3c0,0,0,0,0,0h1.3c0,0,0.1,0,0.1,0l0.8,5.4l0.8-5.4
			c0,0,0,0,0.1,0h1.1c0,0,0.1,0,0.1,0l0.8,5.4l0.8-5.4c0,0,0,0,0.1,0h1.3c0,0,0.1,0,0,0L85,85.5c0,0,0,0-0.1,0.1h-1.5
			c0,0,0,0-0.1-0.1l-0.6-4.3l-0.6,4.3c0,0,0,0.1-0.1,0.1H80.7z"/>
	</g>
	<g class="st4">
		<path class="st2" d="M104.6,85.6C104.6,85.6,104.6,85.6,104.6,85.6l0-8.3c0,0,0,0,0,0h3.9c0,0,0,0,0,0.1v1.3c0,0,0,0,0,0H106v1.9
			h2.5c0,0,0,0,0,0l0,1.4c0,0,0,0,0,0H106v2.1h2.5c0,0,0,0,0,0.1v1.4c0,0,0,0,0,0H104.6z"/>
	</g>
	<g class="st4">
		<path class="st2" d="M128,85.6C128,85.6,127.9,85.6,128,85.6l0-8.3c0,0,0,0,0,0h2.4c0.4,0,0.8,0.1,1.2,0.3s0.7,0.5,0.9,0.9
			c0.2,0.4,0.3,0.8,0.3,1.2c0,0.3,0,0.6-0.1,0.8c-0.1,0.2-0.2,0.4-0.3,0.6s-0.2,0.3-0.3,0.4c0.4,0.5,0.6,1,0.6,1.7l0,2.5
			c0,0,0,0.1-0.1,0.1h-1.4c0,0,0,0,0,0v-2.5c0-0.3-0.1-0.5-0.3-0.8c-0.2-0.2-0.5-0.3-0.8-0.3h-0.8l0,3.5c0,0,0,0.1,0,0.1H128z
			 M129.4,80.6h1c0.2,0,0.5-0.1,0.7-0.3c0.2-0.2,0.3-0.4,0.3-0.7c0-0.3-0.1-0.5-0.3-0.7c-0.2-0.2-0.4-0.3-0.7-0.3h-1V80.6z"/>
	</g>
	<g class="st4">
		<path class="st2" d="M63.5,107.9l1.5-8.2c0,0,0,0,0.1,0h1.7c0,0,0.1,0,0.1,0l1.4,8.2c0,0,0,0.1,0,0.1h-1.3c0,0-0.1,0-0.1-0.1
			l-0.1-0.9H65l-0.1,0.9c0,0,0,0.1-0.1,0.1L63.5,107.9C63.5,108,63.5,108,63.5,107.9z M65.3,105.8h1.2l-0.5-3.4l-0.1-0.4l0,0.4
			L65.3,105.8z"/>
	</g>
	<g class="st4">
		<path class="st2" d="M89.6,108.1c-0.4,0-0.8-0.1-1.2-0.3c-0.4-0.2-0.6-0.5-0.9-0.9c-0.2-0.4-0.3-0.8-0.3-1.2v-0.6
			c0,0,0-0.1,0.1-0.1h1.3c0,0,0,0,0,0.1v0.6c0,0.3,0.1,0.5,0.3,0.7c0.2,0.2,0.4,0.3,0.6,0.3s0.5-0.1,0.6-0.3
			c0.2-0.2,0.3-0.4,0.3-0.7c0-0.3-0.2-0.6-0.6-0.8c-0.1-0.1-0.3-0.2-0.6-0.3s-0.5-0.3-0.8-0.4c-0.4-0.3-0.8-0.6-1-1
			c-0.2-0.4-0.3-0.8-0.3-1.3c0-0.4,0.1-0.8,0.3-1.2c0.2-0.4,0.5-0.6,0.9-0.8c0.4-0.2,0.7-0.3,1.2-0.3c0.4,0,0.8,0.1,1.2,0.3
			c0.4,0.2,0.6,0.5,0.9,0.9s0.3,0.8,0.3,1.2v1c0,0,0,0,0,0h-1.3c0,0,0,0,0,0l0-1c0-0.3-0.1-0.5-0.3-0.7c-0.2-0.2-0.4-0.3-0.6-0.3
			c-0.2,0-0.5,0.1-0.6,0.3c-0.2,0.2-0.3,0.4-0.3,0.7c0,0.3,0.1,0.5,0.2,0.7c0.1,0.2,0.3,0.3,0.6,0.5c0,0,0.1,0.1,0.2,0.1
			c0.1,0.1,0.2,0.1,0.4,0.2c0.1,0.1,0.3,0.1,0.4,0.2c0.1,0.1,0.2,0.1,0.2,0.1c0.4,0.2,0.7,0.5,0.9,0.8s0.3,0.7,0.3,1.2
			c0,0.5-0.1,0.9-0.3,1.2c-0.2,0.4-0.5,0.7-0.9,0.9C90.4,108,90,108.1,89.6,108.1z"/>
	</g>
	<g class="st4">
		<path class="st2" d="M111.2,108C111.1,108,111.1,108,111.2,108l0-8.3c0,0,0,0,0,0l2.2,0c0.4,0,0.8,0.1,1.2,0.3
			c0.4,0.2,0.7,0.5,0.9,0.9c0.2,0.4,0.3,0.8,0.3,1.2v3.4c0,0.5-0.1,0.9-0.3,1.3c-0.2,0.4-0.5,0.7-0.9,0.9c-0.4,0.2-0.8,0.3-1.3,0.3
			L111.2,108z M112.6,106.5h0.7c0.3,0,0.5-0.1,0.8-0.3c0.2-0.2,0.3-0.5,0.3-0.7V102c0-0.3-0.1-0.5-0.3-0.7s-0.4-0.3-0.7-0.3l-0.8,0
			L112.6,106.5z"/>
	</g>
	<g class="st4">
		<path class="st2" d="M135.2,108C135.2,108,135.2,108,135.2,108l0-8.3c0,0,0,0,0,0h3.8c0,0,0.1,0,0.1,0v1.4c0,0,0,0,0,0h-2.5v1.9
			h2.5c0,0,0,0,0,0.1l0,1.4c0,0,0,0-0.1,0h-2.5v3.5c0,0,0,0.1-0.1,0.1H135.2z"/>
	</g>
	<g class="st4">
		<path class="st2" d="M74.4,131.2C74.4,131.2,74.4,131.2,74.4,131.2l0-1.4l2.9-5.6h-2.8c0,0,0,0,0,0v-1.3c0,0,0-0.1,0-0.1h4.3
			c0,0,0.1,0,0.1,0.1v1.3l-2.9,5.6h2.9c0,0,0,0,0,0.1l0,1.3c0,0,0,0.1-0.1,0.1H74.4z"/>
	</g>
	<g class="st4">
		<path class="st2" d="M98.2,131.2C98.2,131.2,98.1,131.2,98.2,131.2l1.3-4.3l-1.3-4c0,0,0,0,0,0h1.3c0,0,0.1,0,0.1,0l0.8,2.9
			l0.8-2.9c0,0,0,0,0.1,0h1.3c0,0,0,0,0,0l-1.3,3.9l1.4,4.3c0,0,0,0.1,0,0.1h-1.3c0,0-0.1,0-0.1-0.1l-0.8-3.1l-0.8,3.1
			c0,0,0,0.1-0.1,0.1H98.2z"/>
	</g>
	<g class="st4">
		<path class="st2" d="M124.2,131.3c-0.4,0-0.8-0.1-1.2-0.3c-0.4-0.2-0.6-0.5-0.8-0.9s-0.3-0.8-0.3-1.2l0-3.7c0-0.4,0.1-0.8,0.3-1.2
			c0.2-0.4,0.5-0.7,0.8-0.9c0.4-0.2,0.8-0.3,1.2-0.3s0.8,0.1,1.2,0.3s0.6,0.5,0.8,0.9s0.3,0.8,0.3,1.2v0.6c0,0,0,0,0,0h-1.3
			c0,0,0,0,0,0v-0.6c0-0.3-0.1-0.5-0.3-0.7c-0.2-0.2-0.4-0.3-0.6-0.3c-0.3,0-0.5,0.1-0.7,0.3s-0.2,0.4-0.2,0.7v3.7
			c0,0.3,0.1,0.5,0.3,0.7c0.2,0.2,0.4,0.3,0.6,0.3c0.3,0,0.5-0.1,0.6-0.3c0.2-0.2,0.3-0.4,0.3-0.7v-0.6c0,0,0,0,0,0h1.4c0,0,0,0,0,0
			v0.6c0,0.5-0.1,0.9-0.3,1.2c-0.2,0.4-0.5,0.7-0.8,0.9S124.7,131.3,124.2,131.3z"/>
	</g>
	<g class="st4">
		<path class="st2" d="M147.2,131.2C147.2,131.2,147.2,131.2,147.2,131.2l-1.7-8.3c0,0,0,0,0,0h1.4c0,0,0.1,0,0.1,0l1,5.5l1-5.5
			c0,0,0,0,0.1,0h1.3c0,0,0.1,0,0,0l-1.6,8.2c0,0,0,0.1-0.1,0.1H147.2z"/>
	</g>
</g>
<g>
	<path class="st1" d="M145.3,11.8C145.3,11.8,145.3,11.8,145.3,11.8L143,0.7c0,0,0-0.1,0.1-0.1h1.8c0,0,0.1,0,0.1,0.1l1.3,7.3
		l1.3-7.3c0,0,0-0.1,0.1-0.1h1.8c0.1,0,0.1,0,0.1,0.1l-2.2,11c0,0.1,0,0.1-0.1,0.1H145.3z"/>
	<path class="st1" d="M150.5,11.8C150.5,11.8,150.5,11.8,150.5,11.8l0-11.1c0,0,0-0.1,0.1-0.1h5.1c0,0,0.1,0,0.1,0.1v1.8
		c0,0,0,0.1-0.1,0.1h-3.3v2.5h3.3c0,0,0.1,0,0.1,0.1l0,1.8c0,0,0,0.1-0.1,0.1h-3.3v2.8h3.3c0,0,0.1,0,0.1,0.1v1.8c0,0,0,0.1-0.1,0.1
		H150.5z"/>
	<path class="st1" d="M157.3,11.8C157.2,11.8,157.2,11.8,157.3,11.8l0-11.1c0,0,0-0.1,0.1-0.1h3.2c0.6,0,1.1,0.1,1.6,0.4
		s0.9,0.7,1.2,1.1c0.3,0.5,0.4,1,0.4,1.6c0,0.4-0.1,0.7-0.2,1.1c-0.1,0.3-0.3,0.6-0.4,0.8c-0.2,0.2-0.3,0.4-0.4,0.5
		c0.6,0.6,0.9,1.4,0.9,2.3l0,3.3c0,0.1,0,0.1-0.1,0.1h-1.8c0,0-0.1,0-0.1,0V8.4c0-0.4-0.1-0.7-0.4-1s-0.6-0.4-1-0.4h-1.1l0,4.7
		c0,0.1,0,0.1-0.1,0.1H157.3z M159.1,5.1h1.4c0.3,0,0.6-0.1,0.9-0.4c0.3-0.2,0.4-0.5,0.4-0.9c0-0.3-0.1-0.6-0.4-0.9
		c-0.3-0.2-0.5-0.4-0.9-0.4h-1.4V5.1z"/>
	<path class="st1" d="M167.6,12c-0.6,0-1.1-0.1-1.6-0.4c-0.5-0.3-0.9-0.7-1.1-1.2c-0.3-0.5-0.4-1-0.4-1.6V8c0-0.1,0-0.1,0.1-0.1h1.8
		c0,0,0.1,0,0.1,0.1v0.7c0,0.4,0.1,0.7,0.4,0.9c0.2,0.3,0.5,0.4,0.8,0.4s0.6-0.1,0.8-0.4c0.2-0.3,0.4-0.6,0.4-0.9
		c0-0.4-0.3-0.7-0.8-1c-0.2-0.1-0.4-0.2-0.8-0.4c-0.4-0.2-0.7-0.4-1-0.6c-0.6-0.3-1-0.8-1.3-1.3c-0.3-0.5-0.4-1.1-0.4-1.8
		c0-0.6,0.1-1.1,0.4-1.6s0.7-0.9,1.1-1.1s1-0.4,1.5-0.4c0.6,0,1.1,0.1,1.6,0.4c0.5,0.3,0.9,0.7,1.1,1.1c0.3,0.5,0.4,1,0.4,1.6V5
		c0,0,0,0.1-0.1,0.1h-1.8c0,0-0.1,0-0.1-0.1l0-1.3c0-0.4-0.1-0.7-0.4-0.9c-0.2-0.2-0.5-0.4-0.8-0.4c-0.3,0-0.6,0.1-0.8,0.4
		c-0.2,0.3-0.4,0.5-0.4,0.9c0,0.4,0.1,0.6,0.2,0.9c0.1,0.2,0.4,0.5,0.8,0.7c0.1,0,0.2,0.1,0.3,0.2c0.2,0.1,0.3,0.2,0.5,0.3
		c0.2,0.1,0.3,0.2,0.5,0.3C168.9,6,169,6,169,6c0.5,0.3,1,0.7,1.3,1.1c0.3,0.4,0.5,1,0.5,1.6c0,0.6-0.1,1.2-0.4,1.6
		s-0.7,0.9-1.1,1.2C168.7,11.8,168.2,12,167.6,12z"/>
	<path class="st1" d="M171.9,11.8C171.9,11.8,171.8,11.8,171.9,11.8l-0.1-11.1c0,0,0-0.1,0.1-0.1h1.8c0,0,0.1,0,0.1,0.1l0,11
		c0,0.1,0,0.1-0.1,0.1H171.9z"/>
	<path class="st1" d="M178.1,12c-0.6,0-1.1-0.1-1.6-0.4c-0.5-0.3-0.9-0.7-1.1-1.2c-0.3-0.5-0.4-1-0.4-1.6l0-5.1
		c0-0.6,0.1-1.1,0.4-1.6c0.3-0.5,0.7-0.9,1.1-1.2c0.5-0.3,1-0.4,1.6-0.4c0.6,0,1.1,0.1,1.6,0.4s0.8,0.7,1.1,1.2s0.4,1,0.4,1.6l0,5.1
		c0,0.6-0.1,1.1-0.4,1.6c-0.3,0.5-0.7,0.9-1.1,1.2C179.3,11.8,178.7,12,178.1,12z M178.1,10c0.3,0,0.6-0.1,0.8-0.4
		c0.2-0.3,0.4-0.6,0.4-0.9l0-5.1c0-0.4-0.1-0.7-0.3-0.9c-0.2-0.2-0.5-0.4-0.8-0.4c-0.3,0-0.6,0.1-0.8,0.4c-0.2,0.2-0.4,0.5-0.4,0.9
		v5.1c0,0.4,0.1,0.7,0.4,0.9C177.5,9.9,177.8,10,178.1,10z"/>
	<path class="st1" d="M182.6,11.8c-0.1,0-0.1,0-0.1-0.1l0-10.9c0-0.1,0-0.1,0.1-0.1h1.4l2.7,6.3l-0.1-6.2c0-0.1,0-0.1,0.1-0.1h1.6
		c0.1,0,0.1,0,0.1,0.1l0,10.9c0,0.1,0,0.1-0.1,0.1H187l-2.8-5.9l0.1,5.8c0,0.1,0,0.1-0.1,0.1H182.6z"/>
	<path class="st1" d="M192.4,11.8C192.3,11.8,192.3,11.8,192.4,11.8l-0.1-11.1c0,0,0-0.1,0.1-0.1h1.8c0,0,0.1,0,0.1,0.1l0,11
		c0,0.1,0,0.1-0.1,0.1H192.4z"/>
	<path class="st1" d="M198.1,11.8C198,11.8,198,11.8,198.1,11.8l0-11.1c0-0.1,0-0.1,0.1-0.1h1.8c0,0,0.1,0,0.1,0.1v3.8l2.5-3.8
		c0,0,0.1-0.1,0.1-0.1h1.8c0,0,0.1,0,0,0.1l-2.8,4.4l3.1,6.6c0,0,0,0.1-0.1,0.1h-2c-0.1,0-0.1,0-0.1-0.1L200.5,7L200,7.9v3.8
		c0,0.1,0,0.1-0.1,0.1H198.1z"/>
	<path class="st1" d="M205.6,11.8C205.5,11.8,205.5,11.8,205.6,11.8l0-11.1c0,0,0-0.1,0.1-0.1h5.1c0,0,0.1,0,0.1,0.1v1.8
		c0,0,0,0.1-0.1,0.1h-3.3v2.5h3.3c0,0,0.1,0,0.1,0.1l0,1.8c0,0,0,0.1-0.1,0.1h-3.3v2.8h3.3c0,0,0.1,0,0.1,0.1v1.8c0,0,0,0.1-0.1,0.1
		H205.6z"/>
	<path class="st1" d="M213.7,11.8C213.6,11.8,213.6,11.8,213.7,11.8l0-4.6l-2.1-6.5c0,0,0-0.1,0-0.1h1.8c0.1,0,0.1,0,0.1,0.1
		l1.2,4.3l1.2-4.3c0,0,0-0.1,0.1-0.1h1.8c0,0,0.1,0,0,0.1l-2.2,6.4l0,4.6c0,0,0,0.1-0.1,0.1H213.7z"/>
	<path class="st1" d="M221,12c-0.6,0-1.1-0.1-1.6-0.4c-0.5-0.3-0.9-0.7-1.1-1.2c-0.3-0.5-0.4-1-0.4-1.6V8c0-0.1,0-0.1,0.1-0.1h1.8
		c0,0,0.1,0,0.1,0.1v0.7c0,0.4,0.1,0.7,0.4,0.9c0.2,0.3,0.5,0.4,0.8,0.4c0.3,0,0.6-0.1,0.8-0.4c0.2-0.3,0.4-0.6,0.4-0.9
		c0-0.4-0.3-0.7-0.8-1c-0.2-0.1-0.4-0.2-0.8-0.4s-0.7-0.4-1-0.6c-0.6-0.3-1-0.8-1.3-1.3c-0.3-0.5-0.4-1.1-0.4-1.8
		c0-0.6,0.1-1.1,0.4-1.6s0.7-0.9,1.1-1.1s1-0.4,1.5-0.4c0.6,0,1.1,0.1,1.6,0.4c0.5,0.3,0.9,0.7,1.1,1.1c0.3,0.5,0.4,1,0.4,1.6V5
		c0,0,0,0.1-0.1,0.1h-1.8c0,0-0.1,0-0.1-0.1l0-1.3c0-0.4-0.1-0.7-0.4-0.9c-0.2-0.2-0.5-0.4-0.8-0.4c-0.3,0-0.6,0.1-0.8,0.4
		c-0.2,0.3-0.4,0.5-0.4,0.9c0,0.4,0.1,0.6,0.2,0.9c0.1,0.2,0.4,0.5,0.8,0.7c0.1,0,0.2,0.1,0.3,0.2c0.2,0.1,0.3,0.2,0.5,0.3
		c0.2,0.1,0.3,0.2,0.5,0.3c0.1,0.1,0.2,0.1,0.3,0.1c0.5,0.3,1,0.7,1.3,1.1s0.5,1,0.5,1.6c0,0.6-0.1,1.2-0.4,1.6
		c-0.3,0.5-0.7,0.9-1.1,1.2C222.1,11.8,221.6,12,221,12z"/>
</g>
</svg>
