<?xml version="1.0" encoding="utf-8"?>
<!-- Generator: Adobe Illustrator 25.3.1, SVG Export Plug-In . SVG Version: 6.00 Build 0)  -->
<svg version="1.1" id="Layer_1" xmlns="http://www.w3.org/2000/svg" xmlns:xlink="http://www.w3.org/1999/xlink" x="0px" y="0px"
	 viewBox="0 0 30 30" style="enable-background:new 0 0 30 30;" xml:space="preserve">
<style type="text/css">
	.st0{fill:none;stroke:#777777;stroke-width:2;stroke-linecap:round;stroke-linejoin:round;stroke-miterlimit:10;}
</style>
<line class="st0" x1="4.9" y1="4.9" x2="25.1" y2="25.1"/>
<line class="st0" x1="4.9" y1="25.1" x2="25.1" y2="4.9"/>
<path class="st0" d="M15,20L15,20c-2.8,0-5-2.2-5-5l0,0c0-2.8,2.2-5,5-5l0,0c2.8,0,5,2.2,5,5l0,0C20,17.8,17.8,20,15,20z"/>
<path class="st0" d="M3.5,5.5L3.5,5.5c-1.1,0-2-0.9-2-2v0c0-1.1,0.9-2,2-2h0c1.1,0,2,0.9,2,2v0C5.5,4.6,4.6,5.5,3.5,5.5z"/>
<path class="st0" d="M26.5,5.5L26.5,5.5c-1.1,0-2-0.9-2-2v0c0-1.1,0.9-2,2-2h0c1.1,0,2,0.9,2,2v0C28.5,4.6,27.6,5.5,26.5,5.5z"/>
<path class="st0" d="M3.5,28.5L3.5,28.5c-1.1,0-2-0.9-2-2v0c0-1.1,0.9-2,2-2h0c1.1,0,2,0.9,2,2v0C5.5,27.6,4.6,28.5,3.5,28.5z"/>
<path class="st0" d="M26.5,28.5L26.5,28.5c-1.1,0-2-0.9-2-2v0c0-1.1,0.9-2,2-2h0c1.1,0,2,0.9,2,2v0C28.5,27.6,27.6,28.5,26.5,28.5z"
	/>
</svg>
