<?xml version="1.0" encoding="utf-8"?>
<!-- Generator: Adobe Illustrator 25.4.1, SVG Export Plug-In . SVG Version: 6.00 Build 0)  -->
<svg version="1.1" id="Layer_1" xmlns="http://www.w3.org/2000/svg" xmlns:xlink="http://www.w3.org/1999/xlink" x="0px" y="0px"
	 viewBox="0 0 22 22" style="enable-background:new 0 0 22 22;" xml:space="preserve">
<style type="text/css">
	.st0{fill:none;stroke:#F56476;stroke-miterlimit:10;}
	.st1{fill:#F56476;}
</style>
<path class="st0" d="M11,19L11,19c-4.4,0-8-3.6-8-8l0,0c0-4.4,3.6-8,8-8l0,0c4.4,0,8,3.6,8,8l0,0C19,15.4,15.4,19,11,19z"/>
<g>
	<path class="st1" d="M9.9,12.7c0-0.4,0.1-0.8,0.2-1.1c0.1-0.3,0.4-0.6,0.8-0.8c0.1-0.1,0.3-0.2,0.5-0.3s0.4-0.2,0.5-0.4
		c0.2-0.1,0.3-0.3,0.4-0.5s0.2-0.4,0.2-0.6c0-0.2,0-0.4-0.1-0.5c-0.1-0.2-0.2-0.3-0.3-0.4s-0.3-0.2-0.4-0.2
		c-0.2-0.1-0.3-0.1-0.5-0.1s-0.4,0-0.5,0.1C10.5,8,10.4,8,10.3,8.1C10.1,8.2,10,8.3,9.9,8.4S9.7,8.7,9.6,8.8L8.7,8.2
		c0.2-0.5,0.6-0.9,1-1.1s1-0.4,1.5-0.4c0.3,0,0.6,0,0.9,0.1c0.3,0.1,0.6,0.2,0.8,0.4c0.2,0.2,0.4,0.4,0.6,0.7
		c0.1,0.3,0.2,0.6,0.2,1.1c0,0.3,0,0.5-0.1,0.7s-0.2,0.4-0.3,0.6s-0.3,0.3-0.4,0.4s-0.4,0.2-0.5,0.3c-0.2,0.1-0.3,0.2-0.5,0.3
		s-0.3,0.2-0.4,0.3c-0.1,0.1-0.2,0.3-0.3,0.4C11,12.3,11,12.4,11,12.7H9.9z M9.9,15.3v-1.5H11v1.5H9.9z"/>
</g>
</svg>
