<?xml version="1.0" encoding="utf-8"?>
<!-- Generator: Adobe Illustrator 25.3.1, SVG Export Plug-In . SVG Version: 6.00 Build 0)  -->
<svg version="1.1" id="Layer_1" xmlns="http://www.w3.org/2000/svg" xmlns:xlink="http://www.w3.org/1999/xlink" x="0px" y="0px"
	 viewBox="0 0 245.5 110.4" style="enable-background:new 0 0 245.5 110.4;" xml:space="preserve">
<style type="text/css">
	.st0{fill:none;}
	.st1{fill:#444444;}
	.st2{fill:#DA2C5E;}
	.st3{fill:#4EA74F;}
	.st4{fill:#700D60;}
	.st5{fill:#119CA7;}
	.st6{opacity:0.35;}
	.st7{fill:#FFFFFF;}
	.st8{font-family:'Staatliches-Regular';}
	.st9{font-size:11px;}
	.st10{opacity:0.3;fill:#FFFFFF;enable-background:new    ;}
</style>
<rect class="st0" width="245.5" height="110.4"/>
<g>
	<g>
		<g>
			<path class="st1" d="M24.8,19.9c0,0.8-0.7,1.5-1.5,1.5H6.9c-0.8,0-1.5-0.7-1.5-1.5V3.5C5.4,2.7,6.1,2,6.9,2h16.4
				c0.8,0,1.5,0.7,1.5,1.5V19.9z"/>
			<path class="st1" d="M47.5,19.9c0,0.8-0.7,1.5-1.5,1.5H29.6c-0.8,0-1.5-0.7-1.5-1.5V3.5c0-0.8,0.7-1.5,1.5-1.5H46
				c0.8,0,1.5,0.7,1.5,1.5V19.9L47.5,19.9z"/>
			<path class="st1" d="M70.2,19.9c0,0.8-0.7,1.5-1.5,1.5H52.3c-0.8,0-1.5-0.7-1.5-1.5V3.5c0-0.8,0.7-1.5,1.5-1.5h16.4
				c0.8,0,1.5,0.7,1.5,1.5V19.9L70.2,19.9z"/>
			<path class="st1" d="M92.9,19.9c0,0.8-0.7,1.5-1.5,1.5H75c-0.8,0-1.5-0.7-1.5-1.5V3.5C73.5,2.7,74.2,2,75,2h16.4
				c0.8,0,1.5,0.7,1.5,1.5V19.9z"/>
			<path class="st1" d="M115.6,19.9c0,0.8-0.7,1.5-1.5,1.5H97.7c-0.8,0-1.5-0.7-1.5-1.5V3.5c0-0.8,0.7-1.5,1.5-1.5h16.4
				c0.8,0,1.5,0.7,1.5,1.5V19.9z"/>
			<path class="st1" d="M138.3,19.9c0,0.8-0.7,1.5-1.5,1.5h-16.4c-0.8,0-1.5-0.7-1.5-1.5V3.5c0-0.8,0.7-1.5,1.5-1.5h16.4
				c0.8,0,1.5,0.7,1.5,1.5V19.9z"/>
			<path class="st1" d="M161,19.9c0,0.8-0.7,1.5-1.5,1.5h-16.4c-0.8,0-1.5-0.7-1.5-1.5V3.5c0-0.8,0.7-1.5,1.5-1.5h16.4
				c0.8,0,1.5,0.7,1.5,1.5V19.9z"/>
			<path class="st1" d="M183.7,19.9c0,0.8-0.7,1.5-1.5,1.5h-16.4c-0.8,0-1.5-0.7-1.5-1.5V3.5c0-0.8,0.7-1.5,1.5-1.5h16.4
				c0.8,0,1.5,0.7,1.5,1.5V19.9z"/>
			<path class="st1" d="M206.5,19.9c0,0.8-0.7,1.5-1.5,1.5h-16.4c-0.8,0-1.5-0.7-1.5-1.5V3.5c0-0.8,0.7-1.5,1.5-1.5H205
				c0.8,0,1.5,0.7,1.5,1.5V19.9z"/>
			<path class="st1" d="M229.2,19.9c0,0.8-0.7,1.5-1.5,1.5h-16.4c-0.8,0-1.5-0.7-1.5-1.5V3.5c0-0.8,0.7-1.5,1.5-1.5h16.4
				c0.8,0,1.5,0.7,1.5,1.5V19.9z"/>
			<path class="st2" d="M221.6,41.4c0,0.8,0.7,1.5,1.5,1.5h16.4c0.8,0,1.5-0.7,1.5-1.5V25c0-0.8-0.7-1.5-1.5-1.5h-16.4
				c-0.8,0-1.5,0.7-1.5,1.5V41.4z"/>
			<path class="st2" d="M198.9,41.4c0,0.8,0.7,1.5,1.5,1.5h16.4c0.8,0,1.5-0.7,1.5-1.5V25c0-0.8-0.7-1.5-1.5-1.5h-16.4
				c-0.8,0-1.5,0.7-1.5,1.5V41.4L198.9,41.4z"/>
			<path class="st2" d="M176.2,41.4c0,0.8,0.7,1.5,1.5,1.5h16.4c0.8,0,1.5-0.7,1.5-1.5V25c0-0.8-0.7-1.5-1.5-1.5h-16.4
				c-0.8,0-1.5,0.7-1.5,1.5V41.4L176.2,41.4z"/>
			<path class="st2" d="M153.5,41.4c0,0.8,0.7,1.5,1.5,1.5h16.4c0.8,0,1.5-0.7,1.5-1.5V25c0-0.8-0.7-1.5-1.5-1.5H155
				c-0.8,0-1.5,0.7-1.5,1.5V41.4z"/>
			<path class="st2" d="M130.8,41.4c0,0.8,0.7,1.5,1.5,1.5h16.4c0.8,0,1.5-0.7,1.5-1.5V25c0-0.8-0.7-1.5-1.5-1.5h-16.4
				c-0.8,0-1.5,0.7-1.5,1.5V41.4z"/>
			<path class="st2" d="M108.1,41.4c0,0.8,0.7,1.5,1.5,1.5H126c0.8,0,1.5-0.7,1.5-1.5V25c0-0.8-0.7-1.5-1.5-1.5h-16.4
				c-0.8,0-1.5,0.7-1.5,1.5V41.4z"/>
			<path class="st2" d="M85.4,41.4c0,0.8,0.7,1.5,1.5,1.5h16.4c0.8,0,1.5-0.7,1.5-1.5V25c0-0.8-0.7-1.5-1.5-1.5H86.8
				c-0.8,0-1.5,0.7-1.5,1.5C85.4,25,85.4,41.4,85.4,41.4z"/>
			<path class="st2" d="M62.6,41.4c0,0.8,0.7,1.5,1.5,1.5h16.4c0.8,0,1.5-0.7,1.5-1.5V25c0-0.8-0.7-1.5-1.5-1.5H64.1
				c-0.8,0-1.5,0.7-1.5,1.5V41.4z"/>
			<path class="st2" d="M39.9,41.4c0,0.8,0.7,1.5,1.5,1.5h16.4c0.8,0,1.5-0.7,1.5-1.5V25c0-0.8-0.7-1.5-1.5-1.5H41.4
				c-0.8,0-1.5,0.7-1.5,1.5V41.4z"/>
			<path class="st2" d="M17.2,41.4c0,0.8,0.7,1.5,1.5,1.5h16.4c0.8,0,1.5-0.7,1.5-1.5V25c0-0.8-0.7-1.5-1.5-1.5H18.7
				c-0.8,0-1.5,0.7-1.5,1.5V41.4L17.2,41.4z"/>
			<path class="st3" d="M204.7,63.3c0,0.8,0.7,1.5,1.5,1.5h16.4c0.8,0,1.5-0.7,1.5-1.5V46.9c0-0.8-0.7-1.5-1.5-1.5h-16.4
				c-0.8,0-1.5,0.7-1.5,1.5V63.3L204.7,63.3z"/>
			<path class="st3" d="M182,63.3c0,0.8,0.7,1.5,1.5,1.5h16.4c0.8,0,1.5-0.7,1.5-1.5V46.9c0-0.8-0.7-1.5-1.5-1.5h-16.4
				c-0.8,0-1.5,0.7-1.5,1.5V63.3z"/>
			<path class="st3" d="M159.3,63.3c0,0.8,0.7,1.5,1.5,1.5h16.4c0.8,0,1.5-0.7,1.5-1.5V46.9c0-0.8-0.7-1.5-1.5-1.5h-16.4
				c-0.8,0-1.5,0.7-1.5,1.5V63.3z"/>
			<path class="st3" d="M136.6,63.3c0,0.8,0.7,1.5,1.5,1.5h16.4c0.8,0,1.5-0.7,1.5-1.5V46.9c0-0.8-0.7-1.5-1.5-1.5h-16.4
				c-0.8,0-1.5,0.7-1.5,1.5V63.3z"/>
			<path class="st3" d="M113.9,63.3c0,0.8,0.7,1.5,1.5,1.5h16.4c0.8,0,1.5-0.7,1.5-1.5V46.9c0-0.8-0.7-1.5-1.5-1.5h-16.4
				c-0.8,0-1.5,0.7-1.5,1.5V63.3z"/>
			<path class="st3" d="M91.2,63.3c0,0.8,0.7,1.5,1.5,1.5h16.4c0.8,0,1.5-0.7,1.5-1.5V46.9c0-0.8-0.7-1.5-1.5-1.5H92.7
				c-0.8,0-1.5,0.7-1.5,1.5V63.3z"/>
			<path class="st3" d="M68.5,63.3c0,0.8,0.7,1.5,1.5,1.5h16.4c0.8,0,1.5-0.7,1.5-1.5V46.9c0-0.8-0.7-1.5-1.5-1.5H70
				c-0.8,0-1.5,0.7-1.5,1.5V63.3z"/>
			<path class="st3" d="M45.7,63.3c0,0.8,0.7,1.5,1.5,1.5h16.4c0.8,0,1.5-0.7,1.5-1.5V46.9c0-0.8-0.7-1.5-1.5-1.5H47.2
				c-0.8,0-1.5,0.7-1.5,1.5C45.8,46.9,45.8,63.3,45.7,63.3z"/>
			<path class="st3" d="M23,63.3c0,0.8,0.7,1.5,1.5,1.5h16.4c0.8,0,1.5-0.7,1.5-1.5V46.9c0-0.8-0.7-1.5-1.5-1.5H24.5
				c-0.8,0-1.5,0.7-1.5,1.5V63.3z"/>
			<path class="st4" d="M170.2,85c0,0.8,0.7,1.5,1.5,1.5h16.4c0.8,0,1.5-0.7,1.5-1.5V68.6c0-0.8-0.7-1.5-1.5-1.5h-16.4
				c-0.8,0-1.5,0.7-1.5,1.5V85z"/>
			<path class="st4" d="M147.5,85c0,0.8,0.7,1.5,1.5,1.5h16.4c0.8,0,1.5-0.7,1.5-1.5V68.6c0-0.8-0.7-1.5-1.5-1.5H149
				c-0.8,0-1.5,0.7-1.5,1.5V85z"/>
			<path class="st4" d="M124.8,85c0,0.8,0.7,1.5,1.5,1.5h16.4c0.8,0,1.5-0.7,1.5-1.5V68.6c0-0.8-0.7-1.5-1.5-1.5h-16.4
				c-0.8,0-1.5,0.7-1.5,1.5C124.8,68.6,124.8,85,124.8,85z"/>
			<path class="st4" d="M102.1,85c0,0.8,0.7,1.5,1.5,1.5H120c0.8,0,1.5-0.7,1.5-1.5V68.6c0-0.8-0.7-1.5-1.5-1.5h-16.4
				c-0.8,0-1.5,0.7-1.5,1.5V85z"/>
			<path class="st4" d="M79.4,85c0,0.8,0.7,1.5,1.5,1.5h16.4c0.8,0,1.5-0.7,1.5-1.5V68.6c0-0.8-0.7-1.5-1.5-1.5H80.9
				c-0.8,0-1.5,0.7-1.5,1.5V85z"/>
			<path class="st4" d="M56.7,85c0,0.8,0.7,1.5,1.5,1.5h16.4c0.8,0,1.5-0.7,1.5-1.5V68.6c0-0.8-0.7-1.5-1.5-1.5H58.2
				c-0.8,0-1.5,0.7-1.5,1.5V85L56.7,85z"/>
			<path class="st4" d="M34,85c0,0.8,0.7,1.5,1.5,1.5h16.4c0.8,0,1.5-0.7,1.5-1.5V68.6c0-0.8-0.7-1.5-1.5-1.5H35.5
				c-0.8,0-1.5,0.7-1.5,1.5V85z"/>
			<path class="st5" d="M79.7,106.8c0,0.8,0.7,1.5,1.5,1.5h107.1c0.8,0,1.5-0.7,1.5-1.5V90.4c0-0.8-0.7-1.5-1.5-1.5H81.2
				c-0.8,0-1.5,0.7-1.5,1.5V106.8L79.7,106.8z"/>
		</g>
	</g>
	<g class="st6">
		<g>
			<path d="M23.3,21.5H6.9c-1,0-1.9-0.8-1.9-1.9V3.3c0-1,0.8-1.9,1.9-1.9h16.4c1,0,1.9,0.8,1.9,1.9v16.4
				C25.1,20.7,24.3,21.5,23.3,21.5z M6.9,2.1c-0.6,0-1.1,0.5-1.1,1.1v16.4c0,0.6,0.5,1.1,1.1,1.1h16.4c0.6,0,1.1-0.5,1.1-1.1V3.3
				c0-0.6-0.5-1.1-1.1-1.1L6.9,2.1L6.9,2.1z"/>
		</g>
		<g>
			<path d="M46,21.5H29.6c-1,0-1.9-0.8-1.9-1.9V3.3c0-1,0.8-1.9,1.9-1.9H46c1,0,1.9,0.8,1.9,1.9v16.4C47.9,20.7,47,21.5,46,21.5z
				 M29.6,2.1c-0.6,0-1.1,0.5-1.1,1.1v16.4c0,0.6,0.5,1.1,1.1,1.1H46c0.6,0,1.1-0.5,1.1-1.1V3.3c0-0.6-0.5-1.1-1.1-1.1L29.6,2.1
				L29.6,2.1z"/>
		</g>
		<g>
			<path d="M68.7,21.5H52.3c-1,0-1.9-0.8-1.9-1.9V3.3c0-1,0.8-1.9,1.9-1.9h16.4c1,0,1.9,0.8,1.9,1.9v16.4
				C70.6,20.7,69.7,21.5,68.7,21.5z M52.3,2.1c-0.6,0-1.1,0.5-1.1,1.1v16.4c0,0.6,0.5,1.1,1.1,1.1h16.4c0.6,0,1.1-0.5,1.1-1.1V3.3
				c0-0.6-0.5-1.1-1.1-1.1L52.3,2.1L52.3,2.1z"/>
		</g>
		<g>
			<path d="M91.4,21.5H75c-1,0-1.9-0.8-1.9-1.9V3.3c0-1,0.8-1.9,1.9-1.9h16.4c1,0,1.9,0.8,1.9,1.9v16.4
				C93.3,20.7,92.5,21.5,91.4,21.5z M75,2.1c-0.6,0-1.1,0.5-1.1,1.1v16.4c0,0.6,0.5,1.1,1.1,1.1h16.4c0.6,0,1.1-0.5,1.1-1.1V3.3
				c0-0.6-0.5-1.1-1.1-1.1L75,2.1L75,2.1z"/>
		</g>
		<g>
			<path d="M114.1,21.5H97.7c-1,0-1.9-0.8-1.9-1.9V3.3c0-1,0.8-1.9,1.9-1.9h16.4c1,0,1.9,0.8,1.9,1.9v16.4
				C116,20.7,115.2,21.5,114.1,21.5z M97.7,2.1c-0.6,0-1.1,0.5-1.1,1.1v16.4c0,0.6,0.5,1.1,1.1,1.1h16.4c0.6,0,1.1-0.5,1.1-1.1V3.3
				c0-0.6-0.5-1.1-1.1-1.1L97.7,2.1L97.7,2.1z"/>
		</g>
		<g>
			<path d="M136.9,21.5h-16.4c-1,0-1.9-0.8-1.9-1.9V3.3c0-1,0.8-1.9,1.9-1.9h16.4c1,0,1.9,0.8,1.9,1.9v16.4
				C138.7,20.7,137.9,21.5,136.9,21.5z M120.4,2.1c-0.6,0-1.1,0.5-1.1,1.1v16.4c0,0.6,0.5,1.1,1.1,1.1h16.4c0.6,0,1.1-0.5,1.1-1.1
				V3.3c0-0.6-0.5-1.1-1.1-1.1L120.4,2.1L120.4,2.1z"/>
		</g>
		<g>
			<path d="M159.6,21.5h-16.4c-1,0-1.9-0.8-1.9-1.9V3.3c0-1,0.8-1.9,1.9-1.9h16.4c1,0,1.9,0.8,1.9,1.9v16.4
				C161.4,20.7,160.6,21.5,159.6,21.5z M143.2,2.1c-0.6,0-1.1,0.5-1.1,1.1v16.4c0,0.6,0.5,1.1,1.1,1.1h16.4c0.6,0,1.1-0.5,1.1-1.1
				V3.3c0-0.6-0.5-1.1-1.1-1.1L143.2,2.1L143.2,2.1z"/>
		</g>
		<g>
			<path d="M182.3,21.5h-16.4c-1,0-1.9-0.8-1.9-1.9V3.3c0-1,0.8-1.9,1.9-1.9h16.4c1,0,1.9,0.8,1.9,1.9v16.4
				C184.1,20.7,183.3,21.5,182.3,21.5z M165.9,2.1c-0.6,0-1.1,0.5-1.1,1.1v16.4c0,0.6,0.5,1.1,1.1,1.1h16.4c0.6,0,1.1-0.5,1.1-1.1
				V3.3c0-0.6-0.5-1.1-1.1-1.1L165.9,2.1L165.9,2.1z"/>
		</g>
		<g>
			<path d="M205,21.5h-16.4c-1,0-1.9-0.8-1.9-1.9V3.3c0-1,0.8-1.9,1.9-1.9H205c1,0,1.9,0.8,1.9,1.9v16.4
				C206.9,20.7,206,21.5,205,21.5z M188.6,2.1c-0.6,0-1.1,0.5-1.1,1.1v16.4c0,0.6,0.5,1.1,1.1,1.1H205c0.6,0,1.1-0.5,1.1-1.1V3.3
				c0-0.6-0.5-1.1-1.1-1.1L188.6,2.1L188.6,2.1z"/>
		</g>
		<g>
			<path d="M227.7,21.5h-16.4c-1,0-1.9-0.8-1.9-1.9V3.3c0-1,0.8-1.9,1.9-1.9h16.4c1,0,1.9,0.8,1.9,1.9v16.4
				C229.6,20.7,228.7,21.5,227.7,21.5z M211.3,2.1c-0.6,0-1.1,0.5-1.1,1.1v16.4c0,0.6,0.5,1.1,1.1,1.1h16.4c0.6,0,1.1-0.5,1.1-1.1
				V3.3c0-0.6-0.5-1.1-1.1-1.1L211.3,2.1L211.3,2.1z"/>
		</g>
		<g>
			<path d="M239.6,43h-16.4c-1,0-1.9-0.8-1.9-1.9V24.7c0-1,0.8-1.9,1.9-1.9h16.4c1,0,1.9,0.8,1.9,1.9v16.4
				C241.4,42.2,240.6,43,239.6,43z M223.1,23.6c-0.6,0-1.1,0.5-1.1,1.1v16.4c0,0.6,0.5,1.1,1.1,1.1h16.4c0.6,0,1.1-0.5,1.1-1.1V24.7
				c0-0.6-0.5-1.1-1.1-1.1H223.1z"/>
		</g>
		<g>
			<path d="M216.8,43h-16.4c-1,0-1.9-0.8-1.9-1.9V24.7c0-1,0.8-1.9,1.9-1.9h16.4c1,0,1.9,0.8,1.9,1.9v16.4
				C218.7,42.2,217.9,43,216.8,43z M200.4,23.6c-0.6,0-1.1,0.5-1.1,1.1v16.4c0,0.6,0.5,1.1,1.1,1.1h16.4c0.6,0,1.1-0.5,1.1-1.1V24.7
				c0-0.6-0.5-1.1-1.1-1.1H200.4z"/>
		</g>
		<g>
			<path d="M194.1,43h-16.4c-1,0-1.9-0.8-1.9-1.9V24.7c0-1,0.8-1.9,1.9-1.9h16.4c1,0,1.9,0.8,1.9,1.9v16.4
				C196,42.2,195.2,43,194.1,43z M177.7,23.6c-0.6,0-1.1,0.5-1.1,1.1v16.4c0,0.6,0.5,1.1,1.1,1.1h16.4c0.6,0,1.1-0.5,1.1-1.1V24.7
				c0-0.6-0.5-1.1-1.1-1.1H177.7z"/>
		</g>
		<g>
			<path d="M171.4,43H155c-1,0-1.9-0.8-1.9-1.9V24.7c0-1,0.8-1.9,1.9-1.9h16.4c1,0,1.9,0.8,1.9,1.9v16.4
				C173.3,42.2,172.4,43,171.4,43z M155,23.6c-0.6,0-1.1,0.5-1.1,1.1v16.4c0,0.6,0.5,1.1,1.1,1.1h16.4c0.6,0,1.1-0.5,1.1-1.1V24.7
				c0-0.6-0.5-1.1-1.1-1.1H155z"/>
		</g>
		<g>
			<path d="M148.7,43h-16.4c-1,0-1.9-0.8-1.9-1.9V24.7c0-1,0.8-1.9,1.9-1.9h16.4c1,0,1.9,0.8,1.9,1.9v16.4
				C150.6,42.2,149.7,43,148.7,43z M132.3,23.6c-0.6,0-1.1,0.5-1.1,1.1v16.4c0,0.6,0.5,1.1,1.1,1.1h16.4c0.6,0,1.1-0.5,1.1-1.1V24.7
				c0-0.6-0.5-1.1-1.1-1.1H132.3z"/>
		</g>
		<g>
			<path d="M126,43h-16.4c-1,0-1.9-0.8-1.9-1.9V24.7c0-1,0.8-1.9,1.9-1.9H126c1,0,1.9,0.8,1.9,1.9v16.4C127.9,42.2,127,43,126,43z
				 M109.6,23.6c-0.6,0-1.1,0.5-1.1,1.1v16.4c0,0.6,0.5,1.1,1.1,1.1H126c0.6,0,1.1-0.5,1.1-1.1V24.7c0-0.6-0.5-1.1-1.1-1.1H109.6z"
				/>
		</g>
		<g>
			<path d="M103.3,43H86.9c-1,0-1.9-0.8-1.9-1.9V24.7c0-1,0.8-1.9,1.9-1.9h16.4c1,0,1.9,0.8,1.9,1.9v16.4
				C105.1,42.2,104.3,43,103.3,43z M86.9,23.6c-0.6,0-1.1,0.5-1.1,1.1v16.4c0,0.6,0.5,1.1,1.1,1.1h16.4c0.6,0,1.1-0.5,1.1-1.1V24.7
				c0-0.6-0.5-1.1-1.1-1.1H86.9z"/>
		</g>
		<g>
			<path d="M80.6,43H64.1c-1,0-1.9-0.8-1.9-1.9V24.7c0-1,0.8-1.9,1.9-1.9h16.4c1,0,1.9,0.8,1.9,1.9v16.4C82.4,42.2,81.6,43,80.6,43z
				 M64.1,23.6c-0.6,0-1.1,0.5-1.1,1.1v16.4c0,0.6,0.5,1.1,1.1,1.1h16.4c0.6,0,1.1-0.5,1.1-1.1V24.7c0-0.6-0.5-1.1-1.1-1.1H64.1z"/>
		</g>
		<g>
			<path d="M57.9,43H41.4c-1,0-1.9-0.8-1.9-1.9V24.7c0-1,0.8-1.9,1.9-1.9h16.4c1,0,1.9,0.8,1.9,1.9v16.4C59.7,42.2,58.9,43,57.9,43z
				 M41.4,23.6c-0.6,0-1.1,0.5-1.1,1.1v16.4c0,0.6,0.5,1.1,1.1,1.1h16.4c0.6,0,1.1-0.5,1.1-1.1V24.7c0-0.6-0.5-1.1-1.1-1.1H41.4z"/>
		</g>
		<g>
			<path d="M35.1,43H18.7c-1,0-1.9-0.8-1.9-1.9V24.7c0-1,0.8-1.9,1.9-1.9h16.4c1,0,1.9,0.8,1.9,1.9v16.4C37,42.2,36.2,43,35.1,43z
				 M18.7,23.6c-0.6,0-1.1,0.5-1.1,1.1v16.4c0,0.6,0.5,1.1,1.1,1.1h16.4c0.6,0,1.1-0.5,1.1-1.1V24.7c0-0.6-0.5-1.1-1.1-1.1H18.7z"/>
		</g>
		<g>
			<path d="M222.7,64.9h-16.4c-1,0-1.9-0.8-1.9-1.9V46.6c0-1,0.8-1.9,1.9-1.9h16.4c1,0,1.9,0.8,1.9,1.9V63
				C224.5,64,223.7,64.9,222.7,64.9z M206.2,45.5c-0.6,0-1.1,0.5-1.1,1.1V63c0,0.6,0.5,1.1,1.1,1.1h16.4c0.6,0,1.1-0.5,1.1-1.1V46.6
				c0-0.6-0.5-1.1-1.1-1.1C222.7,45.5,206.2,45.5,206.2,45.5z"/>
		</g>
		<g>
			<path d="M199.9,64.9h-16.4c-1,0-1.9-0.8-1.9-1.9V46.6c0-1,0.8-1.9,1.9-1.9h16.4c1,0,1.9,0.8,1.9,1.9V63
				C201.8,64,201,64.9,199.9,64.9z M183.5,45.5c-0.6,0-1.1,0.5-1.1,1.1V63c0,0.6,0.5,1.1,1.1,1.1h16.4c0.6,0,1.1-0.5,1.1-1.1V46.6
				c0-0.6-0.5-1.1-1.1-1.1H183.5z"/>
		</g>
		<g>
			<path d="M177.2,64.9h-16.4c-1,0-1.9-0.8-1.9-1.9V46.6c0-1,0.8-1.9,1.9-1.9h16.4c1,0,1.9,0.8,1.9,1.9V63
				C179.1,64,178.2,64.9,177.2,64.9z M160.8,45.5c-0.6,0-1.1,0.5-1.1,1.1V63c0,0.6,0.5,1.1,1.1,1.1h16.4c0.6,0,1.1-0.5,1.1-1.1V46.6
				c0-0.6-0.5-1.1-1.1-1.1H160.8z"/>
		</g>
		<g>
			<path d="M154.5,64.9h-16.4c-1,0-1.9-0.8-1.9-1.9V46.6c0-1,0.8-1.9,1.9-1.9h16.4c1,0,1.9,0.8,1.9,1.9V63
				C156.4,64,155.5,64.9,154.5,64.9z M138.1,45.5c-0.6,0-1.1,0.5-1.1,1.1V63c0,0.6,0.5,1.1,1.1,1.1h16.4c0.6,0,1.1-0.5,1.1-1.1V46.6
				c0-0.6-0.5-1.1-1.1-1.1H138.1z"/>
		</g>
		<g>
			<path d="M131.8,64.9h-16.4c-1,0-1.9-0.8-1.9-1.9V46.6c0-1,0.8-1.9,1.9-1.9h16.4c1,0,1.9,0.8,1.9,1.9V63
				C133.7,64,132.8,64.9,131.8,64.9z M115.4,45.5c-0.6,0-1.1,0.5-1.1,1.1V63c0,0.6,0.5,1.1,1.1,1.1h16.4c0.6,0,1.1-0.5,1.1-1.1V46.6
				c0-0.6-0.5-1.1-1.1-1.1H115.4z"/>
		</g>
		<g>
			<path d="M109.1,64.9H92.7c-1,0-1.9-0.8-1.9-1.9V46.6c0-1,0.8-1.9,1.9-1.9h16.4c1,0,1.9,0.8,1.9,1.9V63
				C111,64,110.1,64.9,109.1,64.9z M92.7,45.5c-0.6,0-1.1,0.5-1.1,1.1V63c0,0.6,0.5,1.1,1.1,1.1h16.4c0.6,0,1.1-0.5,1.1-1.1V46.6
				c0-0.6-0.5-1.1-1.1-1.1H92.7z"/>
		</g>
		<g>
			<path d="M86.4,64.9H70c-1,0-1.9-0.8-1.9-1.9V46.6c0-1,0.8-1.9,1.9-1.9h16.4c1,0,1.9,0.8,1.9,1.9V63C88.2,64,87.4,64.9,86.4,64.9z
				 M70,45.5c-0.6,0-1.1,0.5-1.1,1.1V63c0,0.6,0.5,1.1,1.1,1.1h16.4c0.6,0,1.1-0.5,1.1-1.1V46.6c0-0.6-0.5-1.1-1.1-1.1H70z"/>
		</g>
		<g>
			<path d="M63.7,64.9H47.2c-1,0-1.9-0.8-1.9-1.9V46.6c0-1,0.8-1.9,1.9-1.9h16.4c1,0,1.9,0.8,1.9,1.9V63
				C65.5,64,64.7,64.9,63.7,64.9z M47.2,45.5c-0.6,0-1.1,0.5-1.1,1.1V63c0,0.6,0.5,1.1,1.1,1.1h16.4c0.6,0,1.1-0.5,1.1-1.1V46.6
				c0-0.6-0.5-1.1-1.1-1.1C63.7,45.5,47.2,45.5,47.2,45.5z"/>
		</g>
		<g>
			<path d="M41,64.9H24.5c-1,0-1.9-0.8-1.9-1.9V46.6c0-1,0.8-1.9,1.9-1.9h16.4c1,0,1.9,0.8,1.9,1.9V63C42.8,64,42,64.9,41,64.9z
				 M24.5,45.5c-0.6,0-1.1,0.5-1.1,1.1V63c0,0.6,0.5,1.1,1.1,1.1h16.4c0.6,0,1.1-0.5,1.1-1.1V46.6c0-0.6-0.5-1.1-1.1-1.1
				C41,45.5,24.5,45.5,24.5,45.5z"/>
		</g>
		<g>
			<path d="M188.2,86.6h-16.4c-1,0-1.9-0.8-1.9-1.9V68.3c0-1,0.8-1.9,1.9-1.9h16.4c1,0,1.9,0.8,1.9,1.9v16.4
				C190,85.7,189.2,86.6,188.2,86.6z M171.8,67.1c-0.6,0-1.1,0.5-1.1,1.1v16.4c0,0.6,0.5,1.1,1.1,1.1h16.4c0.6,0,1.1-0.5,1.1-1.1
				V68.2c0-0.6-0.5-1.1-1.1-1.1H171.8z"/>
		</g>
		<g>
			<path d="M165.5,86.6h-16.4c-1,0-1.9-0.8-1.9-1.9V68.3c0-1,0.8-1.9,1.9-1.9h16.4c1,0,1.9,0.8,1.9,1.9v16.4
				C167.3,85.7,166.5,86.6,165.5,86.6z M149,67.1c-0.6,0-1.1,0.5-1.1,1.1v16.4c0,0.6,0.5,1.1,1.1,1.1h16.4c0.6,0,1.1-0.5,1.1-1.1
				V68.2c0-0.6-0.5-1.1-1.1-1.1H149z"/>
		</g>
		<g>
			<path d="M142.7,86.6h-16.4c-1,0-1.9-0.8-1.9-1.9V68.3c0-1,0.8-1.9,1.9-1.9h16.4c1,0,1.9,0.8,1.9,1.9v16.4
				C144.6,85.7,143.8,86.6,142.7,86.6z M126.3,67.1c-0.6,0-1.1,0.5-1.1,1.1v16.4c0,0.6,0.5,1.1,1.1,1.1h16.4c0.6,0,1.1-0.5,1.1-1.1
				V68.2c0-0.6-0.5-1.1-1.1-1.1H126.3z"/>
		</g>
		<g>
			<path d="M120,86.6h-16.4c-1,0-1.9-0.8-1.9-1.9V68.3c0-1,0.8-1.9,1.9-1.9H120c1,0,1.9,0.8,1.9,1.9v16.4
				C121.9,85.7,121.1,86.6,120,86.6z M103.6,67.1c-0.6,0-1.1,0.5-1.1,1.1v16.4c0,0.6,0.5,1.1,1.1,1.1H120c0.6,0,1.1-0.5,1.1-1.1
				V68.2c0-0.6-0.5-1.1-1.1-1.1H103.6z"/>
		</g>
		<g>
			<path d="M97.3,86.6H80.9c-1,0-1.9-0.8-1.9-1.9V68.3c0-1,0.8-1.9,1.9-1.9h16.4c1,0,1.9,0.8,1.9,1.9v16.4
				C99.2,85.7,98.4,86.6,97.3,86.6z M80.9,67.1c-0.6,0-1.1,0.5-1.1,1.1v16.4c0,0.6,0.5,1.1,1.1,1.1h16.4c0.6,0,1.1-0.5,1.1-1.1V68.2
				c0-0.6-0.5-1.1-1.1-1.1H80.9z"/>
		</g>
		<g>
			<path d="M74.6,86.6H58.2c-1,0-1.9-0.8-1.9-1.9V68.3c0-1,0.8-1.9,1.9-1.9h16.4c1,0,1.9,0.8,1.9,1.9v16.4
				C76.5,85.7,75.6,86.6,74.6,86.6z M58.2,67.1c-0.6,0-1.1,0.5-1.1,1.1v16.4c0,0.6,0.5,1.1,1.1,1.1h16.4c0.6,0,1.1-0.5,1.1-1.1V68.2
				c0-0.6-0.5-1.1-1.1-1.1H58.2z"/>
		</g>
		<g>
			<path d="M51.9,86.6H35.5c-1,0-1.9-0.8-1.9-1.9V68.3c0-1,0.8-1.9,1.9-1.9h16.4c1,0,1.9,0.8,1.9,1.9v16.4
				C53.8,85.7,52.9,86.6,51.9,86.6z M35.5,67.1c-0.6,0-1.1,0.5-1.1,1.1v16.4c0,0.6,0.5,1.1,1.1,1.1h16.4c0.6,0,1.1-0.5,1.1-1.1V68.2
				c0-0.6-0.5-1.1-1.1-1.1H35.5z"/>
		</g>
		<g>
			<path d="M188.3,108.4H81.2c-1,0-1.9-0.8-1.9-1.9V90.1c0-1,0.8-1.9,1.9-1.9h107.1c1,0,1.9,0.8,1.9,1.9v16.4
				C190.2,107.6,189.3,108.4,188.3,108.4z M81.2,89c-0.6,0-1.1,0.5-1.1,1.1v16.4c0,0.6,0.5,1.1,1.1,1.1h107.1c0.6,0,1.1-0.5,1.1-1.1
				V90.1c0-0.6-0.5-1.1-1.1-1.1C188.3,89,81.2,89,81.2,89z"/>
		</g>
	</g>
</g>
<text transform="matrix(1 0 0 1 24.6381 36.7999)" class="st7 st8 st9">Q</text>
<text transform="matrix(1 0 0 1 14.6305 15.134)" class="st10 st8 st9">1</text>
<text transform="matrix(1 0 0 1 35.7272 15.134)" class="st10 st8 st9">2</text>
<text transform="matrix(1 0 0 1 58.4195 15.134)" class="st10 st8 st9">3</text>
<text transform="matrix(1 0 0 1 81.0426 15.134)" class="st10 st8 st9">4</text>
<text transform="matrix(1 0 0 1 103.8683 15.134)" class="st10 st8 st9">5</text>
<text transform="matrix(1 0 0 1 126.4137 15.134)" class="st10 st8 st9">6</text>
<text transform="matrix(1 0 0 1 149.2047 15.134)" class="st10 st8 st9">7</text>
<text transform="matrix(1 0 0 1 171.8551 15.134)" class="st10 st8 st9">8</text>
<text transform="matrix(1 0 0 1 194.5548 15.134)" class="st10 st8 st9">9</text>
<text transform="matrix(1 0 0 1 216.9185 15.134)" class="st10 st8 st9">0</text>
<text transform="matrix(1 0 0 1 30.7114 58.6921)" class="st7 st8 st9">A</text>
<text transform="matrix(1 0 0 1 41.8019 80.3049)" class="st7 st8 st9">Z</text>
<text transform="matrix(1 0 0 1 64.5718 80.3049)" class="st7 st8 st9">X</text>
<text transform="matrix(1 0 0 1 86.9291 80.3049)" class="st7 st8 st9">C</text>
<text transform="matrix(1 0 0 1 109.7693 80.3049)" class="st7 st8 st9">V</text>
<text transform="matrix(1 0 0 1 132.2522 80.3049)" class="st7 st8 st9">B</text>
<text transform="matrix(1 0 0 1 122.6002 102.5996)" class="st7 st8 st9">SPACE</text>
<text transform="matrix(1 0 0 1 154.9523 80.3049)" class="st7 st8 st9">N</text>
<text transform="matrix(1 0 0 1 177.1416 80.3049)" class="st7 st8 st9">M</text>
<text transform="matrix(1 0 0 1 53.3481 58.6921)" class="st7 st8 st9">S</text>
<text transform="matrix(1 0 0 1 75.7957 58.6921)" class="st7 st8 st9">D</text>
<text transform="matrix(1 0 0 1 98.8523 58.6921)" class="st7 st8 st9">F</text>
<text transform="matrix(1 0 0 1 121.3488 58.6921)" class="st7 st8 st9">G</text>
<text transform="matrix(1 0 0 1 143.8736 58.6921)" class="st7 st8 st9">H</text>
<text transform="matrix(1 0 0 1 166.853 58.6921)" class="st7 st8 st9">J</text>
<text transform="matrix(1 0 0 1 189.3148 58.6921)" class="st7 st8 st9">K</text>
<text transform="matrix(1 0 0 1 212.5183 58.6921)" class="st7 st8 st9">L</text>
<text transform="matrix(1 0 0 1 46.1974 36.7999)" class="st7 st8 st9">W</text>
<text transform="matrix(1 0 0 1 70.3607 36.7999)" class="st7 st8 st9">E</text>
<text transform="matrix(1 0 0 1 92.627 36.7999)" class="st7 st8 st9">R</text>
<text transform="matrix(1 0 0 1 115.9016 36.7999)" class="st7 st8 st9">T</text>
<text transform="matrix(1 0 0 1 138.5946 36.7999)" class="st7 st8 st9">Y</text>
<text transform="matrix(1 0 0 1 160.8824 36.7999)" class="st7 st8 st9">U</text>
<text transform="matrix(1 0 0 1 185.3328 36.7999)" class="st7 st8 st9">I</text>
<text transform="matrix(1 0 0 1 206.3042 36.7999)" class="st7 st8 st9">O</text>
<text transform="matrix(1 0 0 1 229.0046 36.7999)" class="st7 st8 st9">P</text>
</svg>
