<?xml version="1.0" encoding="utf-8"?>
<!-- Generator: Adobe Illustrator 25.3.1, SVG Export Plug-In . SVG Version: 6.00 Build 0)  -->
<svg version="1.1" id="Layer_1" xmlns="http://www.w3.org/2000/svg" xmlns:xlink="http://www.w3.org/1999/xlink" x="0px" y="0px"
	 viewBox="0 0 30 30" style="enable-background:new 0 0 30 30;" xml:space="preserve">
<style type="text/css">
	.st0{fill:none;stroke:#777777;stroke-width:2;stroke-linecap:round;stroke-linejoin:round;stroke-miterlimit:10;}
</style>
<line class="st0" x1="28.5" y1="4.5" x2="7.9" y2="4.5"/>
<path class="st0" d="M3.5,6.5L3.5,6.5c-1.1,0-2-0.9-2-2v0c0-1.1,0.9-2,2-2h0c1.1,0,2,0.9,2,2v0C5.5,5.6,4.6,6.5,3.5,6.5z"/>
<line class="st0" x1="28.5" y1="11.5" x2="7.9" y2="11.5"/>
<path class="st0" d="M3.5,13.5L3.5,13.5c-1.1,0-2-0.9-2-2v0c0-1.1,0.9-2,2-2h0c1.1,0,2,0.9,2,2v0C5.5,12.6,4.6,13.5,3.5,13.5z"/>
<line class="st0" x1="28.5" y1="18.5" x2="7.9" y2="18.5"/>
<path class="st0" d="M3.5,20.5L3.5,20.5c-1.1,0-2-0.9-2-2v0c0-1.1,0.9-2,2-2h0c1.1,0,2,0.9,2,2v0C5.5,19.6,4.6,20.5,3.5,20.5z"/>
<line class="st0" x1="28.5" y1="25.5" x2="7.9" y2="25.5"/>
<path class="st0" d="M3.5,27.5L3.5,27.5c-1.1,0-2-0.9-2-2v0c0-1.1,0.9-2,2-2h0c1.1,0,2,0.9,2,2v0C5.5,26.6,4.6,27.5,3.5,27.5z"/>
</svg>
