<?xml version="1.0" encoding="utf-8"?>
<!-- Generator: Adobe Illustrator 25.4.1, SVG Export Plug-In . SVG Version: 6.00 Build 0)  -->
<svg version="1.1" id="Layer_1" xmlns="http://www.w3.org/2000/svg" xmlns:xlink="http://www.w3.org/1999/xlink" x="0px" y="0px"
	 viewBox="0 0 340 100" style="enable-background:new 0 0 340 100;" xml:space="preserve">
<style type="text/css">
	.st0{fill:#777777;}
	.st1{fill:none;stroke:#777777;stroke-miterlimit:10;}
</style>
<g>
	<path class="st0" d="M28,55c9.4,0,17,7.6,17,17s-7.6,17-17,17s-17-7.6-17-17S18.6,55,28,55 M28,54c-9.9,0-18,8.1-18,18
		s8.1,18,18,18s18-8.1,18-18S37.9,54,28,54L28,54z"/>
</g>
<g>
	<path class="st0" d="M312,55c9.4,0,17,7.6,17,17s-7.6,17-17,17s-17-7.6-17-17S302.6,55,312,55 M312,54c-9.9,0-18,8.1-18,18
		s8.1,18,18,18s18-8.1,18-18S321.9,54,312,54L312,54z"/>
</g>
<g>
	<path class="st0" d="M267,55c9.4,0,17,7.6,17,17s-7.6,17-17,17s-17-7.6-17-17S257.6,55,267,55 M267,54c-9.9,0-18,8.1-18,18
		s8.1,18,18,18s18-8.1,18-18S276.9,54,267,54L267,54z"/>
</g>
<g>
	<path class="st0" d="M222,55c9.4,0,17,7.6,17,17s-7.6,17-17,17s-17-7.6-17-17S212.6,55,222,55 M222,54c-9.9,0-18,8.1-18,18
		s8.1,18,18,18s18-8.1,18-18S231.9,54,222,54L222,54z"/>
</g>
<polygon class="st1" points="24.3,65.2 24.3,78.8 35.2,72 "/>
<g>
	<path class="st0" d="M225.5,76.1v1.1h-6.1v-1.1h2.6v-7.7c-0.1,0.1-0.3,0.3-0.5,0.5s-0.5,0.3-0.8,0.5c-0.3,0.1-0.6,0.3-0.9,0.4
		c-0.3,0.1-0.6,0.1-0.8,0.1v-1.2c0.3,0,0.6-0.1,0.9-0.2s0.6-0.3,0.9-0.5s0.5-0.4,0.7-0.6s0.3-0.3,0.3-0.4h1.3v9.2H225.5z"/>
</g>
<g>
	<path class="st0" d="M263.1,77.2c0-0.4,0-0.9,0.1-1.3s0.2-0.8,0.5-1.2c0.2-0.4,0.5-0.8,0.9-1.1c0.4-0.4,0.9-0.7,1.5-1
		c0.3-0.2,0.7-0.3,1.1-0.5s0.7-0.4,1.1-0.6c0.3-0.2,0.6-0.5,0.8-0.7c0.2-0.3,0.3-0.6,0.3-0.9c0-0.2-0.1-0.5-0.2-0.7
		c-0.1-0.2-0.3-0.4-0.4-0.6c-0.2-0.2-0.4-0.3-0.7-0.4c-0.3-0.1-0.6-0.2-1-0.2c-0.4,0-0.8,0.1-1.1,0.2c-0.3,0.1-0.6,0.2-0.8,0.4
		c-0.2,0.2-0.4,0.3-0.6,0.5s-0.3,0.3-0.4,0.4l-0.8-0.9c0.1-0.1,0.2-0.2,0.4-0.4c0.2-0.2,0.5-0.4,0.8-0.6c0.3-0.2,0.7-0.4,1.2-0.5
		c0.5-0.1,1-0.2,1.5-0.2c0.5,0,1,0.1,1.4,0.2c0.4,0.2,0.8,0.4,1.1,0.6c0.3,0.3,0.5,0.6,0.7,0.9s0.2,0.7,0.2,1.1
		c0,0.5-0.1,0.9-0.4,1.3c-0.2,0.4-0.5,0.7-0.9,0.9c-0.3,0.3-0.7,0.5-1,0.6c-0.4,0.2-0.6,0.3-0.9,0.4c-0.5,0.2-1,0.5-1.4,0.7
		c-0.4,0.2-0.7,0.5-0.9,0.7c-0.2,0.2-0.4,0.5-0.5,0.8c-0.1,0.3-0.2,0.6-0.2,1h6.3v1.1H263.1z"/>
</g>
<g>
	<path class="st0" d="M313.4,72.9c0.8,0.1,1.4,0.5,1.9,1.1s0.7,1.3,0.7,2.2c0,0.5-0.1,1-0.3,1.5s-0.5,0.8-0.8,1.2
		c-0.4,0.3-0.8,0.6-1.3,0.7s-1.1,0.3-1.7,0.3c-0.9,0-1.7-0.2-2.4-0.5s-1.2-0.9-1.5-1.5l0.8-0.8c0.3,0.5,0.6,0.9,1.2,1.3
		c0.5,0.3,1.2,0.5,1.9,0.5c0.9,0,1.6-0.2,2.1-0.7c0.5-0.4,0.8-1.1,0.8-1.9c0-0.8-0.3-1.5-0.8-2c-0.5-0.5-1.3-0.7-2.3-0.7h-0.4v-1
		h0.5c0.9,0,1.6-0.2,2.1-0.6c0.5-0.4,0.7-1,0.7-1.7c0-0.4-0.1-0.7-0.2-0.9c-0.1-0.3-0.3-0.5-0.5-0.7c-0.2-0.2-0.5-0.3-0.8-0.4
		c-0.3-0.1-0.7-0.1-1-0.1c-0.7,0-1.3,0.2-1.8,0.5c-0.5,0.3-0.9,0.7-1.2,1.3l-0.8-0.8c0.1-0.3,0.3-0.6,0.6-0.9s0.6-0.5,0.9-0.7
		s0.7-0.3,1.1-0.4c0.4-0.1,0.8-0.2,1.3-0.2c0.6,0,1.1,0.1,1.5,0.2s0.9,0.4,1.2,0.7c0.3,0.3,0.6,0.6,0.8,1c0.2,0.4,0.3,0.8,0.3,1.3
		c0,0.4-0.1,0.7-0.2,1c-0.1,0.3-0.3,0.6-0.5,0.9c-0.2,0.3-0.5,0.5-0.7,0.6C314.1,72.8,313.7,72.9,313.4,72.9z"/>
</g>
</svg>
