<?xml version="1.0" encoding="utf-8"?>
<!-- Generator: Adobe Illustrator 25.3.1, SVG Export Plug-In . SVG Version: 6.00 Build 0)  -->
<svg version="1.1" id="Layer_1" xmlns="http://www.w3.org/2000/svg" xmlns:xlink="http://www.w3.org/1999/xlink" x="0px" y="0px"
	 viewBox="0 0 245.5 110.4" style="enable-background:new 0 0 245.5 110.4;" xml:space="preserve">
<style type="text/css">
	.st0{fill:#444444;}
	.st1{fill:#DA2C5E;}
	.st2{fill:#11A779;}
	.st3{fill:#7D0D7D;}
	.st4{fill:#118AA7;}
	.st5{opacity:0.35;}
	.st6{fill:#FFFFFF;}
	.st7{font-family:'Staatliches-Regular';}
	.st8{font-size:14px;}
	.st9{opacity:0.3;fill:#FFFFFF;}
</style>
<g>
	<g>
		<g>
			<path class="st0" d="M19.8,17.9c0,0.8-0.7,1.5-1.5,1.5H1.9c-0.8,0-1.5-0.7-1.5-1.5V1.5C0.4,0.7,1.1,0,1.9,0h16.4
				c0.8,0,1.5,0.7,1.5,1.5V17.9z"/>
			<path class="st0" d="M43.5,17.9c0,0.8-0.7,1.5-1.5,1.5H25.6c-0.8,0-1.5-0.7-1.5-1.5V1.5c0-0.8,0.7-1.5,1.5-1.5H42
				c0.8,0,1.5,0.7,1.5,1.5V17.9L43.5,17.9z"/>
			<path class="st0" d="M67.2,17.9c0,0.8-0.7,1.5-1.5,1.5H49.3c-0.8,0-1.5-0.7-1.5-1.5V1.5c0-0.8,0.7-1.5,1.5-1.5h16.4
				c0.8,0,1.5,0.7,1.5,1.5V17.9L67.2,17.9z"/>
			<path class="st0" d="M90.9,17.9c0,0.8-0.7,1.5-1.5,1.5H73c-0.8,0-1.5-0.7-1.5-1.5V1.5C71.5,0.7,72.2,0,73,0h16.4
				c0.8,0,1.5,0.7,1.5,1.5V17.9z"/>
			<path class="st0" d="M114.6,17.9c0,0.8-0.7,1.5-1.5,1.5H96.7c-0.8,0-1.5-0.7-1.5-1.5V1.5c0-0.8,0.7-1.5,1.5-1.5h16.4
				c0.8,0,1.5,0.7,1.5,1.5V17.9z"/>
			<path class="st0" d="M138.3,17.9c0,0.8-0.7,1.5-1.5,1.5h-16.4c-0.8,0-1.5-0.7-1.5-1.5V1.5c0-0.8,0.7-1.5,1.5-1.5h16.4
				c0.8,0,1.5,0.7,1.5,1.5V17.9z"/>
			<path class="st0" d="M162,17.9c0,0.8-0.7,1.5-1.5,1.5h-16.4c-0.8,0-1.5-0.7-1.5-1.5V1.5c0-0.8,0.7-1.5,1.5-1.5h16.4
				c0.8,0,1.5,0.7,1.5,1.5V17.9z"/>
			<path class="st0" d="M185.7,17.9c0,0.8-0.7,1.5-1.5,1.5h-16.4c-0.8,0-1.5-0.7-1.5-1.5V1.5c0-0.8,0.7-1.5,1.5-1.5h16.4
				c0.8,0,1.5,0.7,1.5,1.5V17.9z"/>
			<path class="st0" d="M209.5,17.9c0,0.8-0.7,1.5-1.5,1.5h-16.4c-0.8,0-1.5-0.7-1.5-1.5V1.5c0-0.8,0.7-1.5,1.5-1.5H208
				c0.8,0,1.5,0.7,1.5,1.5V17.9z"/>
			<path class="st0" d="M233.2,17.9c0,0.8-0.7,1.5-1.5,1.5h-16.4c-0.8,0-1.5-0.7-1.5-1.5V1.5c0-0.8,0.7-1.5,1.5-1.5h16.4
				c0.8,0,1.5,0.7,1.5,1.5V17.9z"/>
			<path class="st1" d="M225.6,40.4c0,0.8,0.7,1.5,1.5,1.5h16.4c0.8,0,1.5-0.7,1.5-1.5V24c0-0.8-0.7-1.5-1.5-1.5h-16.4
				c-0.8,0-1.5,0.7-1.5,1.5V40.4z"/>
			<path class="st1" d="M201.9,40.4c0,0.8,0.7,1.5,1.5,1.5h16.4c0.8,0,1.5-0.7,1.5-1.5V24c0-0.8-0.7-1.5-1.5-1.5h-16.4
				c-0.8,0-1.5,0.7-1.5,1.5V40.4L201.9,40.4z"/>
			<path class="st1" d="M178.2,40.4c0,0.8,0.7,1.5,1.5,1.5h16.4c0.8,0,1.5-0.7,1.5-1.5V24c0-0.8-0.7-1.5-1.5-1.5h-16.4
				c-0.8,0-1.5,0.7-1.5,1.5V40.4L178.2,40.4z"/>
			<path class="st1" d="M154.5,40.4c0,0.8,0.7,1.5,1.5,1.5h16.4c0.8,0,1.5-0.7,1.5-1.5V24c0-0.8-0.7-1.5-1.5-1.5H156
				c-0.8,0-1.5,0.7-1.5,1.5V40.4z"/>
			<path class="st1" d="M130.8,40.4c0,0.8,0.7,1.5,1.5,1.5h16.4c0.8,0,1.5-0.7,1.5-1.5V24c0-0.8-0.7-1.5-1.5-1.5h-16.4
				c-0.8,0-1.5,0.7-1.5,1.5V40.4z"/>
			<path class="st1" d="M107.1,40.4c0,0.8,0.7,1.5,1.5,1.5H125c0.8,0,1.5-0.7,1.5-1.5V24c0-0.8-0.7-1.5-1.5-1.5h-16.4
				c-0.8,0-1.5,0.7-1.5,1.5V40.4z"/>
			<path class="st1" d="M83.4,40.4c0,0.8,0.7,1.5,1.5,1.5h16.4c0.8,0,1.5-0.7,1.5-1.5V24c0-0.8-0.7-1.5-1.5-1.5H84.8
				c-0.8,0-1.5,0.7-1.5,1.5C83.4,24,83.4,40.4,83.4,40.4z"/>
			<path class="st1" d="M59.6,40.4c0,0.8,0.7,1.5,1.5,1.5h16.4c0.8,0,1.5-0.7,1.5-1.5V24c0-0.8-0.7-1.5-1.5-1.5H61.1
				c-0.8,0-1.5,0.7-1.5,1.5V40.4z"/>
			<path class="st1" d="M35.9,40.4c0,0.8,0.7,1.5,1.5,1.5h16.4c0.8,0,1.5-0.7,1.5-1.5V24c0-0.8-0.7-1.5-1.5-1.5H37.4
				c-0.8,0-1.5,0.7-1.5,1.5V40.4z"/>
			<path class="st1" d="M12.2,40.4c0,0.8,0.7,1.5,1.5,1.5h16.4c0.8,0,1.5-0.7,1.5-1.5V24c0-0.8-0.7-1.5-1.5-1.5H13.7
				c-0.8,0-1.5,0.7-1.5,1.5V40.4L12.2,40.4z"/>
			<path class="st2" d="M208.7,63.3c0,0.8,0.7,1.5,1.5,1.5h16.4c0.8,0,1.5-0.7,1.5-1.5V46.9c0-0.8-0.7-1.5-1.5-1.5h-16.4
				c-0.8,0-1.5,0.7-1.5,1.5V63.3L208.7,63.3z"/>
			<path class="st2" d="M185,63.3c0,0.8,0.7,1.5,1.5,1.5h16.4c0.8,0,1.5-0.7,1.5-1.5V46.9c0-0.8-0.7-1.5-1.5-1.5h-16.4
				c-0.8,0-1.5,0.7-1.5,1.5V63.3z"/>
			<path class="st2" d="M161.3,63.3c0,0.8,0.7,1.5,1.5,1.5h16.4c0.8,0,1.5-0.7,1.5-1.5V46.9c0-0.8-0.7-1.5-1.5-1.5h-16.4
				c-0.8,0-1.5,0.7-1.5,1.5V63.3z"/>
			<path class="st2" d="M137.6,63.3c0,0.8,0.7,1.5,1.5,1.5h16.4c0.8,0,1.5-0.7,1.5-1.5V46.9c0-0.8-0.7-1.5-1.5-1.5h-16.4
				c-0.8,0-1.5,0.7-1.5,1.5V63.3z"/>
			<path class="st2" d="M113.9,63.3c0,0.8,0.7,1.5,1.5,1.5h16.4c0.8,0,1.5-0.7,1.5-1.5V46.9c0-0.8-0.7-1.5-1.5-1.5h-16.4
				c-0.8,0-1.5,0.7-1.5,1.5V63.3z"/>
			<path class="st2" d="M90.2,63.3c0,0.8,0.7,1.5,1.5,1.5h16.4c0.8,0,1.5-0.7,1.5-1.5V46.9c0-0.8-0.7-1.5-1.5-1.5H91.7
				c-0.8,0-1.5,0.7-1.5,1.5C90.2,46.9,90.2,63.3,90.2,63.3z"/>
			<path class="st2" d="M66.5,63.3c0,0.8,0.7,1.5,1.5,1.5h16.4c0.8,0,1.5-0.7,1.5-1.5V46.9c0-0.8-0.7-1.5-1.5-1.5H68
				c-0.8,0-1.5,0.7-1.5,1.5V63.3z"/>
			<path class="st2" d="M42.7,63.3c0,0.8,0.7,1.5,1.5,1.5h16.4c0.8,0,1.5-0.7,1.5-1.5V46.9c0-0.8-0.7-1.5-1.5-1.5H44.2
				c-0.8,0-1.5,0.7-1.5,1.5C42.8,46.9,42.8,63.3,42.7,63.3z"/>
			<path class="st2" d="M19,63.3c0,0.8,0.7,1.5,1.5,1.5h16.4c0.8,0,1.5-0.7,1.5-1.5V46.9c0-0.8-0.7-1.5-1.5-1.5H20.5
				c-0.8,0-1.5,0.7-1.5,1.5V63.3z"/>
			<path class="st3" d="M172.2,86c0,0.8,0.7,1.5,1.5,1.5h16.4c0.8,0,1.5-0.7,1.5-1.5V69.6c0-0.8-0.7-1.5-1.5-1.5h-16.4
				c-0.8,0-1.5,0.7-1.5,1.5V86z"/>
			<path class="st3" d="M148.5,86c0,0.8,0.7,1.5,1.5,1.5h16.4c0.8,0,1.5-0.7,1.5-1.5V69.6c0-0.8-0.7-1.5-1.5-1.5H150
				c-0.8,0-1.5,0.7-1.5,1.5V86z"/>
			<path class="st3" d="M124.8,86c0,0.8,0.7,1.5,1.5,1.5h16.4c0.8,0,1.5-0.7,1.5-1.5V69.6c0-0.8-0.7-1.5-1.5-1.5h-16.4
				c-0.8,0-1.5,0.7-1.5,1.5V86z"/>
			<path class="st3" d="M101.1,86c0,0.8,0.7,1.5,1.5,1.5H119c0.8,0,1.5-0.7,1.5-1.5V69.6c0-0.8-0.7-1.5-1.5-1.5h-16.4
				c-0.8,0-1.5,0.7-1.5,1.5V86z"/>
			<path class="st3" d="M77.4,86c0,0.8,0.7,1.5,1.5,1.5h16.4c0.8,0,1.5-0.7,1.5-1.5V69.6c0-0.8-0.7-1.5-1.5-1.5H78.9
				c-0.8,0-1.5,0.7-1.5,1.5V86z"/>
			<path class="st3" d="M53.7,86c0,0.8,0.7,1.5,1.5,1.5h16.4c0.8,0,1.5-0.7,1.5-1.5V69.6c0-0.8-0.7-1.5-1.5-1.5H55.2
				c-0.8,0-1.5,0.7-1.5,1.5V86L53.7,86z"/>
			<path class="st3" d="M30,86c0,0.8,0.7,1.5,1.5,1.5h16.4c0.8,0,1.5-0.7,1.5-1.5V69.6c0-0.8-0.7-1.5-1.5-1.5H31.5
				c-0.8,0-1.5,0.7-1.5,1.5V86z"/>
			<path class="st4" d="M77.7,108.8c0,0.8,0.7,1.5,1.5,1.5h111.1c0.8,0,1.5-0.7,1.5-1.5V92.4c0-0.8-0.7-1.5-1.5-1.5H79.2
				c-0.8,0-1.5,0.7-1.5,1.5V108.8L77.7,108.8z"/>
		</g>
	</g>
	<g class="st5">
		<g>
			<path d="M18.3,19.5H1.9c-1,0-1.9-0.8-1.9-1.9V1.3c0-1,0.8-1.9,1.9-1.9h16.4c1,0,1.9,0.8,1.9,1.9v16.4
				C20.1,18.7,19.3,19.5,18.3,19.5z M1.9,0.1c-0.6,0-1.1,0.5-1.1,1.1v16.4c0,0.6,0.5,1.1,1.1,1.1h16.4c0.6,0,1.1-0.5,1.1-1.1V1.3
				c0-0.6-0.5-1.1-1.1-1.1H1.9V0.1z"/>
		</g>
		<g>
			<path d="M42,19.5H25.6c-1,0-1.9-0.8-1.9-1.9V1.3c0-1,0.8-1.9,1.9-1.9H42c1,0,1.9,0.8,1.9,1.9v16.4C43.9,18.7,43,19.5,42,19.5z
				 M25.6,0.1c-0.6,0-1.1,0.5-1.1,1.1v16.4c0,0.6,0.5,1.1,1.1,1.1H42c0.6,0,1.1-0.5,1.1-1.1V1.3c0-0.6-0.5-1.1-1.1-1.1H25.6V0.1z"/>
		</g>
		<g>
			<path d="M65.7,19.5H49.3c-1,0-1.9-0.8-1.9-1.9V1.3c0-1,0.8-1.9,1.9-1.9h16.4c1,0,1.9,0.8,1.9,1.9v16.4
				C67.6,18.7,66.7,19.5,65.7,19.5z M49.3,0.1c-0.6,0-1.1,0.5-1.1,1.1v16.4c0,0.6,0.5,1.1,1.1,1.1h16.4c0.6,0,1.1-0.5,1.1-1.1V1.3
				c0-0.6-0.5-1.1-1.1-1.1H49.3V0.1z"/>
		</g>
		<g>
			<path d="M89.4,19.5H73c-1,0-1.9-0.8-1.9-1.9V1.3c0-1,0.8-1.9,1.9-1.9h16.4c1,0,1.9,0.8,1.9,1.9v16.4
				C91.3,18.7,90.5,19.5,89.4,19.5z M73,0.1c-0.6,0-1.1,0.5-1.1,1.1v16.4c0,0.6,0.5,1.1,1.1,1.1h16.4c0.6,0,1.1-0.5,1.1-1.1V1.3
				c0-0.6-0.5-1.1-1.1-1.1H73V0.1z"/>
		</g>
		<g>
			<path d="M113.1,19.5H96.7c-1,0-1.9-0.8-1.9-1.9V1.3c0-1,0.8-1.9,1.9-1.9h16.4c1,0,1.9,0.8,1.9,1.9v16.4
				C115,18.7,114.2,19.5,113.1,19.5z M96.7,0.1c-0.6,0-1.1,0.5-1.1,1.1v16.4c0,0.6,0.5,1.1,1.1,1.1h16.4c0.6,0,1.1-0.5,1.1-1.1V1.3
				c0-0.6-0.5-1.1-1.1-1.1H96.7V0.1z"/>
		</g>
		<g>
			<path d="M136.9,19.5h-16.4c-1,0-1.9-0.8-1.9-1.9V1.3c0-1,0.8-1.9,1.9-1.9h16.4c1,0,1.9,0.8,1.9,1.9v16.4
				C138.7,18.7,137.9,19.5,136.9,19.5z M120.4,0.1c-0.6,0-1.1,0.5-1.1,1.1v16.4c0,0.6,0.5,1.1,1.1,1.1h16.4c0.6,0,1.1-0.5,1.1-1.1
				V1.3c0-0.6-0.5-1.1-1.1-1.1h-16.4V0.1z"/>
		</g>
		<g>
			<path d="M160.6,19.5h-16.4c-1,0-1.9-0.8-1.9-1.9V1.3c0-1,0.8-1.9,1.9-1.9h16.4c1,0,1.9,0.8,1.9,1.9v16.4
				C162.4,18.7,161.6,19.5,160.6,19.5z M144.2,0.1c-0.6,0-1.1,0.5-1.1,1.1v16.4c0,0.6,0.5,1.1,1.1,1.1h16.4c0.6,0,1.1-0.5,1.1-1.1
				V1.3c0-0.6-0.5-1.1-1.1-1.1h-16.4V0.1z"/>
		</g>
		<g>
			<path d="M184.3,19.5h-16.4c-1,0-1.9-0.8-1.9-1.9V1.3c0-1,0.8-1.9,1.9-1.9h16.4c1,0,1.9,0.8,1.9,1.9v16.4
				C186.1,18.7,185.3,19.5,184.3,19.5z M167.9,0.1c-0.6,0-1.1,0.5-1.1,1.1v16.4c0,0.6,0.5,1.1,1.1,1.1h16.4c0.6,0,1.1-0.5,1.1-1.1
				V1.3c0-0.6-0.5-1.1-1.1-1.1h-16.4V0.1z"/>
		</g>
		<g>
			<path d="M208,19.5h-16.4c-1,0-1.9-0.8-1.9-1.9V1.3c0-1,0.8-1.9,1.9-1.9H208c1,0,1.9,0.8,1.9,1.9v16.4
				C209.9,18.7,209,19.5,208,19.5z M191.6,0.1c-0.6,0-1.1,0.5-1.1,1.1v16.4c0,0.6,0.5,1.1,1.1,1.1H208c0.6,0,1.1-0.5,1.1-1.1V1.3
				c0-0.6-0.5-1.1-1.1-1.1h-16.4V0.1z"/>
		</g>
		<g>
			<path d="M231.7,19.5h-16.4c-1,0-1.9-0.8-1.9-1.9V1.3c0-1,0.8-1.9,1.9-1.9h16.4c1,0,1.9,0.8,1.9,1.9v16.4
				C233.6,18.7,232.7,19.5,231.7,19.5z M215.3,0.1c-0.6,0-1.1,0.5-1.1,1.1v16.4c0,0.6,0.5,1.1,1.1,1.1h16.4c0.6,0,1.1-0.5,1.1-1.1
				V1.3c0-0.6-0.5-1.1-1.1-1.1h-16.4V0.1z"/>
		</g>
		<g>
			<path d="M243.6,42h-16.4c-1,0-1.9-0.8-1.9-1.9V23.7c0-1,0.8-1.9,1.9-1.9h16.4c1,0,1.9,0.8,1.9,1.9v16.4
				C245.4,41.2,244.6,42,243.6,42z M227.1,22.6c-0.6,0-1.1,0.5-1.1,1.1v16.4c0,0.6,0.5,1.1,1.1,1.1h16.4c0.6,0,1.1-0.5,1.1-1.1V23.7
				c0-0.6-0.5-1.1-1.1-1.1H227.1z"/>
		</g>
		<g>
			<path d="M219.8,42h-16.4c-1,0-1.9-0.8-1.9-1.9V23.7c0-1,0.8-1.9,1.9-1.9h16.4c1,0,1.9,0.8,1.9,1.9v16.4
				C221.7,41.2,220.9,42,219.8,42z M203.4,22.6c-0.6,0-1.1,0.5-1.1,1.1v16.4c0,0.6,0.5,1.1,1.1,1.1h16.4c0.6,0,1.1-0.5,1.1-1.1V23.7
				c0-0.6-0.5-1.1-1.1-1.1H203.4z"/>
		</g>
		<g>
			<path d="M196.1,42h-16.4c-1,0-1.9-0.8-1.9-1.9V23.7c0-1,0.8-1.9,1.9-1.9h16.4c1,0,1.9,0.8,1.9,1.9v16.4
				C198,41.2,197.2,42,196.1,42z M179.7,22.6c-0.6,0-1.1,0.5-1.1,1.1v16.4c0,0.6,0.5,1.1,1.1,1.1h16.4c0.6,0,1.1-0.5,1.1-1.1V23.7
				c0-0.6-0.5-1.1-1.1-1.1H179.7z"/>
		</g>
		<g>
			<path d="M172.4,42H156c-1,0-1.9-0.8-1.9-1.9V23.7c0-1,0.8-1.9,1.9-1.9h16.4c1,0,1.9,0.8,1.9,1.9v16.4
				C174.3,41.2,173.4,42,172.4,42z M156,22.6c-0.6,0-1.1,0.5-1.1,1.1v16.4c0,0.6,0.5,1.1,1.1,1.1h16.4c0.6,0,1.1-0.5,1.1-1.1V23.7
				c0-0.6-0.5-1.1-1.1-1.1H156z"/>
		</g>
		<g>
			<path d="M148.7,42h-16.4c-1,0-1.9-0.8-1.9-1.9V23.7c0-1,0.8-1.9,1.9-1.9h16.4c1,0,1.9,0.8,1.9,1.9v16.4
				C150.6,41.2,149.7,42,148.7,42z M132.3,22.6c-0.6,0-1.1,0.5-1.1,1.1v16.4c0,0.6,0.5,1.1,1.1,1.1h16.4c0.6,0,1.1-0.5,1.1-1.1V23.7
				c0-0.6-0.5-1.1-1.1-1.1H132.3z"/>
		</g>
		<g>
			<path d="M125,42h-16.4c-1,0-1.9-0.8-1.9-1.9V23.7c0-1,0.8-1.9,1.9-1.9H125c1,0,1.9,0.8,1.9,1.9v16.4C126.9,41.2,126,42,125,42z
				 M108.6,22.6c-0.6,0-1.1,0.5-1.1,1.1v16.4c0,0.6,0.5,1.1,1.1,1.1H125c0.6,0,1.1-0.5,1.1-1.1V23.7c0-0.6-0.5-1.1-1.1-1.1H108.6z"
				/>
		</g>
		<g>
			<path d="M101.3,42H84.9c-1,0-1.9-0.8-1.9-1.9V23.7c0-1,0.8-1.9,1.9-1.9h16.4c1,0,1.9,0.8,1.9,1.9v16.4
				C103.1,41.2,102.3,42,101.3,42z M84.9,22.6c-0.6,0-1.1,0.5-1.1,1.1v16.4c0,0.6,0.5,1.1,1.1,1.1h16.4c0.6,0,1.1-0.5,1.1-1.1V23.7
				c0-0.6-0.5-1.1-1.1-1.1H84.9z"/>
		</g>
		<g>
			<path d="M77.6,42H61.1c-1,0-1.9-0.8-1.9-1.9V23.7c0-1,0.8-1.9,1.9-1.9h16.4c1,0,1.9,0.8,1.9,1.9v16.4C79.4,41.2,78.6,42,77.6,42z
				 M61.1,22.6c-0.6,0-1.1,0.5-1.1,1.1v16.4c0,0.6,0.5,1.1,1.1,1.1h16.4c0.6,0,1.1-0.5,1.1-1.1V23.7c0-0.6-0.5-1.1-1.1-1.1H61.1z"/>
		</g>
		<g>
			<path d="M53.9,42H37.4c-1,0-1.9-0.8-1.9-1.9V23.7c0-1,0.8-1.9,1.9-1.9h16.4c1,0,1.9,0.8,1.9,1.9v16.4C55.7,41.2,54.9,42,53.9,42z
				 M37.4,22.6c-0.6,0-1.1,0.5-1.1,1.1v16.4c0,0.6,0.5,1.1,1.1,1.1h16.4c0.6,0,1.1-0.5,1.1-1.1V23.7c0-0.6-0.5-1.1-1.1-1.1H37.4z"/>
		</g>
		<g>
			<path d="M30.1,42H13.7c-1,0-1.9-0.8-1.9-1.9V23.7c0-1,0.8-1.9,1.9-1.9h16.4c1,0,1.9,0.8,1.9,1.9v16.4C32,41.2,31.2,42,30.1,42z
				 M13.7,22.6c-0.6,0-1.1,0.5-1.1,1.1v16.4c0,0.6,0.5,1.1,1.1,1.1h16.4c0.6,0,1.1-0.5,1.1-1.1V23.7c0-0.6-0.5-1.1-1.1-1.1H13.7z"/>
		</g>
		<g>
			<path d="M226.7,64.9h-16.4c-1,0-1.9-0.8-1.9-1.9V46.6c0-1,0.8-1.9,1.9-1.9h16.4c1,0,1.9,0.8,1.9,1.9V63
				C228.5,64,227.7,64.9,226.7,64.9z M210.2,45.5c-0.6,0-1.1,0.5-1.1,1.1V63c0,0.6,0.5,1.1,1.1,1.1h16.4c0.6,0,1.1-0.5,1.1-1.1V46.6
				c0-0.6-0.5-1.1-1.1-1.1C226.7,45.5,210.2,45.5,210.2,45.5z"/>
		</g>
		<g>
			<path d="M202.9,64.9h-16.4c-1,0-1.9-0.8-1.9-1.9V46.6c0-1,0.8-1.9,1.9-1.9h16.4c1,0,1.9,0.8,1.9,1.9V63
				C204.8,64,204,64.9,202.9,64.9z M186.5,45.5c-0.6,0-1.1,0.5-1.1,1.1V63c0,0.6,0.5,1.1,1.1,1.1h16.4c0.6,0,1.1-0.5,1.1-1.1V46.6
				c0-0.6-0.5-1.1-1.1-1.1C202.9,45.5,186.5,45.5,186.5,45.5z"/>
		</g>
		<g>
			<path d="M179.2,64.9h-16.4c-1,0-1.9-0.8-1.9-1.9V46.6c0-1,0.8-1.9,1.9-1.9h16.4c1,0,1.9,0.8,1.9,1.9V63
				C181.1,64,180.2,64.9,179.2,64.9z M162.8,45.5c-0.6,0-1.1,0.5-1.1,1.1V63c0,0.6,0.5,1.1,1.1,1.1h16.4c0.6,0,1.1-0.5,1.1-1.1V46.6
				c0-0.6-0.5-1.1-1.1-1.1H162.8z"/>
		</g>
		<g>
			<path d="M155.5,64.9h-16.4c-1,0-1.9-0.8-1.9-1.9V46.6c0-1,0.8-1.9,1.9-1.9h16.4c1,0,1.9,0.8,1.9,1.9V63
				C157.4,64,156.5,64.9,155.5,64.9z M139.1,45.5c-0.6,0-1.1,0.5-1.1,1.1V63c0,0.6,0.5,1.1,1.1,1.1h16.4c0.6,0,1.1-0.5,1.1-1.1V46.6
				c0-0.6-0.5-1.1-1.1-1.1H139.1z"/>
		</g>
		<g>
			<path d="M131.8,64.9h-16.4c-1,0-1.9-0.8-1.9-1.9V46.6c0-1,0.8-1.9,1.9-1.9h16.4c1,0,1.9,0.8,1.9,1.9V63
				C133.7,64,132.8,64.9,131.8,64.9z M115.4,45.5c-0.6,0-1.1,0.5-1.1,1.1V63c0,0.6,0.5,1.1,1.1,1.1h16.4c0.6,0,1.1-0.5,1.1-1.1V46.6
				c0-0.6-0.5-1.1-1.1-1.1H115.4z"/>
		</g>
		<g>
			<path d="M108.1,64.9H91.7c-1,0-1.9-0.8-1.9-1.9V46.6c0-1,0.8-1.9,1.9-1.9h16.4c1,0,1.9,0.8,1.9,1.9V63
				C110,64,109.1,64.9,108.1,64.9z M91.7,45.5c-0.6,0-1.1,0.5-1.1,1.1V63c0,0.6,0.5,1.1,1.1,1.1h16.4c0.6,0,1.1-0.5,1.1-1.1V46.6
				c0-0.6-0.5-1.1-1.1-1.1C108.1,45.5,91.7,45.5,91.7,45.5z"/>
		</g>
		<g>
			<path d="M84.4,64.9H68c-1,0-1.9-0.8-1.9-1.9V46.6c0-1,0.8-1.9,1.9-1.9h16.4c1,0,1.9,0.8,1.9,1.9V63C86.2,64,85.4,64.9,84.4,64.9z
				 M68,45.5c-0.6,0-1.1,0.5-1.1,1.1V63c0,0.6,0.5,1.1,1.1,1.1h16.4c0.6,0,1.1-0.5,1.1-1.1V46.6c0-0.6-0.5-1.1-1.1-1.1H68z"/>
		</g>
		<g>
			<path d="M60.7,64.9H44.2c-1,0-1.9-0.8-1.9-1.9V46.6c0-1,0.8-1.9,1.9-1.9h16.4c1,0,1.9,0.8,1.9,1.9V63
				C62.5,64,61.7,64.9,60.7,64.9z M44.2,45.5c-0.6,0-1.1,0.5-1.1,1.1V63c0,0.6,0.5,1.1,1.1,1.1h16.4c0.6,0,1.1-0.5,1.1-1.1V46.6
				c0-0.6-0.5-1.1-1.1-1.1C60.7,45.5,44.2,45.5,44.2,45.5z"/>
		</g>
		<g>
			<path d="M37,64.9H20.5c-1,0-1.9-0.8-1.9-1.9V46.6c0-1,0.8-1.9,1.9-1.9h16.4c1,0,1.9,0.8,1.9,1.9V63C38.8,64,38,64.9,37,64.9z
				 M20.5,45.5c-0.6,0-1.1,0.5-1.1,1.1V63c0,0.6,0.5,1.1,1.1,1.1h16.4c0.6,0,1.1-0.5,1.1-1.1V46.6c0-0.6-0.5-1.1-1.1-1.1
				C37,45.5,20.5,45.5,20.5,45.5z"/>
		</g>
		<g>
			<path d="M190.2,87.6h-16.4c-1,0-1.9-0.8-1.9-1.9V69.3c0-1,0.8-1.9,1.9-1.9h16.4c1,0,1.9,0.8,1.9,1.9v16.4
				C192,86.7,191.2,87.6,190.2,87.6z M173.8,68.1c-0.6,0-1.1,0.5-1.1,1.1v16.4c0,0.6,0.5,1.1,1.1,1.1h16.4c0.6,0,1.1-0.5,1.1-1.1
				V69.2c0-0.6-0.5-1.1-1.1-1.1H173.8z"/>
		</g>
		<g>
			<path d="M166.5,87.6h-16.4c-1,0-1.9-0.8-1.9-1.9V69.3c0-1,0.8-1.9,1.9-1.9h16.4c1,0,1.9,0.8,1.9,1.9v16.4
				C168.3,86.7,167.5,87.6,166.5,87.6z M150,68.1c-0.6,0-1.1,0.5-1.1,1.1v16.4c0,0.6,0.5,1.1,1.1,1.1h16.4c0.6,0,1.1-0.5,1.1-1.1
				V69.2c0-0.6-0.5-1.1-1.1-1.1H150z"/>
		</g>
		<g>
			<path d="M142.7,87.6h-16.4c-1,0-1.9-0.8-1.9-1.9V69.3c0-1,0.8-1.9,1.9-1.9h16.4c1,0,1.9,0.8,1.9,1.9v16.4
				C144.6,86.7,143.8,87.6,142.7,87.6z M126.3,68.1c-0.6,0-1.1,0.5-1.1,1.1v16.4c0,0.6,0.5,1.1,1.1,1.1h16.4c0.6,0,1.1-0.5,1.1-1.1
				V69.2c0-0.6-0.5-1.1-1.1-1.1H126.3z"/>
		</g>
		<g>
			<path d="M119,87.6h-16.4c-1,0-1.9-0.8-1.9-1.9V69.3c0-1,0.8-1.9,1.9-1.9H119c1,0,1.9,0.8,1.9,1.9v16.4
				C120.9,86.7,120.1,87.6,119,87.6z M102.6,68.1c-0.6,0-1.1,0.5-1.1,1.1v16.4c0,0.6,0.5,1.1,1.1,1.1H119c0.6,0,1.1-0.5,1.1-1.1
				V69.2c0-0.6-0.5-1.1-1.1-1.1H102.6z"/>
		</g>
		<g>
			<path d="M95.3,87.6H78.9c-1,0-1.9-0.8-1.9-1.9V69.3c0-1,0.8-1.9,1.9-1.9h16.4c1,0,1.9,0.8,1.9,1.9v16.4
				C97.2,86.7,96.4,87.6,95.3,87.6z M78.9,68.1c-0.6,0-1.1,0.5-1.1,1.1v16.4c0,0.6,0.5,1.1,1.1,1.1h16.4c0.6,0,1.1-0.5,1.1-1.1V69.2
				c0-0.6-0.5-1.1-1.1-1.1H78.9z"/>
		</g>
		<g>
			<path d="M71.6,87.6H55.2c-1,0-1.9-0.8-1.9-1.9V69.3c0-1,0.8-1.9,1.9-1.9h16.4c1,0,1.9,0.8,1.9,1.9v16.4
				C73.5,86.7,72.6,87.6,71.6,87.6z M55.2,68.1c-0.6,0-1.1,0.5-1.1,1.1v16.4c0,0.6,0.5,1.1,1.1,1.1h16.4c0.6,0,1.1-0.5,1.1-1.1V69.2
				c0-0.6-0.5-1.1-1.1-1.1H55.2z"/>
		</g>
		<g>
			<path d="M47.9,87.6H31.5c-1,0-1.9-0.8-1.9-1.9V69.3c0-1,0.8-1.9,1.9-1.9h16.4c1,0,1.9,0.8,1.9,1.9v16.4
				C49.8,86.7,48.9,87.6,47.9,87.6z M31.5,68.1c-0.6,0-1.1,0.5-1.1,1.1v16.4c0,0.6,0.5,1.1,1.1,1.1h16.4c0.6,0,1.1-0.5,1.1-1.1V69.2
				c0-0.6-0.5-1.1-1.1-1.1H31.5z"/>
		</g>
		<g>
			<path d="M190.3,110.4H79.2c-1,0-1.9-0.8-1.9-1.9V92.1c0-1,0.8-1.9,1.9-1.9h111.1c1,0,1.9,0.8,1.9,1.9v16.4
				C192.2,109.6,191.3,110.4,190.3,110.4z M79.2,91c-0.6,0-1.1,0.5-1.1,1.1v16.4c0,0.6,0.5,1.1,1.1,1.1h111.1c0.6,0,1.1-0.5,1.1-1.1
				V92.1c0-0.6-0.5-1.1-1.1-1.1C190.3,91,79.2,91,79.2,91z"/>
		</g>
	</g>
</g>
<text transform="matrix(1 0 0 1 18.6381 36.7999)" class="st6 st7 st8">Q</text>
<text transform="matrix(1 0 0 1 8.6305 14.134)" class="st9 st7 st8">1</text>
<text transform="matrix(1 0 0 1 30.7272 14.134)" class="st9 st7 st8">2</text>
<text transform="matrix(1 0 0 1 54.4195 14.134)" class="st9 st7 st8">3</text>
<text transform="matrix(1 0 0 1 78.0426 14.134)" class="st9 st7 st8">4</text>
<text transform="matrix(1 0 0 1 101.8683 14.134)" class="st9 st7 st8">5</text>
<text transform="matrix(1 0 0 1 125.4137 14.134)" class="st9 st7 st8">6</text>
<text transform="matrix(1 0 0 1 149.2047 14.134)" class="st9 st7 st8">7</text>
<text transform="matrix(1 0 0 1 172.8551 14.134)" class="st9 st7 st8">8</text>
<text transform="matrix(1 0 0 1 196.5548 14.134)" class="st9 st7 st8">9</text>
<text transform="matrix(1 0 0 1 219.9185 14.134)" class="st9 st7 st8">0</text>
<text transform="matrix(1 0 0 1 25.7114 59.6921)" class="st6 st7 st8">A</text>
<text transform="matrix(1 0 0 1 36.8019 82.3049)" class="st6 st7 st8">Z</text>
<text transform="matrix(1 0 0 1 60.5718 82.3049)" class="st6 st7 st8">X</text>
<text transform="matrix(1 0 0 1 83.9291 82.3049)" class="st6 st7 st8">C</text>
<text transform="matrix(1 0 0 1 107.7693 82.3049)" class="st6 st7 st8">V</text>
<text transform="matrix(1 0 0 1 131.2522 82.3049)" class="st6 st7 st8">B</text>
<text transform="matrix(1 0 0 1 118.6992 105.5996)" class="st6 st7 st8">SPACE</text>
<text transform="matrix(1 0 0 1 154.9523 82.3049)" class="st6 st7 st8">N</text>
<text transform="matrix(1 0 0 1 178.1416 82.3049)" class="st6 st7 st8">M</text>
<text transform="matrix(1 0 0 1 49.3481 59.6921)" class="st6 st7 st8">S</text>
<text transform="matrix(1 0 0 1 72.7957 59.6921)" class="st6 st7 st8">D</text>
<text transform="matrix(1 0 0 1 96.8523 59.6921)" class="st6 st7 st8">F</text>
<text transform="matrix(1 0 0 1 120.3488 59.6921)" class="st6 st7 st8">G</text>
<text transform="matrix(1 0 0 1 143.8736 59.6921)" class="st6 st7 st8">H</text>
<text transform="matrix(1 0 0 1 167.853 59.6921)" class="st6 st7 st8">J</text>
<text transform="matrix(1 0 0 1 191.3148 59.6921)" class="st6 st7 st8">K</text>
<text transform="matrix(1 0 0 1 215.5183 59.6921)" class="st6 st7 st8">L</text>
<text transform="matrix(1 0 0 1 41.1974 36.7999)" class="st6 st7 st8">W</text>
<text transform="matrix(1 0 0 1 66.3607 36.7999)" class="st6 st7 st8">E</text>
<text transform="matrix(1 0 0 1 89.627 36.7999)" class="st6 st7 st8">R</text>
<text transform="matrix(1 0 0 1 113.9016 36.7999)" class="st6 st7 st8">T</text>
<text transform="matrix(1 0 0 1 137.5946 36.7999)" class="st6 st7 st8">Y</text>
<text transform="matrix(1 0 0 1 160.8824 36.7999)" class="st6 st7 st8">U</text>
<text transform="matrix(1 0 0 1 186.3328 36.7999)" class="st6 st7 st8">I</text>
<text transform="matrix(1 0 0 1 208.3042 36.7999)" class="st6 st7 st8">O</text>
<text transform="matrix(1 0 0 1 232.0046 36.7999)" class="st6 st7 st8">P</text>
</svg>
